<?xml version="1.0" encoding="UTF-8" standalone="no"?>
<svg
   xmlns:dc="http://purl.org/dc/elements/1.1/"
   xmlns:cc="http://creativecommons.org/ns#"
   xmlns:rdf="http://www.w3.org/1999/02/22-rdf-syntax-ns#"
   xmlns:svg="http://www.w3.org/2000/svg"
   xmlns="http://www.w3.org/2000/svg"
   xmlns:sodipodi="http://sodipodi.sourceforge.net/DTD/sodipodi-0.dtd"
   xmlns:inkscape="http://www.inkscape.org/namespaces/inkscape"
   width="215.11107mm"
   height="180.7998mm"
   viewBox="0 0 215.11107 180.79981"
   version="1.1"
   id="svg8"
   inkscape:version="1.0.2 (e86c870879, 2021-01-15, custom)"
   sodipodi:docname="Spanish Art Nouveau Tracery Frame.svg">
  <defs
     id="defs2" />
  <sodipodi:namedview
     id="base"
     pagecolor="#ffffff"
     bordercolor="#666666"
     borderopacity="1.0"
     inkscape:pageopacity="0.0"
     inkscape:pageshadow="2"
     inkscape:zoom="0.7"
     inkscape:cx="412.584"
     inkscape:cy="211.09653"
     inkscape:document-units="mm"
     inkscape:current-layer="layer1"
     inkscape:document-rotation="0"
     showgrid="false"
     inkscape:window-width="1920"
     inkscape:window-height="1057"
     inkscape:window-x="-8"
     inkscape:window-y="-8"
     inkscape:window-maximized="1" />
  <metadata
     id="metadata5">
    <rdf:RDF>
      <cc:Work
         rdf:about="">
        <dc:format>image/svg+xml</dc:format>
        <dc:type
           rdf:resource="http://purl.org/dc/dcmitype/StillImage" />
        <dc:title></dc:title>
      </cc:Work>
    </rdf:RDF>
  </metadata>
  <g
     inkscape:label="Layer 1"
     inkscape:groupmode="layer"
     id="layer1"
     transform="translate(-84.20653,-80.735733)">
    <path
       style="fill:#000000;stroke-width:0.264583"
       d="m 262.00305,261.34212 c -2.52079,-0.39506 -4.16011,-0.78557 -5.56596,-1.32585 -2.1865,-0.8403 -6.06428,-3.08716 -8.0427,-4.66011 -1.1441,-0.90962 -4.46333,-5.01769 -5.63244,-6.97104 -0.69381,-1.15919 -1.37958,-2.28538 -1.52396,-2.50262 -0.5229,-0.78683 -1.05794,-2.10352 -1.06161,-2.61253 -0.002,-0.28623 -0.12429,-0.83068 -0.27159,-1.20988 -0.44511,-1.1458 -0.6302,-4.5213 -0.32975,-6.0139 0.56035,-2.78375 2.92608,-6.57738 4.10701,-6.5859 0.19999,-10e-4 0.36285,-0.10798 0.36192,-0.23677 -0.005,-0.72027 3.23637,-1.8766 5.3593,-1.91177 1.07192,-0.0177 3.31797,0.44045 3.76081,0.76723 0.14631,0.10796 0.68441,0.42805 1.19579,0.71131 0.51137,0.28326 1.94042,1.12172 3.17563,1.86325 1.23522,0.74154 2.98219,1.56987 3.88214,1.84075 1.49663,0.45047 1.74821,0.45882 2.94756,0.0978 2.24775,-0.67655 3.49834,-2.47365 3.48013,-5.00094 -0.0138,-1.91526 -1.99276,-4.58296 -4.3841,-5.9099 -3.44557,-1.91195 -7.388,-2.39434 -11.80892,-1.44495 -2.944,0.63223 -7.42124,1.2823 -8.90523,1.293 -1.32946,0.01 -6.98611,-0.63035 -7.80092,-0.8825 -0.24639,-0.0762 -0.66616,-0.17983 -0.93281,-0.23016 -0.26666,-0.0504 -1.43878,-0.28841 -2.60471,-0.52904 -2.33217,-0.48132 -9.78238,-0.5372 -39.95528,-0.29965 -33.79823,0.26603 -32.96077,0.2426 -39.68039,1.12957 -6.74209,0.8903 -13.33509,1.11987 -16.13596,0.56187 -7.36691,-1.4677 -10.59301,-1.54884 -13.2319,-0.33287 -0.43513,0.2005 -1.20663,0.53651 -1.71445,0.74669 -1.63331,0.67599 -3.57027,2.45541 -4.30326,3.95328 -1.62187,3.31431 -0.005,7.04411 3.25598,7.50906 1.80499,0.25738 3.19662,-0.21937 6.8018,-2.3302 3.76133,-2.20226 5.72371,-2.94254 7.84064,-2.9578 3.73721,-0.0269 5.66104,1.03168 7.76884,4.27494 1.4026,2.15819 1.78323,3.39308 1.923,6.2388 0.31466,6.40659 -2.918,12.48829 -9.28213,17.46278 -0.7959,0.62212 -1.59961,1.26136 -1.78601,1.42055 -0.86174,0.73592 -5.96327,2.93752 -8.10069,3.49588 -3.52735,0.92146 -9.2437,0.96183 -13.09655,0.0924 -1.81445,-0.40942 -2.90421,-0.79284 -3.13188,-1.10194 -0.19777,-0.26858 -0.68174,-0.47171 -1.11624,-0.46858 -1.23531,0.009 -5.15587,-2.47996 -7.42972,-4.71656 -1.119392,-1.10105 -3.210133,-3.55183 -3.211668,-3.76473 -5.94e-4,-0.0825 -0.308181,-0.59557 -0.683526,-1.14018 -2.478215,-3.5958 -4.033232,-10.29582 -2.843592,-12.2521 0.123242,-0.20265 0.264863,-0.31267 0.314715,-0.24448 0.826682,1.13065 2.432666,2.98159 3.301515,3.8051 0.973527,0.92271 1.166503,1.30719 1.587876,3.16363 0.445273,1.96176 1.346953,4.10597 1.81183,4.30858 0.10948,0.0477 0.20021,0.24498 0.2016,0.43836 0.004,0.52586 3.56251,4.16724 5.40868,5.53432 6.96702,5.15902 16.74287,5.54844 23.70342,0.94424 1.54702,-1.02331 5.29817,-4.59915 5.29494,-5.04747 -7e-4,-0.0971 0.41027,-0.81131 0.91326,-1.58719 0.50299,-0.77587 1.04669,-1.83201 1.20822,-2.34697 0.16153,-0.51495 0.40412,-1.07787 0.5391,-1.25092 0.44339,-0.56848 0.71451,-3.59306 0.42286,-4.71739 -0.41537,-1.60123 -0.80212,-2.20792 -1.79078,-2.80914 -0.72519,-0.44099 -1.1696,-0.5177 -2.26843,-0.39152 -1.53041,0.17574 -2.43684,0.58335 -4.92371,2.21413 -3.42662,2.24703 -3.79409,2.37608 -6.86703,2.41162 -2.62474,0.0303 -2.88412,-0.0166 -4.56001,-0.82653 -3.83664,-1.85401 -6.1319,-5.26536 -6.53808,-9.71728 -0.28678,-3.14322 0.76318,-6.95879 2.5345,-9.21044 2.43159,-3.09095 4.93434,-4.78997 9.05828,-6.14934 3.36056,-1.10775 3.17295,-1.09988 23.79106,-0.99673 4.22037,0.0211 17.16854,-0.008 28.77372,-0.0649 12.53803,-0.0614 21.10103,-0.005 21.10207,0.13864 9.6e-4,0.13306 0.12783,0.24101 0.28193,0.2399 0.15411,-0.001 0.21732,-0.10213 0.14048,-0.22447 -0.0769,-0.12236 13.87525,-0.30507 31.00466,-0.40603 33.75375,-0.19892 31.39629,-0.27423 34.6595,1.10761 2.22107,0.94056 2.69409,1.23154 3.37993,2.07914 0.40436,0.49972 0.8421,0.90781 0.97277,0.90687 0.50923,-0.004 2.73254,2.13697 4.2279,4.07068 0.78738,1.0182 1.15443,1.86928 1.6236,3.76476 0.59361,2.39817 0.59744,2.49925 0.18393,4.85532 -0.77284,4.4033 -2.95954,7.48084 -6.57847,9.25849 -1.55139,0.76206 -2.06915,0.88172 -3.92874,0.90798 -2.24199,0.0317 -3.6355,-0.31077 -5.94753,-1.46151 -0.69856,-0.34767 -1.42738,-0.81889 -1.61961,-1.04714 -0.19223,-0.22826 -0.47251,-0.41413 -0.62286,-0.41304 -0.15034,0.001 -0.64378,-0.27538 -1.09653,-0.61435 -2.24811,-1.68317 -4.13429,-1.93551 -5.6568,-0.75678 -1.73303,1.34171 -2.28421,3.75909 -1.50524,6.60159 0.54234,1.979 1.1738,3.18036 2.95053,5.61349 4.79118,6.56125 11.76595,9.47386 19.67459,8.21592 1.45357,-0.2312 2.88022,-0.52745 3.17034,-0.65834 0.2901,-0.13088 1.29897,-0.57346 2.24191,-0.98349 2.439,-1.06059 6.50236,-3.73464 6.81597,-4.48551 0.0548,-0.13106 0.45496,-0.61021 0.88941,-1.06478 1.67155,-1.74901 3.25837,-4.90061 3.82014,-7.58731 0.16836,-0.80514 0.53002,-1.44314 1.12953,-1.99257 0.48504,-0.44451 1.50765,-1.55687 2.27246,-2.4719 0.76481,-0.91505 1.55738,-1.66492 1.76125,-1.66639 1.00072,-0.007 -0.0137,6.5988 -1.70835,11.1251 -0.19121,0.51072 -0.41362,0.98859 -0.49424,1.06193 -0.0806,0.0734 -0.71073,0.99438 -1.40022,2.04675 -1.57425,2.40277 -4.41143,5.1506 -6.59373,6.38606 -4.05485,2.29558 -6.56059,3.24582 -10.15896,3.85254 -1.9096,0.32198 -6.36381,0.36231 -8.20177,0.0742 z m -9.89721,-9.16063 c -1.07587,-0.99598 -1.88621,-1.88414 -1.80072,-1.9737 0.0855,-0.0896 1.39377,-0.28891 2.9073,-0.443 3.4147,-0.34763 4.69482,-0.59719 9.22339,-1.79809 5.26711,-1.39675 10.11178,-3.72844 13.63033,-6.56011 0.46207,-0.37187 1.23164,-0.97479 1.71017,-1.33983 2.43443,-1.85704 8.35441,-8.49886 8.34816,-9.36607 -8e-4,-0.10993 0.27974,-0.62074 0.62341,-1.1351 1.00306,-1.50128 2.91705,-6.45312 3.49417,-9.04011 1.19131,-5.34014 1.42789,-7.90161 1.36942,-14.82693 -0.0627,-7.44869 -0.29406,-9.32803 -1.65006,-13.41397 -1.17143,-3.52984 -2.23913,-5.47148 -3.99803,-7.27049 -1.36747,-1.39866 -3.18026,-2.5469 -3.60238,-2.28179 -0.12289,0.0772 -0.24635,-1.64389 -0.27436,-3.82458 l -0.0509,-3.9649 0.77198,-0.006 c 2.17567,-0.0157 5.18674,1.12171 6.91545,2.61221 0.3589,0.30945 0.83623,0.69793 1.06073,0.86328 0.2245,0.16534 1.15038,1.15691 2.05754,2.20345 2.77534,3.20183 5.23762,9.05082 5.97038,14.18226 0.38498,2.696 0.42824,3.78313 0.4473,11.24186 0.0158,6.17759 -0.0397,7.03759 -0.6572,10.19145 -0.59154,3.02107 -1.23544,5.37864 -1.95501,7.15803 -0.11805,0.29191 -0.46204,1.2374 -0.76444,2.10108 -0.64149,1.83223 -2.83799,6.13338 -4.01162,7.85549 -3.4622,5.08023 -9.21317,10.60001 -14.23954,13.66709 -2.23881,1.36612 -6.27705,3.27602 -8.55842,4.04773 -3.78401,1.28 -7.06578,2.03614 -11.44366,2.63672 -3.42769,0.47022 -3.35612,0.48987 -5.52337,-1.51641 z m -11.06258,1.23126 c -4.02748,-0.66902 -9.11373,-2.73347 -11.67613,-4.73921 -2.78852,-2.18273 -5.69521,-5.75668 -6.18115,-7.60009 -1.20011,-4.55262 -0.93507,-6.11784 1.66524,-9.8345 1.41498,-2.02245 1.79572,-2.95741 1.62178,-3.98252 -0.27323,-1.61018 -1.72267,-2.74069 -3.89692,-3.03943 -1.54748,-0.21262 -3.43818,0.68097 -3.81455,1.80283 -0.29112,0.86778 0.20951,1.98345 1.08492,2.41781 1.74305,0.86483 2.77818,2.30636 2.7841,3.87715 0.005,1.36958 -0.39266,2.22382 -1.38333,2.97041 -0.74176,0.55901 -0.79172,0.56048 -26.98246,0.79703 -14.43162,0.13033 -27.00064,0.24224 -27.93116,0.24864 -2.36652,0.0163 -4.00916,-0.6209 -4.60456,-1.78611 -0.25808,-0.50507 -0.47306,-1.42245 -0.47772,-2.03859 -0.0102,-1.34311 0.81203,-2.40107 2.62117,-3.37273 1.10737,-0.59476 1.19075,-0.71564 1.25676,-1.82209 0.0623,-1.04393 -0.0261,-1.26535 -0.74228,-1.8592 -0.88535,-0.73412 -2.73746,-1.12605 -3.91713,-0.8289 -0.93318,0.23506 -2.61123,1.39963 -2.84424,1.97389 -0.57921,1.42748 -0.59172,2.28724 -0.0503,3.45344 0.47631,1.02589 1.40131,2.50833 1.82684,2.92777 0.52429,0.51679 1.41267,2.83556 1.62637,4.24503 0.21988,1.45013 0.17725,1.94248 -0.29543,3.41193 -1.56582,4.86779 -6.58001,9.54462 -12.4372,11.60042 -3.06689,1.07645 -9.25194,2.26259 -10.11271,1.93939 -0.30624,-0.11499 -0.0878,-0.45828 0.89786,-1.4113 0.71639,-0.69264 1.59963,-1.65633 1.96274,-2.14153 0.53797,-0.71887 1.05708,-1.00069 2.80406,-1.52227 3.38845,-1.01166 6.19848,-2.99557 7.73891,-5.46373 1.11389,-1.78475 0.87003,-3.98934 -0.63073,-5.70214 -0.81861,-0.93425 -1.86138,-3.16737 -2.19414,-4.69881 -0.56115,-2.58248 0.31618,-5.45725 2.35009,-7.70058 1.42791,-1.57496 4.28638,-3.28278 6.278,-3.75089 3.81886,-0.89758 8.30733,-0.36237 10.76138,1.28321 1.47123,0.98654 2.57604,2.67757 2.58526,3.95703 0.015,2.08075 -0.21551,2.59003 -1.45835,3.22196 -2.5509,1.29704 -1.03129,1.71865 4.93111,1.36812 2.10921,-0.12401 6.93059,-0.23212 10.71418,-0.24028 19.33882,-0.0416 30.31308,-0.14471 30.67902,-0.28815 0.67947,-0.26637 0.45164,-0.84416 -0.40448,-1.02573 -0.83624,-0.17736 -1.86535,-1.4639 -2.2051,-2.75669 -0.23103,-0.87908 0.26028,-2.53803 1.14903,-3.87982 1.32975,-2.0076 4.30206,-2.92936 8.83042,-2.73846 1.92012,0.081 3.02875,0.26753 3.94111,0.66327 0.6982,0.30284 1.48394,0.54909 1.74608,0.5472 0.26214,-0.002 0.63503,0.14425 0.82862,0.32476 0.19361,0.18051 0.69678,0.50327 1.11816,0.71725 1.0496,0.53297 3.21547,2.97945 3.93818,4.44839 0.80314,1.63242 0.98527,4.30625 0.41347,6.07019 -0.2379,0.73387 -0.95194,2.13766 -1.58676,3.11955 -1.48608,2.29854 -2.05399,4.02926 -1.81681,5.53671 0.0995,0.63223 0.35465,1.29164 0.56706,1.46536 0.21239,0.1737 0.38731,0.47187 0.38868,0.66259 0.006,0.86523 4.94032,4.03449 6.30472,4.04965 1.65722,0.0183 4.29297,1.53446 4.32011,2.48488 0.004,0.15159 0.54743,0.79755 1.20689,1.43549 0.65947,0.63794 1.1997,1.25417 1.20053,1.36939 0.002,0.29931 -2.1798,0.21836 -4.49924,-0.16693 z m -115.35752,0.52716 c -3.37431,-0.33761 -8.28774,-1.66297 -13.12274,-3.5398 -1.69494,-0.65793 -5.66999,-2.7129 -7.2645,-3.75552 -0.9194,-0.60118 -1.72911,-1.09263 -1.79935,-1.09213 -0.34249,0.002 -3.936847,-3.06807 -5.876116,-5.01977 -2.173857,-2.18779 -4.88535,-5.48292 -6.006392,-7.29925 -0.323477,-0.52409 -0.659422,-1.01191 -0.746554,-1.08404 -0.226326,-0.18737 -2.333332,-4.51575 -2.990512,-6.14334 -1.135959,-2.81336 -2.007119,-5.84561 -2.404738,-8.37024 -0.171703,-1.09019 -0.42576,-2.3429 -0.564572,-2.78379 -0.397952,-1.264 -0.591065,-8.88131 -0.328378,-12.95289 0.442583,-6.85983 1.548129,-11.85984 3.515811,-15.90075 1.918431,-3.93977 3.85777,-6.32874 6.714958,-8.27183 1.545713,-1.0512 6.135193,-2.53078 6.471923,-2.08647 0.0865,0.11423 0.13047,1.75572 0.0976,3.64778 l -0.0598,3.4401 -1.1023,0.51766 c -1.793544,0.84227 -4.102502,3.44506 -5.335423,6.01442 -2.267093,4.72448 -3.25824,9.91813 -3.159616,16.55645 0.03243,2.18265 0.111296,4.35502 0.175144,4.82752 0.06824,0.50457 -8.02e-4,0.85992 -0.168217,0.86113 -0.200565,0.001 -0.198516,0.10403 0.0065,0.34802 0.160255,0.19029 0.423665,1.46835 0.585358,2.84013 0.445464,3.77924 1.059291,6.73571 1.939446,9.34121 0.437568,1.29534 0.796673,2.5072 0.798013,2.69304 0.0013,0.18583 0.349447,0.84737 0.773577,1.47009 0.42412,0.62272 1.158411,1.91597 1.631749,2.87388 0.473337,0.95792 1.149921,2.04921 1.50353,2.42508 0.353598,0.37587 0.643597,0.77972 0.644446,0.89744 0.0023,0.3213 3.681563,4.04014 5.160633,5.21617 0.71164,0.56584 1.62696,1.32407 2.03405,1.68494 1.51991,1.3474 3.95449,2.86908 7.21315,4.50843 1.8465,0.92893 3.5789,1.75454 3.84978,1.83471 0.27088,0.0801 1.32777,0.39555 2.34865,0.70087 4.39816,1.31536 8.61336,2.01127 12.25188,2.02274 0.47296,0.002 0.86089,0.13631 0.86207,0.2996 0.001,0.16328 -0.71245,1.00189 -1.58587,1.86357 l -1.588,1.56667 -1.77443,-0.0295 c -0.97595,-0.0163 -2.19147,-0.0713 -2.70117,-0.12227 z M 282.71989,230.7517 c -0.9147,-1.71481 -3.52547,-4.8772 -5.63371,-6.82401 -1.90166,-1.75605 -3.50266,-2.94131 -7.1889,-5.32211 -4.8847,-3.15484 -5.94748,-3.96932 -8.7867,-6.73387 -2.84805,-2.77317 -5.33468,-6.77829 -6.13284,-9.87793 -0.18701,-0.72627 -0.3359,-2.0586 -0.33087,-2.9607 0.005,-0.90212 -0.10894,-1.71202 -0.25324,-1.79978 -0.45136,-0.27448 -0.30853,-3.16819 0.24757,-5.01578 0.61527,-2.04415 1.76511,-3.49275 3.85193,-4.85276 0.95384,-0.62164 1.38918,-1.08323 1.40379,-1.48843 0.14226,-3.9441 -0.0846,-30.07074 -0.26512,-30.53548 -0.13285,-0.34198 -0.45223,-0.69517 -0.70973,-0.78486 -0.2575,-0.0896 -0.9806,-0.5685 -1.60691,-1.06404 -3.0893,-2.4443 -3.921,-8.26584 -1.97323,-13.81179 2.01921,-5.74938 6.29441,-10.66245 13.34665,-15.33795 1.08625,-0.72016 2.03405,-1.37563 2.10623,-1.45659 0.0722,-0.0809 0.55142,-0.40647 1.065,-0.72333 0.51357,-0.31687 1.19399,-0.79175 1.51203,-1.0553 0.31805,-0.26355 1.13401,-0.8999 1.81324,-1.41413 0.67922,-0.51424 1.67907,-1.37316 2.2219,-1.90872 0.54282,-0.53557 1.20325,-1.13565 1.46763,-1.33353 1.01208,-0.75752 3.20187,-3.62466 3.98204,-5.21379 0.44812,-0.91277 0.924,-1.66036 1.05751,-1.66132 0.36972,-0.003 1.15026,1.19353 2.56108,3.92496 1.21013,2.34289 1.26271,2.52904 0.95784,3.39153 -0.46251,1.30847 -1.9893,3.88847 -3.57772,6.04574 -1.90258,2.58393 -7.86793,8.6559 -8.50843,8.66052 -0.31857,0.002 -4.45647,2.57466 -4.7327,2.94213 -0.0721,0.0958 -0.30915,0.24175 -0.52684,0.32418 -0.36899,0.1397 -1.89818,1.24723 -5.17669,3.74926 -3.27033,2.4958 -5.59189,6.22095 -5.79394,9.2969 -0.0926,1.40892 -0.0425,1.56735 0.73721,2.33595 0.57518,0.56694 0.97894,0.7672 1.29246,0.64104 0.25078,-0.10091 1.07796,-0.25407 1.83816,-0.34037 1.22619,-0.13918 1.44427,-0.086 1.93195,0.4709 0.55385,0.6325 0.57997,1.5094 0.13701,4.59962 -0.0626,0.43702 -0.1382,3.95 -0.16791,7.80662 -0.0297,3.85662 -0.0668,7.07166 -0.0823,7.14453 -0.18943,0.88715 0.19217,16.51787 0.42303,17.3276 0.4628,1.62332 0.41013,2.93946 -0.1424,3.55892 -0.62107,0.69632 -1.91102,0.71212 -2.79069,0.0342 -0.36585,-0.28194 -0.76587,-0.51454 -0.88894,-0.51688 -0.59667,-0.0114 -1.6918,1.14178 -1.96121,2.06515 -0.49073,1.6819 0.59398,4.90539 2.29845,6.83049 2.94048,3.32108 5.59059,5.43432 12.0588,9.61585 5.76271,3.72547 9.72504,8.03596 12.41486,13.50578 1.24663,2.53505 1.39018,3.31789 0.77654,4.23498 -0.26961,0.40295 -1.01917,1.68052 -1.66567,2.83906 -0.64651,1.15853 -1.30408,2.14958 -1.46128,2.20232 -0.15718,0.0527 -0.67241,-0.62892 -1.14494,-1.51478 z m -183.549741,1.40404 c -0.245378,-0.39842 -0.656316,-1.02782 -0.913195,-1.39864 -0.8502,-1.22736 -2.136055,-3.91331 -2.14007,-4.47026 -0.0044,-0.60944 1.528846,-3.64497 2.504118,-4.95768 0.346012,-0.46574 0.62829,-0.96233 0.627272,-1.10353 -0.0026,-0.35505 1.269606,-1.84613 4.176406,-4.8951 2.65306,-2.78278 2.57802,-2.72395 7.90767,-6.1986 7.98102,-5.20319 10.93855,-7.91622 12.3985,-11.37352 1.03267,-2.44544 1.13256,-4.34216 0.28704,-5.45021 -0.59939,-0.7855 -0.60687,-0.78645 -3.44465,-0.43662 -1.21155,0.14936 -1.40272,0.10221 -1.78917,-0.44113 -0.49139,-0.69091 -0.55207,-1.74598 -0.20637,-3.58815 0.18938,-1.00917 0.57576,-13.78728 0.46652,-15.42876 -0.0145,-0.21818 -0.0503,-3.31364 -0.0794,-6.87878 -0.0459,-5.67219 -0.23122,-8.65242 -0.79649,-12.84189 -0.16141,-1.1963 0.11612,-1.57785 1.429,-1.96464 0.60864,-0.17932 0.98945,-0.11414 1.65313,0.28296 2.45011,1.4659 4.04529,-1.93364 2.55208,-5.43881 -0.32049,-0.75229 -0.80295,-1.61202 -1.07214,-1.91051 -0.26919,-0.29849 -0.49028,-0.65754 -0.49129,-0.79787 -0.003,-0.3576 -2.97164,-3.14471 -5.19465,-4.87629 -1.02443,-0.79797 -3.41791,-2.48505 -5.31884,-3.74908 -4.57049,-3.03916 -6.2287,-4.35896 -8.82223,-7.02176 -2.36028,-2.42331 -5.686025,-7.56185 -6.271815,-9.69045 -0.29141,-1.05894 -0.266868,-1.28764 0.240305,-2.23933 1.652382,-3.10063 2.80318,-4.99131 3.035417,-4.98699 0.143463,0.003 0.510673,0.46439 0.816023,1.02604 1.76687,3.2499 4.79316,6.73605 7.63772,8.79827 1.07255,0.77757 2.06984,1.50953 2.21621,1.62657 0.14636,0.11705 1.61033,1.07004 3.25326,2.11776 3.1371,2.00056 7.42854,5.37287 9.27596,7.28924 2.1655,2.24633 4.06833,5.15711 5.21836,7.98258 1.0048,2.46866 1.14718,3.28299 1.17822,6.73856 0.03,3.32582 -0.0159,3.67651 -0.66529,5.09338 -0.75181,1.64052 -2.67616,3.78143 -4.06518,4.5227 -0.4739,0.25291 -0.94698,0.69448 -1.05128,0.98126 -0.1043,0.28678 -0.10709,3.71417 -0.006,7.61642 0.10093,3.90225 0.13533,7.20421 0.0766,7.33768 -0.18379,0.41734 0.0176,15.69974 0.2109,16.00761 0.10086,0.16065 0.64609,0.52393 1.21154,0.80728 2.46191,1.23369 3.70589,3.61272 3.95589,7.56534 0.42201,6.67243 -3.11722,13.51092 -9.84005,19.0129 -0.93394,0.76434 -1.96455,1.53044 -2.29023,1.70245 -0.32568,0.17201 -0.74576,0.44145 -0.93349,0.59875 -1.25904,1.05494 -2.99158,2.29391 -4.75081,3.3974 -1.12273,0.70424 -2.04065,1.37582 -2.03981,1.49238 8.4e-4,0.11657 -0.12029,0.21282 -0.26917,0.21389 -0.32816,0.002 -4.56687,3.64581 -5.59812,4.81194 -1.22833,1.389 -2.50653,3.30692 -3.07066,4.60749 -0.29356,0.67679 -0.584952,1.23089 -0.64755,1.23134 -0.0626,4.5e-4 -0.314572,-0.32517 -0.559941,-0.72359 z M 277.75521,207.53928 c -2.31795,-0.2472 -4.31447,-1.32064 -6.46949,-3.47838 -3.81502,-3.81984 -5.50797,-9.00335 -5.02249,-15.37796 0.56771,-7.45452 3.70266,-12.24542 8.79121,-13.43493 0.71995,-0.16829 0.85514,-0.11673 0.95977,0.36607 0.0965,0.44526 0.094,6.05107 -0.003,6.83446 -0.0127,0.10241 -0.44226,0.38883 -0.95461,0.6365 -2.95013,1.42607 -4.59194,4.73918 -4.57242,9.227 0.022,5.05965 2.07794,8.56968 5.71951,9.76465 2.23237,0.73255 3.82028,0.43251 4.87063,-0.92033 0.80707,-1.03951 -0.14133,-3.19644 -2.08045,-4.73152 -0.61894,-0.48999 -1.38106,-1.43549 -1.69632,-2.10449 -0.55613,-1.18016 -0.57435,-1.5315 -0.63947,-12.32709 -0.13729,-22.76383 -0.003,-32.98494 0.44801,-34.00308 0.22615,-0.51096 1.25344,-1.78597 2.28287,-2.83334 1.71816,-1.74811 1.87105,-1.99437 1.86378,-3.0021 -0.0108,-1.49649 -0.81734,-2.26941 -2.612,-2.50307 -1.92746,-0.25095 -4.36654,0.69568 -5.62204,2.18194 -2.4556,2.90695 -3.41202,8.98649 -1.99526,12.68288 0.92935,2.42471 1.86668,3.545 3.98065,4.75766 l 0.95189,0.54604 0.0235,3.25465 c 0.0295,4.09122 -0.0735,4.20645 -2.62296,2.93541 -2.17419,-1.08393 -3.72495,-2.72815 -5.00668,-5.30845 -1.4942,-3.00805 -1.85441,-4.31568 -2.18436,-7.92989 -0.29667,-3.24973 -0.28386,-3.45994 0.37445,-6.14067 1.21512,-4.94821 3.12503,-8.04683 6.28403,-10.19521 3.06826,-2.08664 6.98509,-2.61669 9.9994,-1.35315 1.41333,0.59243 3.95144,2.99231 4.50589,4.26049 0.74591,1.70605 0.90798,3.69914 0.44738,5.50176 -0.65464,2.56203 -1.43884,3.87533 -3.58881,6.01012 -1.12109,1.11318 -2.15119,2.32733 -2.28911,2.6981 -0.24836,0.66769 -0.46496,16.47081 -0.37725,27.52467 0.0574,7.26239 0.21414,7.77785 3.30893,10.89778 2.85147,2.87465 3.2925,3.80728 3.31054,7.00075 0.0129,2.2025 -0.0711,2.67782 -0.67526,3.84143 -0.79437,1.52998 -1.69484,2.44101 -3.3697,3.40927 -1.07297,0.62029 -4.09623,1.59692 -4.65768,1.50461 -0.12467,-0.0205 -0.88203,-0.10715 -1.68303,-0.19258 z m -175.28956,0.20144 c -2.07466,-0.48926 -4.578013,-2.29383 -5.711355,-4.1171 -2.136259,-3.43673 -1.084847,-8.2499 2.61004,-11.94821 1.052335,-1.05331 2.087045,-2.12274 2.299355,-2.37652 0.30542,-0.36506 0.395,-1.56954 0.42897,-5.76809 0.0236,-2.91869 0.10704,-5.60482 0.18538,-5.96919 0.23899,-1.11156 -0.0454,-20.56306 -0.32111,-21.96162 -0.14191,-0.71993 -0.49189,-1.75584 -0.77772,-2.30202 -4.030858,-4.65027 -4.232054,-4.67056 -5.399796,-7.17579 -1.344427,-4.12739 0.220787,-8.02233 4.033676,-10.03764 1.78715,-0.94459 1.97483,-0.98617 4.53465,-1.00462 2.5635,-0.0185 2.74903,0.02 4.63726,0.96188 2.91998,1.45653 4.76162,3.36488 6.38076,6.61185 1.74621,3.50182 2.26585,6.00862 2.10712,10.16501 -0.12974,3.39713 -0.60319,5.64473 -1.71622,8.14727 -1.32469,2.97846 -4.48857,5.78018 -6.92462,6.13199 l -1.234,0.17821 -0.0249,-3.45382 c -0.0272,-3.78048 0.0624,-4.2915 0.75385,-4.29648 0.72187,-0.005 2.71541,-1.94167 3.49053,-3.3906 3.51439,-6.56944 0.39327,-15.47593 -5.64638,-16.11263 -1.51483,-0.15969 -2.33051,0.0897 -3.12057,0.95417 -1.23083,1.34675 -0.82654,2.80176 1.34699,4.84763 2.62756,2.47322 2.39493,0.41121 2.48718,22.04642 0.0447,10.47745 0.0381,20.63739 -0.0146,22.57765 -0.0898,3.30601 -0.14118,3.59742 -0.81766,4.63623 -0.39702,0.60965 -1.24094,1.58001 -1.87538,2.15633 -2.10216,1.90962 -2.4573,3.49923 -1.07369,4.80582 0.73986,0.69868 0.9831,0.76921 2.58516,0.74958 1.97364,-0.0242 2.90574,-0.41574 4.52686,-1.90168 2.15625,-1.97647 3.31015,-5.7262 3.03372,-9.8584 -0.14807,-2.21336 -0.28877,-2.75296 -1.16675,-4.475 -0.80869,-1.58612 -1.25538,-2.12857 -2.35112,-2.85506 -0.74402,-0.49329 -1.50317,-0.89581 -1.68701,-0.89448 -0.25207,0.002 -0.34032,-0.83946 -0.35893,-3.42147 -0.0136,-1.88313 0.0748,-3.48634 0.19632,-3.56268 0.12155,-0.0764 0.86348,0.0601 1.64874,0.30323 2.10211,0.65083 4.58815,3.01556 5.74629,5.46589 1.61285,3.41242 2.11428,5.62772 2.1462,9.48201 0.0164,2.00109 -0.11622,4.04909 -0.31754,4.8972 -0.37021,1.5597 -1.54886,4.81953 -1.82241,5.04036 -0.091,0.0735 -0.34122,0.48678 -0.55616,0.91861 -0.5763,1.15776 -2.83082,3.39456 -4.30896,4.27508 -2.5755,1.5342 -5.5276,2.10243 -7.95221,1.53064 z m 180.0794,-41.08121 c -0.14065,-0.17472 -0.25208,-1.80528 -0.24764,-3.62347 l 0.008,-3.3058 1.44994,-0.73693 c 2.3177,-1.17798 4.14277,-3.57723 5.65237,-7.43066 2.04596,-5.22254 2.5782,-9.30803 2.27152,-17.43621 -0.36772,-9.74622 -1.55248,-15.00121 -4.8418,-21.4758 -1.75384,-3.45222 -3.21049,-5.27828 -7.09359,-8.89251 -4.22744,-3.93474 -6.3915,-5.322606 -13.1165,-8.41195 -2.96946,-1.36411 -9.62758,-3.039589 -12.01067,-3.02241 -2.05766,0.01483 -4.41787,-0.299942 -4.41996,-0.589474 -0.003,-0.462968 3.12196,-3.352672 3.8218,-3.533691 1.67197,-0.432474 10.38037,1.176954 14.69362,2.715582 4.40378,1.570927 4.73262,1.70117 5.14356,2.037246 0.22851,0.186878 1.31315,0.790725 2.41032,1.34188 3.73567,1.876601 7.13273,4.45673 9.85509,7.485157 1.93747,2.15528 2.59062,2.76439 2.76956,2.58283 0.18241,-0.18506 -1.24898,-2.05262 -2.50303,-3.26576 -0.87866,-0.84999 -1.20742,-1.373923 -1.21143,-1.930639 -0.019,-2.640371 -1.87176,-5.922491 -5.04535,-8.937903 -3.48923,-3.315324 -7.66182,-5.37191 -12.14813,-5.987576 -4.18389,-0.574166 -9.95406,0.465795 -13.10778,2.362418 -5.15925,3.10274 -9.04134,8.745601 -9.31051,13.53338 -0.0826,1.46987 0.004,1.99726 0.47947,2.90703 0.31924,0.61127 0.84026,1.31524 1.15785,1.56438 1.0717,0.84074 4.62506,0.40807 5.27019,-0.64171 0.1748,-0.28445 0.46546,-0.51826 0.64591,-0.51956 0.18045,-0.001 0.97441,-0.4224 1.76435,-0.93579 4.82517,-3.135863 10.16873,-2.924936 14.10547,0.55681 1.21843,1.07759 2.60181,3.01056 2.82583,3.94848 0.0867,0.36318 0.31461,1.13547 0.50638,1.71618 0.59589,1.80457 0.41799,5.79177 -0.36015,8.07165 -0.639,1.87214 -2.40665,4.57379 -3.67726,5.62022 -0.29189,0.2404 -0.94477,0.80814 -1.45083,1.26164 -1.10567,0.99083 -4.05842,2.48872 -6.07571,3.08213 -1.70543,0.50168 -8.67426,1.15483 -9.86849,0.92492 -0.4489,-0.0865 -10.16581,-0.15541 -21.59316,-0.15333 -11.42734,0.002 -20.94508,-0.0495 -21.15053,-0.11464 -0.20545,-0.0651 -7.70641,-0.0413 -16.6688,0.053 -48.84447,0.51361 -65.76275,0.56986 -67.36078,0.22388 -2.32745,-0.50388 -4.85264,-1.80547 -6.4052,-3.30151 -1.8961,-1.82708 -3.89505,-3.54477 -4.12325,-3.54313 -0.3496,0.003 -1.74717,-2.47685 -2.34012,-4.15148 -0.65827,-1.85916 -0.71543,-2.84579 -0.33302,-5.74839 0.33608,-2.55106 0.87534,-3.8287 2.47615,-5.86671 1.38263,-1.76025 3.05436,-3.02615 4.71571,-3.57096 0.58073,-0.19043 1.16823,-0.45173 1.30554,-0.58068 0.45837,-0.43037 3.74319,-0.27471 5.52591,0.26188 1.08135,0.32548 2.71584,1.17427 4.34372,2.25572 3.04181,2.02076 3.95912,2.4419 5.29778,2.43225 0.81118,-0.006 1.1686,-0.2069 2.07618,-1.16787 0.61858,-0.65497 1.16894,-1.53808 1.26298,-2.02661 0.88947,-4.620257 -1.71961,-9.394944 -8.13671,-14.890379 -1.19054,-1.019545 -4.00109,-2.195016 -6.90015,-2.885876 -2.4733,-0.589407 -9.50135,-0.260227 -10.44779,0.489355 -0.1447,0.114596 -0.67916,0.299503 -1.18769,0.410892 -2.35814,0.516532 -6.97059,3.515768 -8.92209,5.801555 -2.10572,2.466423 -3.604873,5.306063 -3.866663,7.324053 -0.13991,1.0785 -0.448781,1.54415 -2.63248,3.96875 -1.360675,1.51079 -2.583135,2.6805 -2.716573,2.59936 -0.434758,-0.26439 -0.288136,-4.40431 0.235943,-6.661985 0.971265,-4.18408 2.841449,-7.548868 5.86097,-10.544922 3.092103,-3.068079 7.735613,-5.659669 11.839783,-6.607898 3.06308,-0.707699 8.37323,-1.007864 10.57514,-0.597776 2.85794,0.532272 4.27163,0.85037 4.68119,1.053323 0.21907,0.108564 0.99511,0.401617 1.72453,0.651236 2.64015,0.903502 7.1054,3.978635 9.43105,6.494976 2.28464,2.471985 4.72176,6.387359 5.75846,9.25133 1.41925,3.920786 1.34338,7.931816 -0.21001,11.102246 -2.6315,5.37084 -9.18252,7.12808 -14.24396,3.82081 -0.77248,-0.50476 -1.47506,-0.91725 -1.56128,-0.91663 -0.0862,6.2e-4 -0.96279,-0.51907 -1.94792,-1.15487 -2.43134,-1.56919 -4.46475,-2.17055 -5.87408,-1.7372 -1.48013,0.4551 -2.4929,1.41085 -3.15242,2.97492 -0.49475,1.1733 -0.53138,1.52452 -0.28996,2.77982 0.37476,1.94858 0.86177,2.78656 2.35931,4.05954 3.56083,3.02691 8.38455,3.89394 14.51202,2.60844 6.58829,-1.38216 10.43156,-1.44369 15.8335,-0.25345 6.2206,1.37063 6.29078,1.37401 22.67045,1.09594 8.36664,-0.14201 16.16459,-0.25881 17.32879,-0.2595 1.16419,-3.9e-4 9.67739,1.4e-4 18.91821,0.002 9.79953,0.002 17.73797,-0.10856 19.04859,-0.26489 1.2359,-0.1474 4.15037,-0.51251 6.47661,-0.81135 8.59419,-1.10408 11.89853,-1.07298 18.12566,0.17063 3.47437,0.69387 5.4826,0.76854 7.73368,0.28757 3.50857,-0.74964 7.14602,-3.06423 8.25924,-5.25553 1.05428,-2.07527 0.58115,-5.08859 -1.00555,-6.40429 -2.36893,-1.96433 -4.86678,-1.50393 -9.96284,1.83633 -2.34444,1.53668 -4.02012,2.1208 -6.53211,2.27699 -1.98402,0.12337 -2.62331,0.058 -3.84045,-0.39249 -1.78539,-0.66087 -3.99429,-2.68832 -4.95226,-4.54547 -0.77996,-1.51204 -1.46286,-4.61325 -1.47799,-6.71187 -0.0172,-2.3838 0.89579,-6.001468 1.92854,-7.641845 0.50401,-0.800544 0.91548,-1.58031 0.91438,-1.732816 -10e-4,-0.152506 0.0873,-0.282997 0.19635,-0.289973 0.1091,-0.0068 0.72315,-0.755573 1.36458,-1.66353 2.88617,-4.085491 8.14257,-7.760277 13.6033,-9.510166 7.34586,-2.353983 15.83013,-1.425527 21.89692,2.39623 2.56647,1.616732 6.736,5.302662 7.37691,6.521294 0.21839,0.415246 0.71466,1.22896 1.10282,1.808267 0.68146,1.017004 1.43411,2.541908 2.0941,4.242735 0.56771,1.462996 1.02007,4.691764 0.91314,6.517634 -0.10353,1.76792 -0.36601,2.15091 -1.02736,1.49904 -0.68045,-0.67072 -0.79157,-0.0286 -0.12699,0.73388 1.54402,1.77147 1.79996,2.11169 2.74037,3.64278 1.6886,2.74923 3.4669,6.57506 4.43189,9.53479 0.51326,1.57425 0.93564,3.07242 0.93862,3.32926 0.003,0.25685 0.17993,1.14857 0.39324,1.9816 1.35786,5.3028 1.51568,12.98157 0.44985,21.8876 -0.19317,1.6141 -0.61644,3.44413 -1.4712,6.36077 -0.69705,2.37852 -1.0823,3.37032 -1.80364,4.64333 -0.12419,0.21918 -0.30308,0.57767 -0.39751,0.79664 -0.0944,0.21896 -0.50598,0.83439 -0.91452,1.36761 -0.40856,0.53322 -0.74207,1.07462 -0.74114,1.2031 0.004,0.49675 -3.62086,3.77887 -5.06422,4.58589 -2.4818,1.38767 -5.22568,2.15397 -5.68217,1.5869 z m -183.632729,0.60951 c -1.25254,-0.2868 -4.226289,-1.81161 -5.372738,-2.7549 -5.592042,-4.60111 -8.901302,-13.0223 -9.274315,-23.6007 -0.42117,-11.94418 1.407257,-20.91009 5.981515,-29.33099 1.300831,-2.39474 4.018956,-5.95384 6.037798,-7.90586 0.654048,-0.6324 1.953734,-2.00546 2.8882,-3.05126 0.934449,-1.0458 1.827119,-1.902367 1.983699,-1.903495 0.15658,-0.0011 0.90567,-0.559913 1.66463,-1.241742 0.75897,-0.681839 2.35283,-1.745186 3.54193,-2.362993 1.1891,-0.617818 2.39916,-1.256437 2.68904,-1.419151 0.85571,-0.480311 3.57652,-1.705435 4.04838,-1.82289 0.23966,-0.05963 1.45554,-0.472024 2.70196,-0.91637 2.19427,-0.782258 4.38052,-1.27 9.35487,-2.087039 3.96286,-0.650893 3.98774,-0.645622 6.31992,1.339078 1.12914,0.960896 2.011,1.877303 1.95968,2.036447 -0.0534,0.165549 -1.21561,0.376513 -2.71652,0.493085 -3.08716,0.23976 -8.08908,1.151999 -10.15217,1.851529 -0.5081,0.172277 -1.51774,0.508084 -2.24364,0.746233 -0.72591,0.238149 -1.4322,0.536238 -1.56953,0.662421 -0.13735,0.126193 -0.49375,0.235915 -0.79202,0.243845 -0.29827,0.0082 -1.19459,0.371551 -1.99183,0.808059 -0.79724,0.436518 -1.59835,0.794763 -1.78024,0.796114 -0.18191,0.0013 -0.33001,0.101181 -0.32914,0.221788 8.7e-4,0.120647 -0.59171,0.502468 -1.31684,0.848494 -0.72512,0.346026 -1.31776,0.719828 -1.31696,0.830665 7.9e-4,0.110837 -0.26584,0.286222 -0.59252,0.389742 -1.18475,0.37544 -6.52712,5.34727 -8.57855,7.98355 -1.423601,1.82947 -3.797603,5.8428 -4.951264,8.37029 -1.47588,3.23342 -2.613809,8.35943 -3.141201,14.15011 -0.317629,3.48756 -0.07208,12.3885 0.383862,13.91459 0.151551,0.50728 0.278076,1.2719 0.281156,1.69916 0.0058,0.79778 0.708879,3.13531 1.712565,5.69338 1.32952,3.38849 4.093964,6.76121 6.233302,7.60486 0.8039,0.31703 0.84513,0.4049 0.94052,2.00508 0.0548,0.92044 0.0679,2.63636 0.0285,3.81317 l -0.0709,2.13966 -0.83992,-0.0211 c -0.46196,-0.0116 -1.236696,-0.11188 -1.721649,-0.22292 z m 57.963649,-46.15204 c -2.85817,-0.84252 -3.78668,-1.33689 -5.58623,-2.9743 -1.77092,-1.61135 -2.78338,-3.63367 -2.99786,-5.98799 -0.20775,-2.28041 0.19344,-3.54453 2.19098,-6.90379 1.38267,-2.3252 1.49707,-2.64167 1.48647,-4.11186 -0.01,-1.378218 -0.13286,-1.764972 -0.91258,-2.87107 -0.4956,-0.703066 -1.4335,-1.64883 -2.08422,-2.101701 -1.48623,-1.034333 -4.33828,-2.169864 -5.99227,-2.385777 -1.05469,-0.137681 -1.38174,-0.324298 -1.97419,-1.126448 -0.39053,-0.528779 -1.24247,-1.648907 -1.89319,-2.489158 -0.65071,-0.840251 -1.12446,-1.587236 -1.05277,-1.659974 0.15498,-0.157232 4.26781,0.301063 6.14998,0.685286 2.11604,0.431968 4.85303,1.452175 7.42848,2.768944 2.57659,1.317371 5.96263,4.29889 7.50596,6.609246 2.73794,4.098722 2.81108,8.518732 0.1964,11.869362 -1.16905,1.49812 -2.12013,3.47461 -2.11242,4.39001 0.009,1.15468 0.92459,2.49768 2.00192,2.93872 2.16374,0.8858 5.28743,0.15928 5.76287,-1.34036 0.33262,-1.04918 -0.17041,-1.86173 -1.74135,-2.8128 -1.48782,-0.90074 -2.34182,-2.1216 -2.35217,-3.36261 -0.008,-1.01795 0.60346,-2.33853 1.39915,-3.01932 0.54681,-0.46784 2.45531,-1.17654 2.89052,-1.07335 0.42992,0.10193 23.62912,-0.17233 25.57635,-0.30199 3.22509,-0.21532 3.97757,-0.17 4.29741,0.25883 0.13086,0.17545 0.19712,0.17497 0.19879,-0.001 0.002,-0.16461 1.27722,-0.25762 3.3758,-0.24613 1.85531,0.0102 7.15063,0.002 11.76737,-0.0191 9.24208,-0.0414 9.89095,0.0495 11.18709,1.56759 1.53745,1.80063 0.89881,4.51623 -1.31098,5.57446 -1.88289,0.90169 -2.41136,2.1679 -1.48543,3.55907 1.23037,1.84858 4.49683,1.83005 6.49212,-0.0368 1.76078,-1.64746 1.57374,-3.41177 -0.6748,-6.3652 -2.97728,-3.91062 -2.90173,-8.62553 0.20331,-12.687953 1.50292,-1.966325 3.45961,-3.858959 4.71212,-4.557846 0.52843,-0.294857 1.01978,-0.610217 1.09188,-0.700789 0.53877,-0.676761 4.67894,-2.321868 7.65121,-3.040242 3.66356,-0.885451 7.39907,-1.31048 7.40245,-0.842262 6.5e-4,0.0899 -0.48857,0.658969 -1.08717,1.26464 -0.59859,0.60568 -1.38127,1.549427 -1.73927,2.097222 -0.55599,0.85073 -0.92506,1.078506 -2.53057,1.561792 -1.0338,0.31119 -2.76068,1.008676 -3.83749,1.549972 -1.65911,0.833991 -2.195,1.286516 -3.51196,2.965613 l -1.55411,1.981434 0.11516,1.623969 c 0.0917,1.29428 0.27584,1.833 0.90656,2.65356 2.91578,3.79335 3.40661,8.21429 1.25832,11.3338 -1.01069,1.46761 -2.74278,3.08955 -4.48403,4.19888 -1.23185,0.78479 -3.50166,1.31992 -6.3599,1.49941 -2.62737,0.16498 -2.96372,0.12739 -4.97242,-0.55566 -1.80269,-0.61301 -2.3678,-0.95497 -3.4612,-2.09452 -1.39454,-1.45337 -1.81255,-2.59505 -1.51714,-4.14358 0.20909,-1.09611 0.83617,-1.84763 1.92238,-2.30388 0.88057,-0.36987 1.06093,-0.66811 0.58067,-0.96017 -0.51041,-0.31039 -46.74529,0.1489 -47.3354,0.47021 -0.75179,0.40934 -0.67468,0.73488 0.21894,0.9244 0.41676,0.0884 1.10449,0.51777 1.52828,0.95416 0.6949,0.71556 0.77172,0.96943 0.7827,2.5865 0.0114,1.6858 -0.0478,1.86731 -0.98997,3.03417 -1.61847,2.00444 -3.94709,2.83851 -7.96291,2.85219 -1.81358,0.006 -2.95016,-0.15959 -4.76764,-0.69534 z"
       id="path847"
       sodipodi:nodetypes="cssssssssssssssssssssssscssssssssssssssssssssssssssssssssssscssssssssssssssssssssssssssssssssssssssccssssssssscsssscssssssssssssssscssssssscsssssssssssssssssssssssssssscsssssssssssssssscsscccsssssssssssssscssscscsssssssssssscssccccssssssssssssssssssssssssssscssssssssscsssssssssssssssssssssssssccssssssssssscssssssccssscsssssssssssssssssssssssssssssssssscssssssssssscscssssscssscssccsscsssscsssssscsssscssssssscscssssccsscssssssssssssssssssssssssssssssssssscssssssscsssscssssssssssssssssssssssssssscsssssssssssssscssssssssssscsssssssssscsssssssssssssssssscssssssssssssssccsccssssssssssssssscssscsscsccssssssssssssssssccsssssssssssscccss" />
  </g>
</svg>
