<?xml version="1.0" encoding="UTF-8" standalone="no"?>
<svg
   xmlns:dc="http://purl.org/dc/elements/1.1/"
   xmlns:cc="http://creativecommons.org/ns#"
   xmlns:rdf="http://www.w3.org/1999/02/22-rdf-syntax-ns#"
   xmlns:svg="http://www.w3.org/2000/svg"
   xmlns="http://www.w3.org/2000/svg"
   xmlns:sodipodi="http://sodipodi.sourceforge.net/DTD/sodipodi-0.dtd"
   xmlns:inkscape="http://www.inkscape.org/namespaces/inkscape"
   width="175.94589mm"
   height="254.91446mm"
   viewBox="0 0 175.94589 254.91446"
   version="1.1"
   id="svg1161"
   inkscape:version="1.0.2 (e86c870879, 2021-01-15, custom)"
   sodipodi:docname="German Art Nouveau Frame, 1901.svg">
  <defs
     id="defs1155" />
  <sodipodi:namedview
     id="base"
     pagecolor="#ffffff"
     bordercolor="#666666"
     borderopacity="1.0"
     inkscape:pageopacity="0.0"
     inkscape:pageshadow="2"
     inkscape:zoom="0.98994949"
     inkscape:cx="193.30913"
     inkscape:cy="353.16152"
     inkscape:document-units="mm"
     inkscape:current-layer="layer1"
     inkscape:document-rotation="0"
     showgrid="false"
     inkscape:window-width="1920"
     inkscape:window-height="1057"
     inkscape:window-x="-8"
     inkscape:window-y="-8"
     inkscape:window-maximized="1" />
  <metadata
     id="metadata1158">
    <rdf:RDF>
      <cc:Work
         rdf:about="">
        <dc:format>image/svg+xml</dc:format>
        <dc:type
           rdf:resource="http://purl.org/dc/dcmitype/StillImage" />
        <dc:title></dc:title>
      </cc:Work>
    </rdf:RDF>
  </metadata>
  <g
     inkscape:label="Layer 1"
     inkscape:groupmode="layer"
     id="layer1"
     transform="translate(-71.586073,-117.64757)">
    <path
       style="fill:#b87333;stroke-width:0.264583"
       d="m 235.14496,372.48891 c -0.0789,-0.0789 -0.81573,-0.15604 -1.63743,-0.17144 -0.8217,-0.0154 -1.53629,-0.0965 -1.58799,-0.1801 -0.0517,-0.0837 -0.57593,-0.14291 -1.16497,-0.13166 -0.58904,0.0112 -1.01617,-0.0683 -0.94917,-0.17665 0.067,-0.10839 -0.29588,-0.16394 -0.80638,-0.12344 -0.51051,0.0405 -0.92819,-0.0251 -0.92819,-0.14578 0,-0.12068 -0.1786,-0.15089 -0.39688,-0.0671 -0.21828,0.0838 -0.60523,0.07 -0.85989,-0.0307 -0.25466,-0.10063 -1.05834,-0.21672 -1.78594,-0.258 -1.46584,-0.0832 -7.55417,-0.91572 -7.79789,-1.06635 -0.15002,-0.0927 -3.5529,-0.58826 -5.69586,-0.82946 -1.62659,-0.18308 -4.83884,-0.59809 -6.74687,-0.87167 -1.93245,-0.27708 -3.85203,-0.5307 -5.42396,-0.71663 -0.58208,-0.0688 -1.35599,-0.17793 -1.71979,-0.2424 -0.3638,-0.0645 -1.4949,-0.18164 -2.51354,-0.26037 -1.01865,-0.0787 -2.20927,-0.19632 -2.64584,-0.26129 -0.43656,-0.065 -1.80578,-0.18391 -3.0427,-0.2643 -1.23693,-0.0804 -2.66568,-0.20141 -3.175,-0.26893 -3.19064,-0.423 -14.07508,-0.78171 -23.54792,-0.77607 -7.32979,0.004 -20.53121,0.30297 -22.99119,0.52004 -0.67,0.0591 -2.766,0.17268 -4.65777,0.25237 -1.89177,0.0797 -3.67771,0.18881 -3.96875,0.2425 -0.92397,0.17043 -3.36903,0.42038 -5.55625,0.56798 -1.16416,0.0786 -2.41432,0.19596 -2.77812,0.26089 -0.3638,0.0649 -1.37584,0.18235 -2.24896,0.26095 -3.403,0.30634 -11.49669,1.26059 -17.85938,2.10564 -12.140975,1.61247 -21.252862,2.43269 -23.869811,2.14867 -1.586462,-0.17218 -1.957246,-0.33194 -3.456261,-1.48916 -1.679497,-1.29656 -2.43974,-2.49277 -3.337487,-5.25141 -0.53994,-1.65915 -0.310011,-4.88155 0.483315,-6.77354 1.743748,-4.15862 2.553108,-5.94035 2.963169,-6.52313 0.27179,-0.38627 0.494163,-0.76853 0.494163,-0.84948 0,-0.081 0.7541,-1.49132 1.675779,-3.13416 0.921678,-1.64284 2.074605,-3.70135 2.562061,-4.57447 0.487455,-0.87313 1.207285,-2.06435 1.599623,-2.64716 0.392338,-0.58281 0.950533,-1.47578 1.240434,-1.98437 0.289901,-0.5086 1.151045,-1.99629 1.913654,-3.30597 0.762608,-1.30969 2.044341,-3.66118 2.848295,-5.22552 1.291522,-2.51307 1.542244,-2.8447 2.153131,-2.84789 0.380269,-0.002 0.958982,-0.0753 1.286029,-0.16297 0.584974,-0.15677 0.58827,-0.14414 0.202948,0.77807 -0.215426,0.51559 -0.747811,1.54142 -1.183079,2.27964 -0.435267,0.73821 -0.726845,1.34221 -0.647952,1.34221 0.07889,0 -0.08285,0.32742 -0.359422,0.7276 -0.276577,0.40018 -1.141058,1.8587 -1.92107,3.24115 -0.780013,1.38245 -1.514331,2.55323 -1.631818,2.60173 -0.117487,0.0485 -0.213613,0.20099 -0.213613,0.33885 0,0.13786 -0.490057,1.1102 -1.089016,2.16076 -2.92849,5.13652 -3.599969,6.48668 -4.897545,9.84762 -0.962632,2.49337 -1.021591,2.81353 -1.023195,5.55625 -0.0016,2.72309 0.04804,3.00018 0.77107,4.3052 1.516806,2.73771 4.134358,4.82739 7.826186,6.24788 2.237013,0.86073 6.796339,1.27637 10.451041,0.95275 1.455209,-0.12886 4.074581,-0.36101 5.820831,-0.51589 2.78878,-0.24735 5.47184,-0.54057 8.59896,-0.93975 1.88374,-0.24046 5.44438,-0.7066 6.08542,-0.79668 0.3638,-0.0511 1.43536,-0.16891 2.38125,-0.26176 2.69384,-0.26444 3.4764,-0.34587 4.89479,-0.50932 4.15536,-0.47883 13.16869,-0.92179 22.31264,-1.09655 17.71233,-0.33852 23.10016,-0.29705 34.96965,0.26909 7.29158,0.34779 8.65189,0.44001 9.92187,0.67263 0.72761,0.13328 2.33495,0.32278 3.57188,0.42111 1.23693,0.0983 2.48708,0.20946 2.77812,0.24696 0.29105,0.0375 1.24355,0.14817 2.11667,0.24595 0.87313,0.0978 1.88516,0.23027 2.24896,0.29444 0.3638,0.0642 1.37583,0.18293 2.24896,0.26392 0.87312,0.081 2.65906,0.31484 3.96875,0.51968 2.56588,0.4013 5.95771,0.80197 9.12812,1.07827 1.0914,0.0951 2.2225,0.22372 2.51354,0.28579 0.29104,0.0621 2.09674,0.10824 4.01265,0.10258 6.04768,-0.0178 9.26582,-1.10155 12.3783,-4.16845 0.96725,-0.95309 2.05194,-2.31171 2.41044,-3.01916 0.81164,-1.6017 1.09842,-4.50202 0.67917,-6.86871 -0.3612,-2.03898 -2.1651,-7.08702 -2.90267,-8.12285 -0.29012,-0.40743 -0.9119,-1.45039 -1.38175,-2.3177 -0.90728,-1.67481 -2.7356,-4.83608 -5.42613,-9.38214 -2.52204,-4.26135 -5.766,-10.83949 -7.50244,-15.21354 -0.46216,-1.16417 -0.94546,-2.35479 -1.074,-2.64584 -0.42737,-0.96764 -1.56659,-5.26675 -1.86637,-7.04316 -0.2741,-1.62426 -0.25078,-1.84531 0.32091,-3.04271 0.6497,-1.3608 1.75774,-2.13569 3.3403,-2.33597 0.48537,-0.0614 2.46733,0.46235 5.11949,1.35293 5.14566,1.7279 5.91705,1.75113 7.76853,0.23398 1.72024,-1.40961 2.3753,-2.94387 2.3778,-5.56923 0.003,-2.69126 -0.18197,-4.14787 -2.11173,-16.66875 -0.68741,-4.4601 -1.58104,-11.95872 -1.8761,-15.74271 -0.0965,-1.23693 -0.21854,-2.32379 -0.27132,-2.41526 -0.0528,-0.0915 -0.16241,-1.57975 -0.24362,-3.30729 -0.0812,-1.72755 -0.26297,-5.16505 -0.4039,-7.63891 -0.26764,-4.69784 -0.37142,-23.87246 -0.139,-25.6805 0.0737,-0.57333 0.20524,-2.41163 0.29232,-4.08512 0.20673,-3.97293 0.28278,-4.80042 0.64228,-6.98831 0.16529,-1.00591 0.4129,-2.73232 0.55026,-3.83646 0.40396,-3.24717 1.93778,-11.42353 2.38677,-12.72315 0.12569,-0.3638 0.30645,-1.13771 0.4017,-1.71979 0.0952,-0.58208 0.44466,-2.1299 0.77648,-3.43958 0.33183,-1.30969 1.03574,-4.34578 1.56425,-6.74688 0.52851,-2.40109 1.31249,-5.79437 1.74219,-7.54062 1.53024,-6.21869 1.9138,-9.10109 1.98926,-14.94896 0.0385,-2.98318 -0.0531,-6.32473 -0.20353,-7.42568 -0.27272,-1.99596 -0.2712,-2.00492 0.52854,-3.10893 l 0.80206,-1.10721 0.18707,0.72768 c 0.10289,0.40023 0.23894,1.20393 0.30232,1.78602 0.0634,0.58208 0.16347,1.19801 0.22241,1.36874 0.38845,1.1253 0.83183,15.05161 0.60083,18.87188 -0.23666,3.914 -1.37979,15.63419 -1.90966,19.57917 -0.20522,1.52796 -0.44949,3.55203 -0.5428,4.49791 -0.0933,0.94589 -0.45069,3.74386 -0.79418,6.21771 -0.8261,5.94976 -1.16265,9.0024 -1.5752,14.2875 -0.0795,1.01865 -0.2026,2.32833 -0.27353,2.91042 -0.0709,0.58208 -0.30352,2.96333 -0.51688,5.29166 -0.21336,2.32834 -0.62894,6.61459 -0.92352,9.525 -0.29458,2.91042 -0.61018,6.18464 -0.70133,7.27605 -0.0911,1.0914 -0.31432,3.23453 -0.49594,4.7625 -0.39766,3.34563 -0.55626,9.34373 -0.46872,17.72708 0.079,7.56347 0.19793,9.4911 0.85715,13.89062 0.15264,1.01865 0.40376,2.74505 0.55806,3.83646 0.15429,1.09141 0.68836,4.30609 1.18681,7.14375 1.21068,6.89232 1.20983,10.59356 -0.003,12.92545 -0.62198,1.19591 -2.28341,2.64845 -3.55982,3.11226 -1.73928,0.63199 -4.33034,1.76222 -4.76904,2.08027 -2.35041,1.704 -3.58454,4.02189 -4.05703,7.61976 -0.49824,3.7939 0.48134,6.56478 5.67991,16.06642 0.35828,0.65485 1.28465,2.38125 2.05861,3.83646 0.77396,1.45521 1.62613,2.96187 1.89373,3.34814 0.26759,0.38626 0.48653,0.76126 0.48653,0.83333 0,0.0721 0.46694,0.88712 1.03765,1.81124 0.57071,0.92411 1.47904,2.51365 2.01851,3.53229 0.53947,1.01865 1.2107,2.17807 1.49163,2.57649 0.7983,1.1322 2.3531,4.6451 2.89727,6.54606 0.84348,2.94656 0.66252,7.85769 -0.36232,9.83308 -0.47041,0.90671 -1.70033,2.34333 -2.00618,2.34333 -0.1371,0 -0.3964,0.17728 -0.57623,0.39396 -0.17983,0.21668 -0.41988,0.33653 -0.53345,0.26634 -0.11358,-0.0702 -0.63237,0.0503 -1.15288,0.2678 -0.52051,0.21749 -2.1675,0.46448 -3.65996,0.54887 -1.49247,0.0844 -2.78905,0.20008 -2.88129,0.25708 -0.0922,0.057 -0.23224,0.0391 -0.31112,-0.0398 z M 215.9,364.94588 c -3.84782,-0.59154 -4.59329,-0.69175 -7.67292,-1.0314 -2.11212,-0.23295 -5.111,-0.6672 -8.20208,-1.18771 -2.76301,-0.46527 -15.86509,-1.46206 -21.69583,-1.6506 -10.7376,-0.3472 -38.98627,-0.13356 -42.33334,0.32016 -0.50932,0.069 -1.52135,0.17728 -2.24896,0.24054 -5.50297,0.47838 -7.97901,0.68019 -9.98435,0.81377 -1.27128,0.0847 -3.17628,0.26252 -4.23333,0.39518 -1.05704,0.13266 -2.75534,0.31194 -3.77398,0.39841 -1.01865,0.0865 -2.2688,0.21404 -2.77813,0.28351 -0.50932,0.0695 -1.52135,0.1893 -2.24895,0.26628 -0.72761,0.077 -2.27542,0.25333 -3.43959,0.39187 -1.16416,0.13854 -2.89057,0.32118 -3.83646,0.40586 -0.94588,0.0847 -2.13651,0.21291 -2.64583,0.28495 -0.50932,0.072 -2.771509,0.18047 -5.027082,0.24094 -5.75687,0.15433 -7.815315,-0.47522 -10.480892,-3.20547 -3.351911,-3.43324 -2.922396,-7.74311 1.378695,-13.83419 0.858865,-1.2163 1.978291,-2.82858 2.487614,-3.58285 0.509322,-0.75427 1.356641,-1.96177 1.88293,-2.68334 2.341492,-3.2103 4.992498,-9.28342 4.994948,-11.44279 0.0019,-1.69322 -0.811652,-3.06461 -2.223543,-3.74809 -1.279979,-0.61963 -1.324766,-0.61748 -7.049153,0.33833 -3.204241,0.53503 -6.564364,0.52478 -7.658918,-0.0234 -0.509087,-0.25493 -0.931416,-0.64109 -0.938511,-0.85812 -0.0071,-0.21702 -0.106161,-0.93384 -0.220147,-1.59292 -0.23969,-1.38593 0.247626,-4.31447 1.309945,-7.87216 0.378809,-1.26862 0.787036,-2.70364 0.907171,-3.18894 0.181667,-0.73384 0.761771,-2.37147 0.930526,-2.62685 0.0253,-0.0383 0.464893,0.1054 0.97687,0.31932 l 0.930867,0.38894 -0.377958,1.40047 c -0.745743,2.76325 -0.02577,5.71104 1.921215,7.86613 1.709394,1.8921 2.423636,2.13513 6.632121,2.25667 1.619422,0.0468 3.286297,0.15922 3.704167,0.24988 0.417869,0.0907 0.997886,0.21041 1.288928,0.26611 1.394558,0.26687 4.061437,1.32824 4.860087,1.93422 1.92769,1.46265 2.37986,4.42549 1.08394,7.10251 -0.51406,1.06191 -3.577612,4.91441 -4.719036,5.93432 -0.244287,0.21828 -1.548616,1.6735 -2.898513,3.23383 -1.349893,1.56032 -2.575381,2.91174 -2.723305,3.00316 -0.39866,0.2464 -2.989136,3.80613 -3.547986,4.87552 -0.727523,1.39216 -0.673754,4.03982 0.112837,5.55625 0.817152,1.57536 1.231077,2.02091 2.804893,3.01922 2.070107,1.31312 4.443976,2.22685 6.266463,2.41203 0.919069,0.0934 2.028224,0.2758 2.464786,0.40536 1.128311,0.33484 7.932691,0.50053 9.609581,0.234 0.77413,-0.12304 2.45482,-0.24491 3.73487,-0.27081 1.28005,-0.0259 2.96839,-0.14272 3.75187,-0.25962 1.62191,-0.24198 6.73118,-0.76449 9.09743,-0.93036 0.87312,-0.0612 2.54,-0.23099 3.70417,-0.37729 4.67263,-0.58721 9.65133,-0.72728 32.01458,-0.90068 10.43316,-0.0809 14.93729,-0.0183 17.59479,0.24433 1.96453,0.19419 5.59594,0.42478 8.06979,0.51242 2.47385,0.0876 5.86714,0.33813 7.54063,0.55664 5.25123,0.68564 5.87579,0.75813 9.12812,1.05945 1.01865,0.0944 2.43143,0.26258 3.13951,0.37379 0.70809,0.1112 3.14887,0.22386 5.42396,0.25034 4.14923,0.0483 6.7401,-0.24668 10.61882,-1.209 6.04791,-1.50051 9.33938,-5.70124 7.81572,-9.9748 -0.44276,-1.24184 -3.06051,-5.14362 -4.05212,-6.0397 -1.12585,-1.0174 -6.47894,-6.78532 -7.97882,-8.59714 -2.29625,-2.77379 -3.28638,-5.71331 -2.68131,-7.96034 0.23848,-0.88565 0.59096,-1.33335 1.68091,-2.13495 1.51942,-1.11745 2.74937,-1.54604 4.95794,-1.72762 l 1.46212,-0.12022 0.73096,1.36383 c 0.67476,1.25897 0.69576,1.38418 0.27323,1.62842 -1.61658,0.93443 -2.31646,2.60125 -2.0865,4.96915 0.35372,3.64237 2.30496,7.14304 8.94818,16.0538 3.14817,4.22273 4.09147,7.96275 2.9725,11.78538 -0.78544,2.68322 -3.92423,4.98419 -7.74362,5.67665 -2.29726,0.4165 -8.07357,0.27804 -11.70752,-0.28062 z m 18.9177,-37.71486 c -0.87312,-0.20224 -1.82562,-0.42287 -2.11666,-0.49029 -0.29105,-0.0674 -0.84516,-0.19107 -1.23137,-0.27478 -0.55869,-0.12109 -0.78851,-0.41606 -1.12448,-1.44324 -0.55409,-1.69403 -0.53469,-2.11765 0.097,-2.11765 1.75003,0 4.39669,-1.75029 5.61722,-3.71478 0.67223,-1.08198 1.07016,-3.56325 0.89044,-5.55219 l -0.16384,-1.81306 0.94356,-0.44775 c 0.51895,-0.24626 0.98888,-0.40239 1.04428,-0.34696 0.13682,0.1369 1.74153,5.49177 1.89348,6.31849 0.0669,0.3638 0.31544,1.3163 0.55239,2.11667 0.23695,0.80036 0.44125,2.42428 0.454,3.6087 0.0258,2.39915 -0.17458,2.79226 -2.02207,3.96624 -1.12965,0.71782 -2.34997,0.76594 -4.83391,0.1906 z M 90.401503,320.56166 c -0.290303,-3.22936 -1.72454,-6.19891 -3.888614,-8.05128 -0.589252,-0.50438 -2.287507,-1.41715 -3.773899,-2.02839 -3.055658,-1.25655 -4.112868,-2.11999 -4.998154,-4.0821 -0.501324,-1.11111 -0.606779,-1.78166 -0.587462,-3.73546 0.01295,-1.30968 0.224944,-3.27421 0.471099,-4.36562 0.371057,-1.6452 1.222656,-6.0468 1.868444,-9.65729 1.000444,-5.59332 1.652998,-21.34025 1.206079,-29.10417 -0.402027,-6.98403 -2.396637,-26.61854 -3.306022,-32.54375 -0.067,-0.43656 -0.245711,-2.40109 -0.39713,-4.36562 -0.15142,-1.96453 -0.330924,-3.9886 -0.398898,-4.49792 -0.06797,-0.50932 -0.185272,-1.58088 -0.26066,-2.38125 -0.294547,-3.12706 -1.198237,-11.27794 -1.316088,-11.87051 -0.06844,-0.34415 -0.202636,-1.29665 -0.298205,-2.11667 -0.09557,-0.82002 -0.270762,-1.74659 -0.389318,-2.05905 -0.118556,-0.31246 -0.162559,-0.6211 -0.09779,-0.68588 0.06477,-0.0648 -0.05508,-1.05928 -0.266349,-2.21001 -0.211265,-1.15074 -0.454242,-3.10428 -0.53995,-4.34121 -0.08571,-1.23693 -0.265788,-2.96333 -0.400178,-3.83646 -0.134389,-0.87312 -0.323598,-2.48047 -0.420463,-3.57187 -0.09686,-1.09141 -0.21375,-2.05017 -0.259744,-2.13059 -0.210701,-0.36838 -0.484076,-7.82521 -0.484486,-13.21525 -3.17e-4,-4.30372 0.136902,-6.99774 0.495294,-9.72343 0.27266,-2.07368 0.563816,-3.76768 0.647013,-3.76445 0.0832,0.003 0.541353,0.61711 1.018125,1.36419 l 0.86686,1.35832 -0.291776,2.13101 c -0.482018,3.52046 -0.3341,11.54461 0.266469,14.4552 0.13512,0.65484 0.322406,1.78593 0.41619,2.51354 0.183025,1.41995 1.423676,6.5764 2.769173,11.50937 1.77035,6.4906 3.609059,14.04056 3.819256,15.68232 0.06695,0.52288 0.300488,1.82194 0.518982,2.88679 1.064927,5.19002 1.574967,8.61717 2.138818,14.37152 0.228146,2.32833 0.471227,4.76911 0.540179,5.42395 0.167727,1.59292 0.160208,18.72108 -0.0098,22.22501 -0.489025,10.08153 -0.850705,15.58607 -1.582001,24.07708 -0.385439,4.4753 -1.527638,12.69168 -2.94248,21.16666 -0.08503,0.50933 -0.214453,2.18473 -0.28761,3.72313 -0.118148,2.4845 -0.06705,2.95041 0.457218,4.16911 0.324627,0.75462 0.98937,1.72248 1.477206,2.1508 1.636711,1.43706 3.078562,1.36564 7.909746,-0.39177 2.671665,-0.97186 4.556487,-1.38925 5.591548,-1.23823 0.830342,0.12114 2.604791,1.74189 3.138538,2.86667 0.946398,1.99439 0.02614,5.53013 -3.365283,12.92967 -0.600266,1.30968 -1.129451,2.43013 -1.175965,2.48988 -0.04652,0.0597 -0.902536,0.13631 -1.902265,0.17015 l -1.817693,0.0615 -0.158003,-1.75765 z m -7.54582,-15.54343 c -0.40442,-0.28326 -0.545788,-0.56912 -0.425253,-0.85989 0.783225,-1.88941 1.93778,-10.30312 2.764636,-20.14703 0.287246,-3.41974 0.693422,-8.18224 0.902613,-10.58333 1.575535,-18.08403 1.807364,-32.86896 0.811067,-51.72604 -0.07688,-1.45521 -0.202467,-3.89599 -0.279073,-5.42396 -0.362278,-7.22595 -0.645433,-11.07382 -1.002705,-13.62604 -0.08148,-0.58209 -0.273464,-2.72521 -0.426624,-4.7625 -0.153161,-2.03729 -0.328704,-4.29948 -0.390096,-5.02709 -0.142692,-1.69114 -0.82896,-6.93391 -1.177538,-8.99583 -0.147606,-0.87312 -0.340569,-2.27831 -0.428805,-3.12264 -0.08824,-0.84433 -0.217834,-1.79683 -0.287993,-2.11667 -0.07016,-0.31984 -0.36207,-1.89121 -0.648691,-3.49194 -1.27602,-7.12634 -4.200996,-13.8737 -8.244547,-19.0186 -0.558277,-0.71034 -1.338562,-1.9605 -1.733966,-2.77813 -0.627407,-1.29738 -0.71664,-1.79391 -0.701041,-3.90094 0.01558,-2.1044 0.113924,-2.60417 0.766091,-3.89316 0.411519,-0.81335 1.072549,-1.7678 1.468954,-2.121 1.093461,-0.97428 2.112706,-1.58806 2.112706,-1.27224 0,1.01141 -0.705119,3.21986 -1.260547,3.94806 -0.917025,1.20228 -1.104528,2.32307 -0.651306,3.89317 0.38991,1.35076 1.586674,3.30312 2.599513,4.24076 0.314385,0.29104 1.984914,1.71662 3.712287,3.16795 4.747404,3.98874 6.416822,5.82446 6.984214,7.67997 0.342705,1.12072 0.625701,11.63872 0.90765,33.73437 0.08449,6.6212 0.268245,13.82448 0.408345,16.00729 0.440142,6.85759 0.573002,13.08705 0.564295,26.45833 -0.0078,11.99738 -0.06714,14.85698 -0.419885,20.24063 -0.07151,1.0914 -0.311594,5.19906 -0.533517,9.12812 -0.221923,3.92907 -0.524248,8.69156 -0.671834,10.58334 -0.147586,1.89177 -0.332939,4.33255 -0.411896,5.42395 -0.435449,6.01911 -1.776303,15.50993 -2.532501,17.92552 -0.301555,0.96329 -0.834405,1.09408 -1.774553,0.43557 z m 152.251347,-0.15132 c -0.61809,-2.98122 -1.00024,-5.11994 -1.48092,-8.28789 -0.30912,-2.03729 -0.72871,-4.77573 -0.93242,-6.08542 -0.70971,-4.5629 -0.73266,-4.76837 -1.06365,-9.525 -0.10126,-1.45521 -0.21654,-2.82442 -0.25617,-3.04271 -0.0396,-0.21828 -0.14614,-1.70656 -0.23669,-3.30729 -0.18136,-3.20617 -0.38824,-6.55571 -0.55562,-8.99583 -0.0599,-0.87313 -0.18566,-3.43297 -0.27949,-5.68854 -0.0938,-2.25557 -0.22472,-4.19061 -0.29087,-4.30008 -0.21013,-0.34778 -0.27299,-22.66921 -0.0743,-26.39159 0.10485,-1.96453 0.27776,-6.13172 0.38423,-9.26042 0.10648,-3.12869 0.22738,-6.40291 0.26867,-7.27604 0.20459,-4.32624 0.42393,-17.47198 0.52977,-31.75 0.0647,-8.73124 0.22463,-16.29171 0.35535,-16.80104 0.37686,-1.46832 0.79371,-2.38125 1.0873,-2.38125 0.14912,0 0.27113,-0.12982 0.27113,-0.2885 0,-0.2854 0.3876,-0.67649 5.29166,-5.33936 5.40701,-5.14106 6.15481,-5.91599 6.66011,-6.90171 0.46132,-0.89991 0.48672,-1.17134 0.21548,-2.302 -0.16912,-0.70499 -0.47525,-1.42103 -0.68028,-1.59119 -0.20504,-0.17016 -0.61467,-1.09879 -0.9103,-2.06362 -0.29563,-0.96483 -0.60493,-1.97282 -0.68734,-2.23997 -0.13158,-0.42658 -0.0795,-0.44809 0.42779,-0.1766 0.94032,0.50325 2.67945,2.17748 3.29744,3.1744 0.77341,1.24763 1.23581,3.54534 1.0386,5.16085 -0.16096,1.31858 -1.03545,3.49305 -1.8089,4.49791 -1.37392,1.78502 -1.91557,2.49873 -2.32676,3.06592 -0.25448,0.35104 -0.95395,1.29309 -1.55437,2.09346 -1.63035,2.17326 -2.99737,5.32231 -3.7903,8.73125 -0.38926,1.67349 -0.82262,3.45942 -0.96304,3.96875 -0.25814,0.93639 -1.22427,7.07793 -1.45473,9.24755 -0.0688,0.64778 -0.30185,2.1913 -0.51787,3.43006 -0.64096,3.67554 -0.96858,6.81568 -1.45159,13.91301 -0.15845,2.32833 -0.33107,4.53099 -0.38359,4.89479 -0.0525,0.3638 -0.16995,2.4474 -0.26095,4.63021 -0.091,2.18281 -0.21315,4.50453 -0.27142,5.15937 -0.12817,1.44023 -0.39714,6.91218 -0.65677,13.36146 -0.25314,6.28811 -0.24949,22.45451 0.006,27.78125 0.11179,2.32834 0.28593,6.01756 0.38697,8.19829 0.10104,2.18073 0.21782,4.14526 0.25951,4.36563 0.0417,0.22036 0.14939,2.00801 0.23934,3.97254 0.17357,3.791 0.25638,4.95509 0.6964,9.78958 0.57104,6.27409 1.51371,13.5946 2.11238,16.40417 0.2136,1.00245 0.94024,5.63779 1.13084,7.21377 0.0332,0.27483 -0.29317,0.69108 -0.79345,1.01186 l -0.84992,0.54495 -0.1275,-0.61498 z M 75.23789,150.78916 l -0.668252,-1.45966 0.646537,-1.78149 c 0.738212,-2.03409 1.531587,-4.6606 1.65142,-5.4671 0.462754,-3.11442 0.586059,-4.52865 0.404883,-4.64372 -0.118931,-0.0755 -0.268432,-0.73265 -0.332223,-1.46025 -0.133385,-1.52138 -0.984539,-3.78975 -2.990967,-7.97106 -1.998901,-4.16562 -2.147908,-4.75621 -1.609206,-6.37809 0.521974,-1.57152 1.227784,-2.2935 2.776239,-2.83982 2.203464,-0.77743 6.583309,-0.31234 12.063889,1.28105 3.775645,1.09771 6.756706,1.83089 9.852845,2.42327 l 0.857012,0.16397 -1.091473,1.26713 c -1.043077,1.21093 -1.175488,1.27891 -2.986177,1.53299 -6.187218,0.86821 -11.095495,6.28217 -14.166952,15.62652 -0.559727,1.70287 -1.27763,3.75097 -1.595341,4.55133 -0.317711,0.80037 -0.616525,1.65072 -0.664032,1.88968 -0.230592,1.15987 -1.258253,4.7249 -1.362005,4.7249 -0.06487,0 -0.418658,-0.65684 -0.786197,-1.45965 z m 166.86146,-0.93922 c -0.16804,-0.64515 -0.58441,-2.00644 -0.92529,-3.02508 -0.34088,-1.01865 -0.88155,-2.80459 -1.2015,-3.96875 -0.31994,-1.16417 -0.66709,-2.23573 -0.77144,-2.38125 -0.10435,-0.14552 -0.3433,-0.80037 -0.53101,-1.45521 -0.41481,-1.44714 -2.16949,-4.9881 -3.27777,-6.61458 -2.12626,-3.12043 -5.56436,-5.96602 -8.32427,-6.8897 -1.68886,-0.56522 -4.93631,-0.68323 -7.16594,-0.26039 -1.61481,0.30625 -6.4534,0.62446 -9.42609,0.61992 -3.24045,-0.005 -6.38846,-0.32314 -9.69493,-0.97993 l -3.00507,-0.59692 2.73714,-0.88092 c 2.57682,-0.82932 2.81702,-0.86179 4.10104,-0.55436 3.16896,0.75873 9.24772,0.60362 15.91598,-0.40613 1.47805,-0.22382 6.81507,-1.82652 10.05417,-3.01926 0.84448,-0.31096 5.6207,-1.26651 8.02315,-1.60514 3.81884,-0.53827 5.93473,0.0802 7.24673,2.11834 1.17983,1.83277 0.96021,2.91844 -1.6363,8.08886 -1.16925,2.32833 -2.30412,4.92375 -2.52194,5.7676 -0.53497,2.07261 -0.49843,4.54316 0.0972,6.5738 0.2713,0.92483 0.94246,3.24975 1.49147,5.16647 l 0.99821,3.48496 -0.93904,0.99533 -0.93904,0.99533 z M 80.074734,142.26079 c 0.473783,-1.90828 0.876263,-2.43397 2.485442,-3.24628 0.875989,-0.4422 1.801534,-1.00889 2.056766,-1.25932 0.255233,-0.25043 0.87685,-0.76761 1.381372,-1.14927 2.185604,-1.6534 5.792954,-5.4287 9.323043,-9.7571 4.130426,-5.06451 6.262093,-7.02719 8.792183,-8.09517 1.12548,-0.47508 4.91434,-0.6552 6.87917,-0.32703 3.64756,0.60923 5.80935,1.06759 7.66352,1.6249 l 2.10728,0.63338 -0.91665,0.28159 c -2.63982,0.81094 -4.36475,0.95067 -6.16217,0.49917 -2.35431,-0.59138 -6.38165,-0.83629 -7.73472,-0.47035 -2.04864,0.55406 -4.29664,2.33864 -6.995802,5.55367 -0.654844,0.77999 -1.312791,1.5535 -1.462106,1.7189 -0.149315,0.1654 -1.300798,1.55088 -2.558849,3.07885 -3.491332,4.2404 -8.639088,8.99584 -9.737991,8.99584 -0.145184,0 -0.263971,0.10192 -0.263971,0.22648 0,0.2322 -4.32346,2.41935 -4.782448,2.41935 -0.145277,0 -0.177101,-0.31262 -0.07407,-0.72761 z m 155.902556,-1.49177 c -4.22851,-2.124 -7.33298,-4.3919 -10.59855,-7.74253 -1.68935,-1.73334 -5.56306,-6.73592 -5.3692,-6.93387 0.051,-0.0521 0.6653,-0.14366 1.36505,-0.20344 1.26854,-0.10839 1.27486,-0.10487 2.14803,1.19455 2.67755,3.98461 6.0359,6.90427 11.51781,10.01327 1.43219,0.81225 2.66533,1.66643 2.74031,1.89817 0.21428,0.66229 0.87367,2.22717 1.15306,2.73646 0.13971,0.25466 0.1637,0.45974 0.0533,0.45573 -0.11037,-0.004 -1.4648,-0.64226 -3.00984,-1.41834 z M 103.45208,125.85323 c -2.82909,-0.10526 -2.89752,-0.16315 -1.64462,-1.39131 l 1.0739,-1.05269 3.52651,-0.009 c 1.93958,-0.005 4.30041,-0.1129 5.2463,-0.24032 4.83657,-0.65152 7.65747,-1.12369 8.73369,-1.46187 1.37918,-0.43337 3.43959,-0.8609 9.52256,-1.9759 4.93595,-0.90475 6.29187,-1.05751 12.96458,-1.46063 7.92602,-0.47884 29.6285,-0.70331 33.00645,-0.34139 5.11473,0.54801 13.64389,1.75184 15.35434,2.16717 0.83224,0.20208 1.973,0.46715 2.53502,0.58904 1.01312,0.21972 0.99891,0.22799 -1.66482,0.96861 l -2.68667,0.747 -2.7008,-0.4092 c -3.44367,-0.52176 -4.57996,-0.66641 -5.80967,-0.73961 -0.5457,-0.0325 -0.99241,-0.12402 -0.9927,-0.20342 -2.6e-4,-0.0794 -0.62536,-0.15817 -1.38906,-0.17505 -0.7637,-0.0169 -2.16246,-0.10918 -3.10834,-0.20511 -0.94589,-0.0959 -4.33917,-0.24294 -7.54063,-0.32669 -6.9431,-0.18163 -5.09116,-0.18334 -12.7,0.0118 -9.80839,0.25154 -12.68247,0.39572 -16.26548,0.81595 -1.82252,0.21376 -3.90899,0.4535 -4.6366,0.53278 -3.49727,0.38102 -6.09065,0.82785 -9.92187,1.70949 -1.38245,0.31813 -3.04933,0.6783 -3.70417,0.80038 -0.65484,0.12208 -2.44078,0.45995 -3.96875,0.75082 -3.45608,0.65793 -9.20524,1.04854 -13.22917,0.89882 z m 26.32605,-0.17487 c -1.45521,-0.18422 -3.53881,-0.54872 -4.63021,-0.81 l -1.98438,-0.47505 2.38125,-0.5233 c 2.48201,-0.54544 2.8403,-0.56143 8.46667,-0.37776 1.89177,0.0618 4.51114,0.0195 5.82083,-0.0939 2.89061,-0.25027 6.09535,-0.45633 10.31875,-0.66346 4.64753,-0.22794 21.98355,-0.26981 23.68021,-0.0572 3.73724,0.46833 6.04916,0.59923 10.58333,0.59923 5.69855,0 6.97763,-0.24433 12.14456,-2.31987 5.28152,-2.12156 8.10416,-2.83445 11.93253,-3.01368 3.10717,-0.14547 3.4345,-0.11193 5.40968,0.55437 2.42954,0.81958 5.82024,3.05664 5.2072,3.43552 -0.45414,0.28068 -3.79445,0.22476 -3.97448,-0.0665 -0.0983,-0.15896 -0.74391,-0.53908 -1.43481,-0.8447 -1.37015,-0.60608 -4.29855,-0.74341 -6.53051,-0.30626 -1.63893,0.32099 -5.88661,1.57934 -7.80521,2.31223 -2.20653,0.84288 -7.25802,2.14034 -9.78958,2.51442 -1.94748,0.28777 -10.05283,0.36861 -11.90625,0.11875 -1.17759,-0.15875 -10.69271,-0.49818 -13.89063,-0.4955 -4.66675,0.004 -21.77304,0.37672 -21.93788,0.47813 -0.4936,0.30364 -9.72656,0.33008 -12.06107,0.0345 z"
       id="path1177"
       sodipodi:nodetypes="ssssssssssssssssssscsssssssssssssssssssssssssssssssssssssssssssssssssssssssssssssssscssssssssssssssssscssssssssssssssssssssssssssssssssssssssssssssssssssssssssssssssssssscsssssssssssssssssssssssssssssssssscssssssssssssssscssssssssssssssssssssssssssssssscscsssssssscsssssssssssccsssssssssssssssssssssssssssssssssscsssssssssssssssssssssssssssssssssssscssssssscccscssssssssscssssssscssssssscscssssssssssccccsssssssscssssssssssssssssssssscsccsssssssscsssssssscsssccsscscsssssssssssssscsss" />
  </g>
</svg>
