<?xml version="1.0" encoding="UTF-8" standalone="no"?>
<svg
   xmlns:dc="http://purl.org/dc/elements/1.1/"
   xmlns:cc="http://creativecommons.org/ns#"
   xmlns:rdf="http://www.w3.org/1999/02/22-rdf-syntax-ns#"
   xmlns:svg="http://www.w3.org/2000/svg"
   xmlns="http://www.w3.org/2000/svg"
   xmlns:sodipodi="http://sodipodi.sourceforge.net/DTD/sodipodi-0.dtd"
   xmlns:inkscape="http://www.inkscape.org/namespaces/inkscape"
   width="377.21143mm"
   height="568.51147mm"
   viewBox="0 0 377.21143 568.51147"
   version="1.1"
   id="svg8"
   inkscape:version="1.0.2 (e86c870879, 2021-01-15, custom)"
   sodipodi:docname="Page frame by Paul Bürck, 1899, 01.svg">
  <defs
     id="defs2" />
  <sodipodi:namedview
     id="base"
     pagecolor="#ffffff"
     bordercolor="#666666"
     borderopacity="1.0"
     inkscape:pageopacity="0.0"
     inkscape:pageshadow="2"
     inkscape:zoom="0.35"
     inkscape:cx="747.43763"
     inkscape:cy="993.80632"
     inkscape:document-units="mm"
     inkscape:current-layer="layer1"
     inkscape:document-rotation="0"
     showgrid="false"
     inkscape:window-width="1920"
     inkscape:window-height="1057"
     inkscape:window-x="-8"
     inkscape:window-y="-8"
     inkscape:window-maximized="1" />
  <metadata
     id="metadata5">
    <rdf:RDF>
      <cc:Work
         rdf:about="">
        <dc:format>image/svg+xml</dc:format>
        <dc:type
           rdf:resource="http://purl.org/dc/dcmitype/StillImage" />
        <dc:title></dc:title>
      </cc:Work>
    </rdf:RDF>
  </metadata>
  <g
     inkscape:label="Layer 1"
     inkscape:groupmode="layer"
     id="layer1"
     transform="translate(57.223087,143.50133)">
    <path
       style="fill:#8f8f8f;stroke-width:0.264583;fill-opacity:1"
       d="m 292.32221,424.65902 c -2.14318,-0.47382 -2.88671,-0.93062 -3.5256,-2.16606 -0.32856,-0.6354 -0.32512,-0.82775 0.0271,-1.50884 0.22201,-0.42934 0.40368,-0.98047 0.40368,-1.22473 0,-0.45186 -0.98357,-0.44464 -6.35,0.0466 -0.65485,0.06 -4.5007,0.12018 -8.54634,0.13388 -8.305,0.0281 -8.11085,0.0514 -17.912,-2.1499 -0.80036,-0.17975 -1.69005,-0.49006 -1.9771,-0.68955 -0.28704,-0.19952 -0.8487,-0.36275 -1.24814,-0.36275 -0.80616,0 -6.43403,-2.82389 -7.88612,-3.95703 -0.50996,-0.39793 -1.52249,-1.0619 -2.2501,-1.47552 -0.7276,-0.4136 -1.7055,-1.05712 -2.17307,-1.43002 -1.90283,-1.51757 -2.46621,-1.8986 -3.47491,-2.35022 -1.50336,-0.67307 -3.3569,-2.19927 -7.44841,-6.13304 -2.32339,-2.2338 -2.71034,-2.93431 -2.85354,-5.16562 -0.1185,-1.84645 -0.085,-1.98593 0.83625,-3.4784 l 0.95967,-1.55482 -0.36269,-1.39824 c -0.44818,-1.72773 -1.26442,-2.60337 -3.51356,-3.76928 l -1.74678,-0.90551 -3.73751,0.0259 c -4.72413,0.0328 -6.99103,0.387 -10.5247,1.64451 -1.80149,0.64109 -2.60554,1.05394 -2.60554,1.33784 0,0.11637 0.97293,1.03492 2.16207,2.04121 2.16429,1.83153 3.13394,2.67835 5.11397,4.46625 0.91761,0.82857 10.45166,8.93905 12.30313,10.46612 2.02435,1.66962 5.18562,3.80182 7.27604,4.90744 4.02778,2.13032 11.9284,6.10732 12.46063,6.27239 0.91237,0.28303 2.87536,0.99502 3.41437,1.23847 1.13755,0.51374 2.4533,0.81153 2.8734,0.65032 0.24236,-0.093 0.58793,-0.0541 0.76798,0.0865 0.18005,0.14057 1.14475,0.4563 2.14374,0.70168 2.40448,0.59052 3.05945,1.08275 3.07012,2.30716 0.008,0.8994 -0.0664,0.98483 -1.24847,1.43666 -1.6038,0.61304 -4.95781,0.73205 -7.20989,0.25583 -2.56863,-0.54319 -3.6013,-0.69289 -5.66616,-0.82143 -1.03095,-0.0642 -2.64837,-0.17203 -3.59426,-0.23968 -0.94589,-0.0677 -2.79135,-0.18458 -4.10104,-0.25985 -1.30969,-0.0752 -3.21469,-0.254 -4.23334,-0.39724 -1.01864,-0.14325 -3.9952,-0.44122 -6.61458,-0.6622 -2.61937,-0.22096 -5.23875,-0.52049 -5.82083,-0.66564 -0.58209,-0.14513 -1.47505,-0.32735 -1.98438,-0.40492 -0.50932,-0.0776 -1.28323,-0.24982 -1.71979,-0.38277 -0.43656,-0.13296 -1.56765,-0.3783 -2.51354,-0.5452 -0.94589,-0.16693 -2.61276,-0.57709 -3.70417,-0.91147 -2.12301,-0.65045 -4.39967,-1.29556 -5.68854,-1.61189 -1.04465,-0.25638 -1.03089,-0.25244 -3.175,-0.91255 -1.01864,-0.31361 -2.36984,-0.67712 -3.0027,-0.80777 -0.63283,-0.13068 -1.82345,-0.53353 -2.64583,-0.89525 -0.82237,-0.36168 -2.18784,-0.71826 -3.03439,-0.7924 -0.84654,-0.0741 -2.0711,-0.31538 -2.72123,-0.5361 -0.65012,-0.22071 -1.46194,-0.40132 -1.80402,-0.40132 -0.34208,0 -0.963,-0.17785 -1.37981,-0.39523 -0.41682,-0.21741 -1.05878,-0.396 -1.42658,-0.39688 -0.36781,0 -0.90359,-0.15766 -1.19063,-0.34835 -0.54267,-0.36052 -0.75996,-0.43084 -5.54898,-1.7962 -6.14423,-1.75175 -7.45768,-2.11381 -8.99583,-2.47983 -11.58416,-2.75656 -18.12888,-3.79071 -27.59353,-4.3602 -2.51613,-0.1514 -5.11808,-0.41207 -5.7821,-0.57926 -1.41892,-0.35729 -5.37415,-0.18542 -9.39886,0.40844 -10.10099,1.4904 -12.12512,1.4223 -13.08837,-0.44042 -0.46439,-0.89805 -0.88883,-1.43211 -2.54471,-3.20196 -1.4297,-1.52813 -1.73084,-2.19364 -1.21702,-2.6896 0.50488,-0.48734 5.47246,-1.93289 7.23709,-2.10595 0.14552,-0.0143 0.91943,-0.21368 1.71979,-0.4431 3.89092,-1.11538 8.41976,-2.02276 12.12494,-2.42935 5.16436,-0.56668 8.19271,-0.28152 14.86256,1.39957 1.23693,0.31175 3.1748,0.79975 4.30639,1.08444 1.13159,0.2847 2.36891,0.51763 2.7496,0.51763 0.80037,0 3.74274,0.83561 6.04089,1.71554 0.87312,0.33432 2.95672,1.1132 4.63021,1.73085 1.67349,0.61767 4.03055,1.59149 5.23791,2.16408 2.14442,1.01698 5.79565,2.35937 13.5475,4.98083 2.11006,0.71356 4.78896,1.6459 5.95313,2.07187 1.16416,0.42596 2.59291,0.91657 3.175,1.09025 0.58208,0.17367 2.01083,0.65354 3.175,1.06637 1.16416,0.41283 3.36682,1.12472 4.89479,1.58197 1.52797,0.45728 3.16913,1.00206 3.64699,1.21066 0.47789,0.20859 1.13273,0.3797 1.45521,0.38023 0.3225,0 1.00306,0.26101 1.51238,0.57883 0.50933,0.31779 1.52136,0.65968 2.24896,0.75975 0.72761,0.10004 2.98231,0.61606 5.01044,1.14665 6.30243,1.64886 16.18631,3.29896 21.05102,3.51443 3.27017,0.14486 3.53187,-0.0489 1.12199,-0.83084 -1.61142,-0.52282 -6.23189,-2.87994 -8.24783,-4.20759 -1.28688,-0.84751 -3.05318,-1.7952 -3.98666,-2.13894 -0.21828,-0.0804 -1.70656,-0.85868 -3.30729,-1.72953 -1.60073,-0.87085 -4.87495,-2.54119 -7.27604,-3.71187 -2.4011,-1.1707 -4.84188,-2.38199 -5.42396,-2.69179 -5.04918,-2.68737 -13.37867,-6.47602 -14.67125,-6.67324 -0.64762,-0.0988 -1.32121,-0.2989 -1.49687,-0.44469 -0.72794,-0.60414 -9.24889,-1.61977 -13.7298,-1.6365 -3.58412,-0.0135 -7.62445,0.4244 -8.37761,0.90768 -2.02965,1.30241 -5.99981,1.558 -7.00184,0.45077 -0.42153,-0.46579 -0.39718,-0.56366 0.44853,-1.803 1.15315,-1.68984 5.9308,-5.40731 8.58092,-6.67676 0.58208,-0.27884 1.59412,-0.84849 2.24896,-1.2659 0.65484,-0.4174 1.4347,-0.7683 1.73302,-0.77973 0.29832,-0.0114 0.65551,-0.12845 0.79375,-0.26003 0.13825,-0.13155 1.89361,-0.79891 3.90082,-1.48299 2.74234,-0.93461 4.25495,-1.2946 6.08542,-1.44822 4.55041,-0.38193 10.90389,1.26032 14.52894,3.75539 1.62962,1.12167 2.1894,1.13969 4.12062,0.13261 3.34185,-1.74271 9.61335,-3.44877 14.21347,-3.86657 2.64261,-0.23998 10.34373,-0.19611 12.96458,0.0739 2.71569,0.27977 5.68648,0.75692 7.01146,1.12615 1.68982,0.47093 7.40834,3.22553 7.40834,3.56862 0,0.12785 0.13205,0.23246 0.29345,0.23246 0.35636,0 1.11932,0.65498 3.39463,2.91425 2.41501,2.39795 5.58278,6.54902 6.66011,8.72742 1.31983,2.66866 4.82455,7.44884 7.31729,9.98019 4.3347,4.40179 6.60221,5.85094 11.1741,7.14121 2.72809,0.76991 8.48085,1.0945 10.98021,0.61952 0.87312,-0.16592 1.87282,-0.29633 2.22155,-0.28983 0.34874,0.007 0.78001,-0.10924 0.95842,-0.2573 0.17841,-0.14806 0.66699,-0.24517 1.08575,-0.2158 0.92329,0.0648 2.21657,-0.28133 2.21657,-0.59319 0,-0.31152 -0.85987,-0.74396 -2.37239,-1.19314 -0.69985,-0.20783 -1.96342,-0.79394 -2.80791,-1.30247 -0.8445,-0.50855 -1.62944,-0.92461 -1.74432,-0.92461 -0.22249,0 -4.57848,-1.97802 -5.24621,-2.38228 -0.21828,-0.13213 -1.31736,-0.71618 -2.44237,-1.29786 -2.65621,-1.37337 -6.13712,-3.67623 -7.49843,-4.9607 -0.59248,-0.55904 -1.64936,-1.54316 -2.34862,-2.18691 -1.19666,-1.10168 -2.24639,-2.8356 -2.25478,-3.72433 -0.004,-0.4087 0.15994,-0.50287 3.2994,-1.89664 4.02421,-1.78657 7.21612,-3.53579 8.89212,-4.87302 1.88267,-1.50217 4.96155,-4.87788 6.77281,-7.42579 0.61208,-0.86101 1.41575,-1.85 1.78593,-2.19779 0.37021,-0.3478 0.6731,-0.73763 0.6731,-0.86633 0,-0.12866 0.34777,-0.67347 0.77282,-1.21062 2.43835,-3.08147 6.06955,-10.03136 7.28406,-13.94127 0.83836,-2.69893 1.10863,-4.05027 1.71985,-8.59896 0.6264,-4.66177 0.79518,-16.53301 0.31411,-22.0927 -0.36396,-4.20616 -0.0892,-19.52496 0.48646,-27.11979 0.13788,-1.81902 0.31716,-5.33162 0.39844,-7.8058 0.0813,-2.47414 0.26202,-5.4507 0.40166,-6.61458 0.15042,-1.25341 0.19191,-7.40137 0.10176,-15.08067 -0.21309,-18.15748 -0.21158,-22.80295 0.0103,-30.95624 0.12073,-4.43855 0.0858,-8.94723 -0.0922,-11.90625 -0.50056,-8.32004 -0.82907,-32.033 -0.48932,-35.32188 0.23786,-2.30245 0.43897,-8.63989 0.60458,-19.05 0.0752,-4.72942 0.22301,-10.86114 0.32842,-13.62604 0.10541,-2.76489 0.15203,-6.03911 0.10364,-7.27604 -0.0484,-1.23693 -0.11941,-11.00005 -0.15774,-21.69583 -0.0384,-10.69578 -0.1388,-20.10172 -0.22323,-20.90208 -0.0844,-0.80037 -0.23342,-3.06256 -0.3311,-5.02709 -0.0977,-1.96453 -0.21572,-4.04812 -0.26226,-4.63021 -0.0466,-0.58208 -0.1566,-2.54661 -0.24455,-4.36562 -0.4046,-8.369522 -1.76768,-18.078759 -3.5102,-25.003121 -0.21974,-0.873125 -0.61325,-2.54 -0.87448,-3.704167 -0.26125,-1.164166 -0.73178,-2.890572 -1.04563,-3.836458 -1.09453,-3.298692 -4.95964,-10.700183 -6.42041,-12.294764 -0.26241,-0.286443 -0.83058,-1.147143 -1.26261,-1.91267 -0.43204,-0.765524 -1.33117,-1.959911 -1.99806,-2.654194 -0.66691,-0.69428 -1.84078,-2.036236 -2.60863,-2.982121 -1.46508,-1.804789 -7.60058,-7.96309 -8.66714,-8.699328 -0.34163,-0.235839 -1.78311,-1.5528 -3.20326,-2.926582 -1.42012,-1.373783 -2.99527,-2.791783 -3.5003,-3.151111 -0.50501,-0.359331 -0.91821,-0.753372 -0.91821,-0.875652 0,-0.12228 -0.13558,-0.222326 -0.30129,-0.222326 -0.1657,0 -1.12918,-0.68461 -2.14111,-1.521355 -2.57836,-2.132046 -3.63537,-2.891967 -4.69209,-3.37327 -0.50422,-0.229661 -0.98047,-0.504995 -1.05834,-0.611854 -0.0778,-0.106858 -0.43921,-0.395994 -0.80301,-0.642528 -0.3638,-0.246533 -1.17168,-0.809331 -1.7953,-1.250659 -0.62362,-0.44133 -1.23412,-0.802417 -1.35668,-0.802417 -0.12253,0 -0.36608,-0.172638 -0.5412,-0.383638 -0.316,-0.380749 -1.85389,-1.190572 -3.25406,-1.713516 -0.40124,-0.14986 -0.6989,-0.402339 -0.66146,-0.561065 0.0378,-0.160321 -0.40233,-0.331766 -0.99026,-0.385728 -1.22084,-0.112048 -5.07973,-1.592326 -9.23112,-3.541085 -1.58473,-0.743831 -3.08825,-1.352442 -3.34124,-1.352442 -0.253,0 -0.86148,-0.167261 -1.35221,-0.371694 -0.49069,-0.204433 -1.48751,-0.452017 -2.21512,-0.550185 -0.7276,-0.09817 -2.05996,-0.414499 -2.96076,-0.702959 -0.90083,-0.288456 -2.15098,-0.572558 -2.77813,-0.631335 -2.15513,-0.201988 -3.78653,-0.450419 -4.05069,-0.616855 -0.14552,-0.09168 -1.03849,-0.309099 -1.98437,-0.48315 -0.94589,-0.174048 -2.91042,-0.565798 -4.36563,-0.870553 -2.78106,-0.58242 -8.33115,-1.281811 -11.90625,-1.50036 -1.16417,-0.07117 -2.47385,-0.21916 -2.91042,-0.328872 -0.43656,-0.109714 -1.86531,-0.223438 -3.17499,-0.252719 -1.30969,-0.02928 -3.21469,-0.168804 -4.23334,-0.310049 -1.01864,-0.141248 -3.2213,-0.305568 -4.89479,-0.365157 -1.67349,-0.05959 -3.3999,-0.172802 -3.83646,-0.2515867 -1.92705,-0.347763 -18.2506,-0.586904 -25.79687,-0.377928 -0.80037,0.02217 -1.87193,0.0035 -2.38125,-0.04143 -0.50933,-0.04495 -1.99761,0.05752 -3.3073,0.227714 -3.07852,0.4000527 -8.5485,0.5204697 -11.91261,0.2622497 -3.43907,-0.2639747 -8.9517,-0.3775397 -9.27018,-0.1909707 -0.13665,0.08005 -1.02236,0.09792 -1.96825,0.03971 -0.94588,-0.05821 -3.74385,-0.1427 -6.21771,-0.187745 -2.47385,-0.04505 -4.70627,-0.173779 -4.96093,-0.286071 -0.27972,-0.12334 -0.46302,-0.09207 -0.46302,0.07898 0,0.182936 -0.53842,0.238482 -1.52136,0.156953 -0.83674,-0.0694 -2.16434,-0.116736 -2.95022,-0.105185 -0.87899,0.01291 -1.50761,-0.106404 -1.63348,-0.31007 -0.16379,-0.265015 -0.28428,-0.264959 -0.60386,2.64e-4 -0.28489,0.23644 -1.06744,0.289918 -2.73214,0.186714 -1.2831,-0.07955 -4.2379,-0.147796 -6.56624,-0.151662 -3.118215,-0.0052 -4.128786,-0.08284 -3.836453,-0.29483 0.320884,-0.232696 0.295552,-0.252828 -0.132292,-0.10514 -0.646832,0.223276 -4.413337,0.396406 -7.805208,0.35877 -3.116131,-0.03458 -4.879234,0.03993 -17.197917,0.726731 -1.67349,0.0933 -3.280834,0.1686397 -3.571875,0.1674167 -0.741969,-0.0031 -7.952595,0.450602 -9.392709,0.591021 -0.654844,0.06385 -1.726406,0.178046 -2.381249,0.253765 -1.048174,0.1212 -2.788796,0.270182 -6.482292,0.554828 -3.748553,0.288891 -9.384776,0.935265 -10.054167,1.153033 -0.739468,0.240567 -3.050124,0.563653 -4.671089,0.653129 -0.386286,0.02133 -0.657365,0.111538 -0.602398,0.200475 0.05497,0.08894 -1.474449,0.42204 -3.398702,0.740222 -3.096922,0.512091 -4.745808,0.896755 -8.128852,1.896356 -1.340046,0.395952 -5.344642,1.839712 -5.883389,2.121117 -0.252688,0.131985 -0.758703,0.239975 -1.124479,0.239975 -0.365776,0 -0.665049,0.118451 -0.665049,0.263228 0,0.295677 -1.705255,1.11795 -3.307292,1.594768 -1.511289,0.449813 -4.7819845,2.078929 -5.8033945,2.890645 -0.478026,0.379888 -1.681176,1.102873 -2.673668,1.606634 -0.992492,0.503764 -2.40820298,1.488141 -3.14602498,2.187509 -0.737823,0.699368 -1.74204902,1.444204 -2.23161502,1.655191 -0.489564,0.210987 -1.283428,0.711427 -1.764139,1.112089 -0.480711,0.400663 -1.423643,1.132432 -2.095404,1.626153 -0.671762,0.493723 -1.911803,1.505754 -2.755652,2.248958 -0.843846,0.743206 -2.2293385,1.946595 -3.0788735,2.674199 -0.849532,0.727604 -1.673127,1.481704 -1.830208,1.675773 -0.157083,0.194072 -0.922054,1.027509 -1.699937,1.852083 -1.268746,1.344904 -2.951543,3.426071 -4.018941,4.970351 -0.9197,1.330592 -2.636571,3.790588 -3.671123,5.260126 -0.61468,0.873125 -1.317964,1.914167 -1.562852,2.313432 -0.244887,0.399261 -0.551188,0.726683 -0.680667,0.727604 -0.401703,0.0029 -0.937609,0.895419 -0.954156,1.589172 -0.0087,0.363802 -0.369649,1.129152 -0.802164,1.700779 -0.432514,0.571627 -0.786389,1.192479 -0.786389,1.379675 0,0.187192 -0.283221,0.850593 -0.62938,1.474221 -0.920308,1.65799 -2.598444,5.019489 -2.81151,5.631783 -0.10128,0.291041 -0.309775,0.886354 -0.463325,1.322916 -0.650489,1.849414 -0.874491,2.535259 -1.788035,5.474568 -0.52878,1.701326 -1.08339,3.133979 -1.23248,3.183676 -0.14909,0.04969 -0.33402,0.681765 -0.41097,1.404596 -0.077,0.722833 -0.31126,1.51094 -0.52069,1.751346 -0.20944,0.240405 -0.35106,0.597593 -0.31471,0.79375 0.0363,0.196156 -0.0234,1.309147 -0.13281,2.473314 -0.10938,1.164166 -0.25221,2.711979 -0.3174,3.439583 -0.15141,1.690203 -0.37494,9.754515 -0.47303,17.065622 -0.042,3.1287 -0.11863,5.80761 -0.17035,5.95313 -0.0517,0.14552 -0.009,0.97896 0.0949,1.85208 0.28727,2.41382 0.43587,6.38654 0.55146,14.74309 0.0578,4.17965 0.17337,8.4659 0.25677,9.525 0.0834,1.05912 0.21371,8.95035 0.28956,17.53608 0.0758,8.58573 0.2244,19.47994 0.33012,24.20937 0.10573,4.72943 0.17849,9.13474 0.1617,9.78958 -0.0837,3.26565 -0.082,25.89268 0.002,28.31042 0.45672,13.11889 0.74607,18.82243 1.00429,19.79649 0.357,1.34668 0.116,12.87468 -0.31352,14.99622 -0.51241,2.531 -0.69148,6.36301 -0.44511,9.525 0.28479,3.65508 0.0725,13.53227 -0.34118,15.875 -0.26883,1.52233 -0.3646,4.42944 -0.67478,20.48197 -0.0771,3.98905 -0.20322,7.35489 -0.28031,7.47961 -0.0771,0.12473 -0.13236,5.01674 -0.12282,10.87115 0.0156,9.60668 0.22718,14.51136 0.64382,14.928 0.082,0.082 -0.036,0.50695 -0.2622,0.94435 -0.34739,0.67176 -0.38871,1.62201 -0.26609,6.11802 0.0799,2.92751 0.33763,6.75148 0.57285,8.49773 0.23522,1.74624 0.51988,4.01161 0.63258,5.03414 0.1127,1.02253 0.32602,2.0941 0.47405,2.38125 0.14802,0.28715 0.34263,1.35554 0.43246,2.37419 0.19832,2.24885 0.78645,5.10273 1.635781,7.9375 0.348798,1.16417 0.810427,2.71198 1.025846,3.43958 1.069678,3.61299 3.695252,8.62198 5.819195,11.10167 3.790178,4.42501 12.374885,11.78479 13.746186,11.78479 0.222944,0 0.474719,0.11223 0.559502,0.24941 0.08478,0.13719 1.669386,0.9731 3.5213445,1.8576 1.851956,0.8845 3.664849,1.78924 4.028651,2.01053 0.363802,0.2213 1.018646,0.58579 1.455209,0.80994 2.13746002,1.09757 2.42110102,3.065 0.796319,5.52355 -0.577022,0.87313 -1.200608,1.74482 -1.385745,1.93712 -0.18514,0.1923 -0.336616,0.46019 -0.336616,0.59531 0,0.13513 -0.148828,0.249 -0.330729,0.25305 -0.181901,0.004 -0.677995,0.36124 -1.102432,0.79375 -0.424434,0.43252 -0.930449,0.7864 -1.124479,0.7864 -0.194027,0 -0.352777,0.13829 -0.352777,0.30734 0,0.30329 -1.832089,2.0733 -2.146432,2.07369 -0.08913,1.1e-4 -0.611516,0.3574 -1.160859,0.79397 -0.5493435,0.43656 -1.1658465,0.79375 -1.3700125,0.79375 -0.204163,0 -0.693806,0.23598 -1.088096,0.52443 -0.39429,0.28844 -0.955016,0.56819 -1.246058,0.62171 -0.291042,0.0535 -0.707761,0.17045 -0.926042,0.25988 -0.719426,0.29477 -2.763877,1.00724 -3.571875,1.24481 -0.436562,0.12835 -1.74625,0.5434 -2.910416,0.92234 -1.164167,0.37896 -2.533386,0.82021 -3.042709,0.98054 -1.168193,0.36783 -4.806439,1.00661 -5.011436,0.8799 -0.302223,-0.18677 -1.180965,0.6509 -0.927467,0.88414 0.137699,0.12668 1.202862,0.59163 2.367028,1.0332 3.00741,1.14073 8.037775,1.76895 11.90625,1.48696 1.600729,-0.11668 3.398867,-0.22275 3.995862,-0.23569 0.596995,-0.013 1.38326,-0.21868 1.7472545,-0.45718 0.363996,-0.23849 1.125702,-0.51183 1.69268,-0.60745 2.499257,-0.4214 3.652682,-1.02635 6.855979,-3.5958 2.18286002,-1.75096 5.124667,-4.81605 6.135333,-6.39246 0.395346,-0.61667 0.902073,-1.32384 1.126059,-1.57152 0.561826,-0.62124 0.832826,-0.98208 1.597874,-2.12757 0.363802,-0.5447 0.750755,-0.99118 0.859896,-0.99218 0.10914,0 0.198437,-0.13939 0.198437,-0.30756 0,-0.16817 0.297656,-0.69601 0.661459,-1.17298 0.363802,-0.47697 0.661458,-0.94301 0.661458,-1.03564 0,-0.0926 0.3571875,-0.68757 0.7937505,-1.32209 0.436562,-0.63452 0.79375,-1.23809 0.79375,-1.34125 0,-0.10318 0.74414,-2.04406 1.653646,-4.31308 2.546101,-6.35193 3.809717,-7.322 11.575521,-8.88654 9.381968,-1.89015 18.637728,-1.48119 26.722916,1.18071 0.800365,0.26349 1.633802,0.47286 1.852084,0.46521 0.218281,-0.008 1.154154,0.44982 2.07972,1.01656 0.925565,0.56676 1.915424,1.1643 2.199684,1.32786 0.284263,0.16357 0.845505,0.61228 1.247204,0.99714 l 0.730364,0.69972 1.078431,-0.78121 c 0.593137,-0.42966 1.159859,-0.91296 1.259379,-1.074 0.238964,-0.38664 2.161247,-1.59425 2.537762,-1.59425 0.162327,0 0.611179,-0.22137 0.997445,-0.49194 1.363749,-0.95524 3.263699,-1.37459 6.283235,-1.38676 1.587153,-0.006 3.421515,0.10576 4.076358,0.24928 4.511194,0.98859 11.418931,3.11028 12.576993,3.86297 0.296151,0.19251 1.367714,0.66905 2.38125,1.05902 3.250266,1.25054 7.360505,3.15895 8.715934,4.04688 0.724281,0.47444 1.438661,0.86372 1.587501,0.86507 0.14884,0.003 1.15002,0.83476 2.22486,1.85208 1.07483,1.0173 2.04416,1.84965 2.15405,1.84965 0.33871,0 6.35219,6.28042 7.09347,7.40834 0.23909,0.36381 0.81187,1.16224 1.27284,1.77429 0.46097,0.61204 0.98468,1.56455 1.1638,2.11667 0.17912,0.5521 0.54727,1.31987 0.81811,1.70615 0.27084,0.38625 0.4924,0.80297 0.49234,0.92604 -6e-5,0.12306 0.34765,0.9381 0.77268,1.81123 0.42502,0.87313 0.97038,2.30188 1.21189,3.175 0.7331,2.65033 0.96698,3.08684 1.85196,3.45662 1.49979,0.62664 19.77603,1.13567 21.32968,0.59407 1.17724,-0.41037 2.04989,-1.2211 1.90613,-1.77085 -0.24503,-0.937 4.48656,-8.82042 6.48254,-10.80072 0.79827,-0.792 1.01632,-0.86897 2.38125,-0.84053 2.46049,0.0513 3.09727,0.27262 3.04617,1.05892 -0.0241,0.37108 -0.52727,1.37893 -1.11813,2.23964 -1.51853,2.21208 -1.64494,2.34334 -1.88407,1.95641 -0.20667,-0.33441 -0.19672,-0.34269 -1.75353,1.4606 -0.90809,1.05185 -2.47647,3.5061 -2.47647,3.87523 0,0.1612 -0.40677,1.14114 -0.90393,2.17768 -0.49715,1.03653 -0.98465,2.39524 -1.08332,3.01934 -0.23758,1.50276 -0.84501,1.86272 -3.68837,2.18579 -2.13397,0.24249 -6.58857,0.12381 -7.09473,-0.18901 -0.29211,-0.18056 -8.9697,-0.65145 -13.29111,-0.72129 -3.78154,-0.0611 -5.31108,-0.47183 -6.06992,-1.62999 -0.22707,-0.34655 -0.67075,-1.85449 -0.98595,-3.351 -0.33991,-1.61377 -0.82428,-3.09581 -1.19039,-3.64223 -0.3395,-0.50673 -0.61801,-1.04251 -0.61891,-1.19062 -7.9e-4,-0.14814 -0.16645,-0.58523 -0.36791,-0.97134 -0.20146,-0.38613 -0.50493,-1.12212 -0.67439,-1.6356 -0.16945,-0.51345 -0.62897,-1.35472 -1.02115,-1.86949 -0.39217,-0.51475 -1.06274,-1.49527 -1.49016,-2.17887 -1.74352,-2.78871 -5.01635,-6.18173 -5.96274,-6.18173 -0.13914,0 -0.36492,-0.20836 -0.50174,-0.46302 -0.13682,-0.25466 -0.90272,-0.79332 -1.70201,-1.197 -0.79928,-0.4037 -1.606298,-0.91842 -1.793366,-1.14382 -0.511874,-0.61677 -2.053045,-1.31916 -3.682818,-1.67846 -0.800364,-0.17643 -2.110052,-0.57828 -2.910416,-0.893 -1.120627,-0.44063 -1.972289,-0.5654 -3.704167,-0.54261 -2.518648,0.0331 -4.749033,0.31605 -5.182227,0.65731 -0.158091,0.12456 -0.931998,0.28056 -1.719792,0.34671 -3.774384,0.31689 -10.031315,1.93426 -10.031315,2.59305 0,0.14343 -0.177165,0.1928 -0.3937,0.10972 -0.227518,-0.0873 -0.36712,-0.0156 -0.330729,0.17013 0.03463,0.17666 -0.115491,0.28157 -0.333613,0.23309 -0.501103,-0.11131 -3.199969,0.65138 -4.762791,1.34594 -0.654844,0.29104 -2.143125,0.93869 -3.307292,1.43925 -1.164167,0.50057 -2.950104,1.30882 -3.96875,1.79615 -1.018646,0.48734 -2.14974,0.96978 -2.513542,1.0721 -1.184179,0.33303 -9.002093,4.12493 -15.848977,7.6872 -1.513658,0.78751 -2.882877,1.43116 -3.042709,1.43031 -0.159832,0 -1.540761,0.58529 -3.06873,1.30249 -1.527969,0.71721 -2.956719,1.37406 -3.175,1.45965 -0.762873,0.29917 -1.948677,1.10104 -2.041938,1.38084 -0.271526,0.81457 7.685845,0.59306 10.773188,-0.29991 0.800365,-0.23148 2.94349,-0.71696 4.7625,-1.07886 1.819011,-0.36187 4.021667,-0.83259 4.894792,-1.04603 0.873125,-0.21344 2.182812,-0.46138 2.910417,-0.551 0.727604,-0.0896 2.394479,-0.45299 3.704166,-0.80748 1.309687,-0.35449 3.452812,-0.92855 4.7625,-1.27574 5.579819,-1.47913 8.143684,-2.22803 12.373208,-3.6141 1.275474,-0.41799 2.480352,-0.75999 2.677511,-0.75999 0.381863,0 2.310266,-0.61836 5.307672,-1.70193 1.010656,-0.36534 1.894121,-0.60772 1.963254,-0.53859 0.06913,0.0691 0.373327,-0.035 0.675983,-0.23146 0.57313,-0.372 2.1658,-0.98628 5.974247,-2.30428 1.236927,-0.42804 2.606146,-0.91117 3.042709,-1.07357 0.436562,-0.16243 1.329531,-0.45614 1.984375,-0.6527 0.654843,-0.19656 1.893715,-0.59984 2.75305,-0.89617 2.58291,-0.89072 3.12345,-0.77851 5.22491,1.08458 2.4033,2.13069 3.55489,4.62253 2.52953,5.47351 -0.18722,0.15539 -1.4011,0.41434 -2.69749,0.57542 -3.770752,0.46857 -9.274133,1.50011 -12.704792,2.38133 -5.392968,1.3853 -7.455514,1.85261 -8.176572,1.85261 -0.381519,0 -1.552972,0.23812 -2.60323,0.52917 -1.050259,0.29104 -2.269144,0.53276 -2.70863,0.53715 -0.439489,0.005 -1.870631,0.3079 -3.180319,0.6744 -1.309687,0.36653 -2.8575,0.73467 -3.439583,0.81814 -0.582083,0.0835 -2.049904,0.43366 -3.261826,0.77822 -1.211918,0.34457 -3.712231,0.86813 -5.55625,1.16345 -1.844016,0.29533 -4.126664,0.77219 -5.072548,1.05969 -0.945886,0.28749 -2.731823,0.71786 -3.96875,0.95636 -2.480379,0.47823 -2.385865,0.46302 -4.630209,0.74578 -0.873125,0.11001 -2.659062,0.49895 -3.96875,0.86432 -2.31848,0.64677 -2.995716,0.77388 -7.408333,1.39054 -1.164167,0.16272 -2.533386,0.4055 -3.042708,0.53956 -2.163022,0.56933 -17.227135,0.74885 -20.59041,0.24541 -1.065506,-0.15952 -2.118045,-0.22064 -2.33898,-0.13587 -0.220932,0.0848 -0.5118505,0.0861 -0.6464805,0.003 -0.134628,-0.0832 -1.16568,-0.17737 -2.291226,-0.20926 -2.37395,-0.0673 -4.977106,-0.78951 -5.348787,-1.48399 -0.614104,-1.14747 1.815126,-2.65084 3.394,-2.10045 0.480029,0.16735 1.492203,0.15153 2.964456,-0.0463 1.229553,-0.16524 2.7982065,-0.32049 3.4858985,-0.34502 0.687692,-0.0246 1.396114,-0.19036 1.574271,-0.36851 0.178157,-0.17817 0.545632,-0.32393 0.816605,-0.32393 0.62321,0 3.155193,-0.79574 3.489298,-1.09657 0.138245,-0.12448 0.406056,-0.22635 0.595138,-0.22635 0.189079,0 1.428361,-0.53578 2.753961,-1.19062 1.325599,-0.65485 2.562894,-1.19063 2.749547,-1.19063 0.362545,0 4.329454,-1.95741 6.085417,-3.00275 2.26977,-1.35121 6.945595,-4.06091 7.299727,-4.23027 2.395916,-1.14583 5.70098,-3.3397 9.478624,-6.29182 3.356877,-2.62329 9.612196,-8.83126 9.4977,-9.4258 -0.140004,-0.72697 -3.043335,-2.8788 -4.662834,-3.45589 -2.594176,-0.9244 -5.38104,-1.58355 -8.005889,-1.89357 -2.139816,-0.25275 -2.855873,-0.23225 -4.620411,0.13222 -1.148485,0.23722 -2.414072,0.59986 -2.812418,0.80584 -0.398343,0.206 -0.879004,0.38147 -1.068131,0.38997 -0.37724,0.0169 -2.06366,2.48832 -2.06366,3.02426 0,0.18373 0.305866,1.02566 0.679704,1.87098 0.373838,0.84532 0.745781,2.09486 0.826543,2.77675 0.134871,1.13879 0.02019,1.47444 -1.407309,4.1184 -1.352565,2.5052 -1.927661,3.24747 -4.433876,5.72283 -1.583852,1.56435 -2.9946,2.84427 -3.134993,2.84427 -0.140393,0 -0.582911,0.32742 -0.983374,0.7276 -1.079024,1.07829 -3.075104,2.48018 -4.75044,3.33637 -3.383378,1.72913 -4.544182,2.28603 -4.764985,2.28603 -0.128267,0 -0.953129,0.35719 -1.833028,0.79375 -0.879895,0.43656 -1.790996,0.79375 -2.024666,0.79375 -0.233669,0 -0.750477,0.16838 -1.148461,0.3742 -0.3979865,0.20579 -1.1957445,0.46196 -1.7728005,0.56922 -0.577054,0.10729 -1.882627,0.5338 -2.901273,0.94782 -1.018646,0.41402 -2.062059,0.75319 -2.318695,0.75369 -0.256635,0 -0.673354,0.10835 -0.926041,0.23969 -0.252688,0.13134 -0.935681,0.36409 -1.51776398,0.51721 -0.582083,0.15314 -1.85713402,0.52191 -2.83345002,0.81954 -0.976312,0.29763 -2.072039,0.54113 -2.434944,0.54113 -0.362908,0 -0.933326,0.10565 -1.267595,0.23479 -1.701893,0.65746 -3.76601,0.87035 -8.6392965,0.89101 -3.475058,0.0148 -5.526291,-0.0834 -6.026629,-0.28832 -0.417176,-0.17084 -1.977636,-0.53218 -3.467687,-0.80295 -3.190743,-0.57989 -3.270443,-0.53803 -3.176408,1.66764 0.05721,1.34181 -0.01241,1.58155 -0.596698,2.05512 -0.572818,0.46429 -0.85647,0.50763 -2.116667,0.32335 -0.800365,-0.11703 -5.038293,-0.21984 -9.417623,-0.22849 -5.87849,-0.0117 -8.06487,-0.1006 -8.3539,-0.34013 -0.25195,-0.20881 -0.48263,-0.23328 -0.64721,-0.0687 -0.16459,0.1646 -0.58136,0.16235 -1.16936,-0.006 -0.50249,-0.14412 -1.23125,-0.26202 -1.61945,-0.26202 -0.82693,0 -1.95233,-1.19112 -2.18137,-2.30875 -0.0828,-0.40418 0.0557,-1.34406 0.30832,-2.09177 0.8102,-2.39818 4.02428,-4.38205 9.10441,-5.61964 1.62825,-0.39667 3.00814,-0.86424 3.06641,-1.03907 0.0583,-0.17481 -0.0795,-0.31785 -0.30618,-0.31785 -0.22667,0 -0.59683,-0.35719 -0.82259,-0.79375 -0.22575,-0.43656 -0.5391,-0.79375 -0.69632,-0.79375 -0.15722,0 -0.51999,-0.29765 -0.80616,-0.66146 -0.28616,-0.3638 -0.6702,-0.66145 -0.85341,-0.66145 -0.18321,0 -0.71886,-0.59532 -1.19034,-1.32292 -0.47147,-0.72761 -1.0273,-1.32292 -1.23518,-1.32292 -0.20786,10e-6 -0.37794,-0.23108 -0.37794,-0.51355 0,-0.28244 -0.11424,-0.58415 -0.25386,-0.67043 -0.13962,-0.0863 -0.63246,-0.86722 -1.09519,-1.73542 -0.46274,-0.86818 -0.94382,-1.57851 -1.06906,-1.57851 -0.12525,0 -0.22772,-0.1751 -0.22772,-0.38915 0,-0.21402 -0.35768,-0.89863 -0.79483,-1.52135 -0.43716,-0.6227 -1.04276,-1.78705 -1.34578,-2.58742 -0.5823,-1.53802 -0.62698,-1.68063 -1.69944,-5.42395 -1.02632,-3.58225 -1.11595,-3.87374 -1.57851,-5.1339 -0.23523,-0.64082 -0.36376,-1.33173 -0.28563,-1.53532 0.0781,-0.20363 0.0195,-1.22711 -0.13033,-2.27444 -0.48867,-3.41627 -0.64115,-6.81315 -0.63183,-14.07509 0.0125,-9.71143 0.35528,-27.24473 0.56128,-28.70729 0.16884,-1.19862 0.23499,-16.34003 0.14104,-32.27917 -0.0279,-4.72943 0.0579,-10.26583 0.1906,-12.30312 0.30487,-4.68046 0.27432,-4.01402 0.41843,-9.12813 0.19314,-6.85382 0.19599,-15.02164 0.005,-15.33006 -0.27666,-0.44765 -0.47823,-11.10464 -0.52078,-27.53244 -0.0895,-34.54347 -0.23862,-54.6128 -0.43557,-58.6052 -0.29443,-5.96834 -0.32111,-13.99847 -0.0717,-21.56354 0.11756,-3.56526 0.20509,-7.19667 0.19451,-8.06979 -0.15995,-13.19258 -0.34788,-22.39439 -0.49444,-24.20938 -0.0999,-1.23693 -0.22853,-2.84427 -0.28589,-3.57187 -0.27332,-3.46718 -0.65353,-15.23146 -0.53019,-16.40488 0.16791,-1.59735 0.18295,-37.76492 0.0162,-38.893029 -0.2733,-1.848716 -0.16591,-23.060136 0.12324,-24.341666 0.16417,-0.727604 0.29571,-1.50151 0.2923,-1.719792 -0.0345,-2.210877 -0.002,-2.985955 0.13543,-3.207959 0.0887,-0.143602 0.20668,-1.355791 0.26206,-2.693754 0.16271,-3.93056 0.54951,-6.53337 1.60008,-10.767036 0.34305,-1.382448 0.73428,-3.168385 0.8694,-3.96875 0.30953,-1.833443 0.41987,-2.320017 1.08001,-4.7625 0.29498,-1.091406 0.81649,-3.05893 1.15892,-4.372276 0.34242,-1.313344 0.80374,-2.742094 1.02515,-3.175 0.22141,-0.432903 0.49169,-1.203817 0.60062,-1.7131397 0.10892,-0.509323 0.42691,-1.640417 0.70664,-2.513542 1.02982,-3.2144568 2.26874,-7.99901217 2.4664,-9.5249992 0.1221,-0.9425993 0.69024,-3.3977367 1.25515,-5.4239581 0.22314,-0.8003646 0.47328,-1.8309934 0.55586,-2.290286 0.27899,-1.551715 -1.45074,-6.3348 -2.99684,-8.286914 -0.43924,-0.554577 -0.79861,-1.088081 -0.79861,-1.185561 0,-0.09748 -0.29473,-0.497065 -0.65497,-0.887965 -2.33103,-2.529507 -4.18027,-4.79084 -4.47581,-5.473232 -0.18908,-0.436562 -0.64394,-1.448594 -1.0108,-2.248958 -1.55456,-3.391469 -1.89851,-5.599721 -1.81328,-11.641666 0.0547,-3.876628 0.16885,-5.197488 0.54882,-6.35 0.26387,-0.800365 0.55308,-2.073362 0.64268,-2.828885 0.24854,-2.09564 1.49406,-5.023316 2.43636,-5.726853 0.8454,-0.631185 1.32,-0.422574 1.83947,0.808521 0.23215,0.550188 0.64869,1.440648 0.92565,1.978803 0.64381,1.251006 0.6359,2.256012 -0.0256,3.254872 -0.9781,1.476883 -0.49955,5.498764 1.00743,8.466667 1.12657,2.218705 1.93529,3.259195 3.08474,3.968749 4.19813,2.591509 9.40158,8.753316 9.40158,11.133132 0,0.606904 0.18609,1.624447 0.41353,2.261206 0.55014,1.540195 0.77916,6.208905 0.39128,7.976389 -0.64382,2.933792 -1.8457,6.8013122 -2.66958,8.5904511 -0.28406,0.6168787 -0.51648,1.2360407 -0.51648,1.3759154 0,0.1398772 -0.15012,0.349533 -0.3336,0.4659047 -0.18348,0.1163717 -0.61448,0.8664284 -0.95776,1.6667929 -0.34329,0.8003646 -0.83858,1.93145833 -1.10063,2.51354163 -0.26206,0.5820833 -0.67471,1.77270817 -0.917,2.64583317 -0.54064,1.9482487 -1.64797,5.2789054 -2.11115,6.3499994 -0.18879,0.436563 -0.49458,1.3890627 -0.67953,2.1166667 -0.18495,0.727604 -0.55506,1.638953 -0.82247,2.025219 -0.2674,0.386265 -0.48619,0.892114 -0.48619,1.124108 0,0.231992 -0.41672,1.680549 -0.92604,3.219014 -0.50933,1.538464 -0.92605,2.951871 -0.92605,3.140903 0,0.189031 -0.24438,1.103346 -0.54307,2.031809 -0.56293,1.749798 -1.14133,4.577 -1.59035,7.773529 -0.14309,1.018646 -0.42627,2.566459 -0.6293,3.439584 -0.56995,2.451153 -0.98589,5.568285 -1.09344,8.194412 -0.0538,1.313905 -0.16023,3.222358 -0.23651,4.241004 -0.0763,1.018646 -0.20616,6.846435 -0.28862,12.950642 -0.0825,6.10421 -0.20243,11.183516 -0.2666,11.287355 -0.0642,0.103835 -0.101,4.396358 -0.0818,9.538937 0.0192,5.142582 0.0605,17.624984 0.0919,27.738681 0.0522,16.81549 0.12148,19.97223 0.53443,24.34167 0.12496,1.32222 0.49524,18.40523 0.4674,21.56354 -0.054,6.1192 0.0322,20.90417 0.12801,21.96041 0.066,0.72761 0.15287,16.92011 0.19312,35.98333 0.0402,19.06323 0.14781,39.18479 0.23906,44.71459 0.20988,12.72 0.18383,23.77561 -0.0826,35.05729 -0.11513,4.87494 -0.14011,11.48291 -0.0555,14.68437 0.20331,7.69329 0.20255,8.68566 -0.0137,18.12396 -0.10171,4.43838 -0.31141,9.33847 -0.46601,10.88906 -0.1546,1.55061 -0.33801,7.92046 -0.40756,14.1552 -0.0696,6.23478 -0.16114,12.28844 -0.20351,13.45261 -0.0424,1.16417 0.009,3.42635 0.11373,5.02708 0.10492,1.60073 0.25912,4.75589 0.34266,7.01146 0.14712,3.97185 0.79158,9.11686 1.20967,9.65729 0.11258,0.14552 0.45018,1.39568 0.75024,2.77813 0.63897,2.94394 1.55569,5.38832 2.67492,7.13248 0.44054,0.68651 0.80098,1.36818 0.80098,1.51479 0,0.1466 0.23813,0.48204 0.52917,0.74544 0.29104,0.26339 0.52917,0.63288 0.52917,0.82113 0,0.18823 0.31095,0.67577 0.69099,1.08347 0.38005,0.40767 1.02074,1.3163 1.42375,2.01917 0.40301,0.70286 1.75856,2.36974 3.01233,3.70416 1.25377,1.33443 2.82899,3.11907 3.50048,3.96587 1.21397,1.5309 1.2271,1.5386 2.31594,1.35578 0.60228,-0.10115 1.69036,-0.35396 2.417964,-0.56185 0.727605,-0.20788 1.620573,-0.44066 1.984375,-0.51728 2.056673,-0.43323 6.036546,-3.20323 6.836945,-4.75853 0.39991,-0.77711 0.824246,-3.61456 0.588764,-3.93692 -0.106299,-0.14552 -0.35374,-0.68131 -0.54987,-1.19063 -0.196128,-0.50932 -0.692333,-1.42375 -1.102678,-2.03205 -0.410342,-0.60831 -0.746077,-1.22746 -0.746077,-1.37591 0,-0.14846 -0.162169,-0.36513 -0.360373,-0.48149 -0.30257,-0.17764 -1.995863,-2.95363 -2.630623,-4.31263 -0.101954,-0.21828 -0.601485,-1.11125 -1.11007,-1.98438 -0.508582,-0.87312 -1.358281,-2.51023 -1.88822,-3.63802 -0.529936,-1.12778 -1.066165,-2.05052 -1.191617,-2.05052 -0.125455,0 -0.593183,-0.80367 -1.0394,-1.78594 -0.44621,-0.98226 -0.96592,-2.08359 -1.1549,-2.44739 -0.33104,-0.63728 -1.26704,-3.58145 -2.10287,-6.61458 -0.4586,-1.66418 -0.99791,-4.31181 -1.61684,-7.9375 -0.236,-1.38245 -0.55687,-3.22792 -0.71305,-4.10105 -0.15618,-0.87312 -0.32537,-2.24234 -0.37597,-3.0427 -0.0506,-0.80037 -0.21415,-3.06256 -0.36346,-5.02709 -0.14932,-1.96453 -0.33276,-4.82203 -0.40766,-6.35 -0.0749,-1.52797 -0.22911,-4.20687 -0.34271,-5.95312 -0.4302,-6.61321 0.0152,-52.01878 0.58003,-59.13437 0.28205,-3.55301 0.42888,-7.62575 0.58185,-16.13959 0.0902,-5.02047 0.22152,-9.22136 0.2918,-9.33529 0.13072,-0.21193 0.10531,-7.93737 -0.0324,-9.847 -0.1099,-1.52426 -0.16256,-6.48597 -0.0983,-9.26041 0.0303,-1.30969 -0.0384,-4.22672 -0.15268,-6.4823 -0.11433,-2.25557 -0.24774,-6.1251 -0.29649,-8.59895 -0.0487,-2.47386 -0.22008,-5.07683 -0.38075,-5.78435 -0.18987,-0.83616 -0.20218,-1.39483 -0.0352,-1.5961 0.32796,-0.39515 0.47644,-33.3584 0.19439,-43.15497 -0.11312,-3.92906 -0.1922,-8.63203 -0.17574,-10.45104 0.16869,-18.64045 -0.10434,-38.47301 -0.6338,-46.0375 -0.55285,-7.89881 -0.50011,-16.449127 0.12683,-20.558783 0.2956,-1.937663 0.48179,-4.027974 0.41375,-4.645136 -0.20629,-1.871266 1.17335,-9.936501 2.22864,-13.028361 0.298,-0.873125 0.64076,-2.301875 0.76167,-3.175 0.72567,-5.240046 4.112131,-13.187168 8.377685,-19.660202 0.450583,-0.68376 1.031568,-1.653802 1.291082,-2.155645 0.259514,-0.501843 0.634997,-1.075597 0.834406,-1.275008 0.199411,-0.199412 0.362566,-0.522505 0.362566,-0.717984 0,-0.19548 0.625079,-1.193136 1.389063,-2.217015 0.763984,-1.023877 2.028185,-2.763761 2.809335,-3.866409 0.781153,-1.102649 1.64769,-2.126525 1.92564,-2.275279 0.277953,-0.148757 0.441778,-0.373351 0.364062,-0.499103 -0.214135,-0.346477 5.931059,-6.359395 6.499297,-6.359395 0.273595,0 0.665369,-0.333779 0.880837,-0.750451 0.213442,-0.412747 0.841576,-1.091633 1.395857,-1.508635 1.100249,-0.827746 2.0476655,-1.650968 4.2978625,-3.734456 1.571691,-1.455251 8.207515,-5.987418 9.949751,-6.795529 2.308604,-1.070814 4.529783,-2.192152 5.512666,-2.783007 1.5696435,-0.943588 11.8720945,-4.755604 15.9079225,-5.8861 4.530457,-1.26905 9.81217,-2.3599587 13.229166,-2.7324127 3.063963,-0.333973 8.79093,-0.975609 14.2875,-1.600742 0.582084,-0.0662 2.103372,-0.238377 3.38064,-0.382614 1.277267,-0.144238 2.499796,-0.194141 2.71673,-0.110895 0.216935,0.08325 0.719709,0.02787 1.117278,-0.12305 0.412353,-0.156533 4.473329,-0.340368 9.454102,-0.427974 4.802187,-0.08446 11.58875,-0.240178 15.08125,-0.346027 5.753992,-0.17439 11.753684,-0.222803 18.653122,-0.150516 1.38245,0.0145 18.0512,-0.0078 37.04167,-0.04957 18.99047,-0.04175 34.70672,0.0173 34.925,0.131206 0.21828,0.113912 3.25437,0.289669 6.74687,0.390576 3.49251,0.100907 7.00485,0.2409 7.80521,0.311099 0.80037,0.0702 3.12209,0.230648 5.15938,0.356558 2.03729,0.12591 4.47807,0.347149 5.42396,0.491646 0.94588,0.144497 2.37463,0.328888 3.175,0.409758 12.74781,1.288063 16.90354,1.954061 25.00312,4.0070077 4.54382,1.151689 5.73302,1.551742 12.43542,4.183296 5.56559,2.185212 6.85951,2.754315 6.96211,3.062184 0.0514,0.154172 0.24098,0.280313 0.42132,0.280313 0.5442,0 4.91903,2.217843 7.03636,3.567101 4.44484,2.832465 8.94741,5.877904 10.31875,6.979346 5.47124,4.394488 9.3726,7.818212 10.50883,9.222292 0.5503,0.680022 1.59586,1.857211 2.32346,2.615973 2.19819,2.292323 4.97589,5.392549 5.38282,6.007862 0.21074,0.318613 0.52131,0.698362 0.69016,0.843883 0.16886,0.145521 0.8069,0.944951 1.41788,1.776513 0.61097,0.831561 1.38679,1.784061 1.724,2.116666 1.61269,1.59058 4.67577,6.120101 4.67577,6.914261 0,0.125574 0.35718,0.757568 0.79375,1.404432 0.43656,0.646861 0.79375,1.236771 0.79375,1.310907 0,0.07414 0.47625,1.132637 1.05833,2.35222 0.58208,1.219584 1.05833,2.348325 1.05833,2.508316 0,0.159988 0.22196,0.732631 0.49324,1.272537 0.2713,0.539907 0.64654,1.636491 0.83386,2.436855 0.18733,0.800365 0.81468,2.63952 1.39412,4.087016 0.99869,2.494854 1.06508,2.839059 1.27561,6.614583 0.12215,2.190525 0.34245,4.637619 0.48955,5.437984 0.14711,0.800364 0.44278,2.857098 0.65704,4.570518 0.21426,1.713418 0.44347,3.20249 0.50933,3.309048 0.0658,0.106556 0.20145,2.455135 0.30133,5.219065 0.0999,2.763927 0.21897,5.335557 0.26466,5.714737 0.47027,3.90335 0.70647,13.2256 0.82386,32.51579 0.11806,19.4028 0.10512,25.44411 -0.055,25.70324 -0.10589,0.17132 -0.23172,4.7099 -0.53449,19.27593 -0.14819,7.12898 -0.15761,7.87101 -0.14456,11.37708 0.004,1.09141 -0.0304,3.175 -0.0766,4.63021 -0.37381,11.7775 -0.46284,26.53117 -0.17802,29.50104 0.17444,1.81901 0.36643,3.9026 0.42662,4.63021 0.10959,1.32431 0.13941,16.14548 0.0495,24.60625 -0.0262,2.47385 0.0486,12.95135 0.16642,23.28333 0.18243,15.99917 0.15621,19.17784 -0.17685,21.43125 -0.57007,3.8568 -0.69199,6.7714 -0.75805,18.12395 -0.0662,11.36846 0.25683,24.65234 0.69485,28.575 0.54332,4.86572 0.40666,10.48465 -0.36357,14.94896 -0.15063,0.87313 -0.46342,2.71859 -0.69506,4.10104 -0.23167,1.38245 -0.52189,2.93026 -0.64495,3.43959 -0.12303,0.50932 -0.36724,1.52135 -0.54263,2.24895 -0.37963,1.57475 -1.50228,5.04217 -1.83023,5.65283 -0.12779,0.23791 -0.46731,1.2065 -0.75449,2.15238 -1.46251,4.81698 -4.00653,10.49465 -6.10547,13.62604 -2.33955,3.49036 -3.12624,5.0255 -3.19966,6.24388 -0.24146,4.00674 0,5.1444 1.21137,5.72235 0.5016,0.23921 0.91199,0.53192 0.91199,0.65048 0,0.11856 0.1786,0.21558 0.39688,0.21558 0.21828,0 0.39687,-0.1843 0.39687,-0.40957 0,-0.77936 1.79801,-3.21575 3.42517,-4.64132 2.66123,-2.33154 6.44776,-8.32811 8.08791,-12.80848 0.26636,-0.7276 0.57076,-1.44198 0.67644,-1.5875 0.46495,-0.64021 1.93603,-6.8948 2.30253,-9.78958 0.54272,-4.28676 0.74819,-12.51813 0.44252,-17.72709 -0.14446,-2.46173 -0.1497,-22.14411 -0.01,-36.90937 0.0765,-8.07641 0.19629,-41.71156 0.2662,-74.74479 0.0699,-33.03323 0.19378,-61.97803 0.27535,-64.32179 0.0815,-2.34376 0.19968,-15.73829 0.26254,-29.76562 0.0628,-14.02734 0.23985,-27.58784 0.39333,-30.13446 0.41667,-6.91335 0.36844,-16.38461 -0.11046,-21.69583 -0.22961,-2.54661 -0.42071,-5.880357 -0.42468,-7.408327 -0.004,-1.52797 -0.11375,-3.671095 -0.244,-4.762501 -0.13023,-1.091406 -0.31099,-3.234531 -0.40169,-4.7625 -0.0907,-1.527969 -0.34155,-3.790156 -0.55751,-5.027083 -0.21595,-1.236927 -0.61542,-3.520072 -0.88767,-5.073658 -0.53631,-3.060287 -1.67347,-7.714702 -2.92984,-11.991967 -0.12824,-0.436562 -0.48064,-1.686718 -0.78309,-2.778124 -1.12289,-4.051739 -1.40885,-4.925317 -2.03541,-6.217709 -0.35272,-0.727604 -0.88876,-1.97776 -1.19118,-2.778124 -0.30242,-0.800365 -0.6346,-1.51474 -0.73819,-1.5875 -0.10358,-0.07276 -0.40198,-0.549011 -0.66312,-1.058334 -0.6045,-1.179057 -1.34189,-2.233313 -2.50947,-3.587892 -0.50932,-0.590894 -2.16411,-2.596103 -3.67729,-4.456023 -3.10546,-3.81704 -7.57047,-8.450511 -9.15558,-9.500991 -1.35303,-0.896676 -4.1895,-3.101681 -4.96084,-3.856429 -0.32715,-0.320133 -1.19014,-1.066435 -1.91775,-1.658451 -2.80524,-2.282481 -7.55425,-7.171419 -10.11206,-10.410004 -0.57464,-0.727604 -1.24319,-1.486323 -1.48566,-1.686041 -0.24244,-0.199721 -0.44132,-0.497377 -0.44196,-0.661459 0,-0.164084 -0.48654,-0.938606 -1.07982,-1.721164 -1.2415,-1.637586 -2.62321,-4.0966127 -2.62321,-4.6685487 0,-0.215001 -0.1089,-0.390912 -0.24201,-0.390912 -0.13311,0 -0.44101,-0.922734 -0.68424,-2.05052 -0.24321,-1.1277868 -0.54496,-2.4672398 -0.67056,-2.9765627 -0.1256,-0.5093229 -0.23421,-1.1641667 -0.24141,-1.45520827 -0.007,-0.2910417 -0.043,-1.5411979 -0.0796,-2.77812493 l -0.0666,-2.2489582 -0.981,-0.081449 c -0.53954,-0.044797 -1.23335,0.053621 -1.54183,0.2187072 -0.30845,0.1650842 -1.11718,0.4598353 -1.79713,0.6549972 -0.67995,0.1951646 -1.95067,0.6114336 -2.82379,0.9250442 -0.87313,0.3136106 -1.88145,0.6281155 -2.24073,0.6988995 -0.35931,0.070787 -0.77602,0.2198608 -0.92604,0.3312821 -0.2835,0.210521 -2.35797,0.86333013 -3.05094,0.96008823 -0.21828,0.03048 -0.57547,0.1190943 -0.79375,0.1969214 -1.18959,0.4241403 -8.8093,1.56707147 -10.05417,1.50808787 -0.3638,-0.017224 -1.73302,0.1534901 -3.04271,0.3793914 -1.30968,0.2259012 -2.61937,0.4017962 -2.91041,0.3908795 -0.73128,-0.027429 -3.79056,0.2431044 -6.48229,0.5732409 -3.23565,0.3968406 -3.6779,0.4315539 -8.0698,0.6333913 -2.18281,0.1003168 -5.69515,0.3039216 -7.8052,0.4524534 -2.11006,0.1485344 -4.49131,0.2677821 -5.29167,0.2649961 C 193.55353,4.0095001 186.16115,3.752476 182.33576,3.4820295 179.93467,3.3122781 171.95748,3.1292367 164.60868,3.075267 157.25988,3.0213 150.77097,2.9120244 150.18889,2.8324324 149.6068,2.7528378 148.77337,2.6300474 148.3368,2.5595624 147.90024,2.4890774 145.51899,2.3041125 143.04514,2.1485269 140.57128,1.9929413 137.83285,1.7267282 136.95972,1.5569397 136.0866,1.387154 134.36019,1.2519889 133.12326,1.2565768 130.04259,1.2680068 113.19249,1.5706796 102.4316,1.8078917 88.982352,2.1043653 68.077321,1.9742855 67.060786,1.5877981 66.698349,1.4500005 66.403127,1.4653807 66.30307,1.6272766 66.212913,1.7731546 65.940807,1.8324927 65.698391,1.759137 65.455977,1.6857812 64.662325,1.6085123 63.934721,1.5874303 63.207117,1.566343 61.897429,1.4406871 61.024304,1.3081864 60.151179,1.1756858 57.82946,1.0061037 55.86493,0.93133513 49.601377,0.69295613 49.128196,0.65713153 48.588888,0.38046213 48.297846,0.23115773 47.04769,0.08279523 45.810763,0.05076743 42.73699,-0.02881657 39.679393,-0.40436877 35.756596,-1.1841461 30.173544,-2.2939541 28.554156,-2.5930735 26.566339,-2.8817048 24.484177,-3.1840362 22.4707,-3.7817908 21.539893,-4.3739388 21.215027,-4.5806075 20.262527,-4.8599704 19.423227,-4.9947465 17.7775,-5.2590177 15.311901,-5.9098953 14.457638,-6.3055797 14.166596,-6.4403875 13.10681,-6.745251 12.102555,-6.9830559 11.098303,-7.2208607 10.030013,-7.5881711 9.7285805,-7.7993033 c -0.301487,-0.2111322 -0.979418,-0.3838761 -1.506569,-0.3838761 -1.151575,0 -1.920679,0.7271306 -1.885273,1.7823868 0.06188,1.8441881 0.07085,2.5191957 0.04577,3.4431339 -0.04414,1.626137 -0.525761,4.3538641 -0.920782,5.2149399 -0.202943,0.4423807 -0.610367,1.5059977 -0.905385,2.3635916 -0.295019,0.8575935 -0.718008,1.7599365 -0.939975,2.0052085 -0.221967,0.245271 -0.403577,0.58049 -0.403577,0.744931 0,0.262369 -2.28719298,3.2176827 -3.62288098,4.6811777 -0.262988,0.288152 -1.02697502,1.264026 -1.69774902,2.168607 -0.670775,0.904584 -1.623275,1.977758 -2.116667,2.38483 -0.493392,0.407072 -1.030417,0.859948 -1.193387,1.00639 -3.260429,2.929781 -4.510786,4.080338 -4.9984365,4.599482 -1.168575,1.244036 -1.606764,1.65563 -3.07158,2.885159 -0.817938,0.686557 -2.187157,1.859262 -3.042708,2.606009 -0.855551,0.746746 -2.661944,2.324324 -4.014205,3.505729 -1.352262,1.181404 -2.564628,2.148006 -2.694149,2.148006 -0.129522,0 -0.308851,0.231124 -0.398508,0.513609 -0.08966,0.282485 -0.75511,0.938991 -1.478788,1.458899 -0.723675,0.519909 -1.521545,1.190369 -1.773044,1.489909 -0.2515,0.299542 -0.99862,0.945102 -1.660266,1.434578 -0.661649,0.489477 -1.366377,1.195237 -1.566063,1.568355 -0.199689,0.373121 -0.51352,0.6784 -0.697405,0.6784 -0.183885,0 -0.402474,0.21468 -0.485751,0.47707 -0.08328,0.262387 -0.563774,0.887465 -1.067763,1.389062 -0.503992,0.501595 -0.920129,1.044763 -0.924748,1.20704 -0.0046,0.162277 -0.229571,0.578996 -0.499901,0.926042 -0.27032,0.347046 -0.65215,1.107244 -0.8485,1.689327 -0.19635,0.582083 -0.4924,1.236927 -0.65787,1.455208 -0.57263,0.755354 -1.70629,3.28104 -1.70629,3.801428 0,0.287393 -0.16312,0.710499 -0.36249,0.940239 -0.40684,0.468813 -1.76811,4.779912 -1.8688,5.918388 -0.0359,0.405997 -0.2034,0.876294 -0.37221,1.045104 -0.1688,0.168807 -0.30692,0.514209 -0.30692,0.767559 0,0.253349 -0.12199,0.53603 -0.27109,0.628179 -0.16405,0.101391 -0.20422,0.671689 -0.10171,1.444381 0.121,0.912164 0.0534,1.492197 -0.23672,2.030884 -0.42014,0.780142 -1.06945,4.03567 -1.49896,7.515597 -0.1357,1.099476 -0.35605,2.290101 -0.48967,2.645834 -0.42214,1.123899 -1.0502,4.769789 -1.36481,7.922823 -0.16698,1.673489 -0.54362,5.126302 -0.83698,7.672916 -0.83791,7.27367 -0.95615,9.04557 -0.65662,9.83913 0.18869,0.499887 0.18178,1.105827 -0.0227,1.988367 -0.39083,1.68708 -0.40941,6.10334 -0.0482,11.45583 0.16204,2.4011 0.3259,7.52078 0.36411,11.37709 0.0382,3.8563 0.15007,8.4402 0.24857,10.18645 0.1181,2.09362 0.0572,4.23987 -0.17876,6.3015 -0.24167,2.11149 -0.28483,3.74354 -0.13294,5.02709 0.12369,1.04531 0.26377,6.72261 0.31129,12.6162 0.0475,5.8936 0.21572,13.27547 0.37379,16.40417 0.15807,3.1287 0.23017,7.8912 0.16023,10.58333 -0.17821,6.85964 -0.16409,16.17396 0.0307,20.24063 0.18736,3.91194 0.19424,4.39322 0.16648,11.64166 -0.0111,2.91042 0.003,7.13714 0.031,9.39271 0.0455,3.63908 -0.13923,8.06072 -0.50297,12.03854 -0.19599,2.14326 -0.11853,9.78705 0.13121,12.94921 0.12709,1.60917 0.2037,8.40267 0.17024,15.09662 -0.0335,6.69396 0.0365,13.32815 0.15544,14.74267 0.25223,2.9995 0.28984,8.37245 0.0876,12.50942 -0.0783,1.60073 -0.19922,6.36323 -0.26878,10.58333 -0.0696,4.2201 -0.22019,10.70901 -0.33474,14.41979 -0.23051,7.46678 -0.17966,38.14876 0.066,39.81979 0.0856,0.58208 0.23072,1.41552 0.32256,1.85208 0.0918,0.43657 0.14956,1.98438 0.12827,3.43959 -0.0213,1.45521 0.14666,3.63961 0.37325,4.8542 0.22658,1.2146 0.52959,3.00054 0.67336,3.96875 0.14377,0.96822 0.36374,2.35569 0.48883,3.0833 0.12509,0.7276 0.30901,1.79916 0.40872,2.38125 0.23631,1.37951 0.67087,2.51354 0.96318,2.51354 0.12787,0 0.23249,0.23199 0.23249,0.51551 0,0.99063 1.64226,5.83655 2.51529,7.42199 0.20033,0.3638 0.61893,1.21528 0.93023,1.89219 0.3113,0.67691 0.86442,1.51035 1.22917,1.85209 0.36475,0.34173 0.81905,0.97853 1.00956,1.41509 0.19051,0.43657 1.01355,1.50008 1.828977,2.36334 0.81543,0.86328 1.482601,1.72649 1.482601,1.91823 0,0.19177 0.123394,0.34864 0.274206,0.34864 0.355217,0 2.389317,2.0075 3.124404,3.08356 0.651343,0.95345 0.746125,2.26184 0.196874,2.71767 -0.205296,0.17039 -0.805111,0.37986 -1.332921,0.46553 -0.808024,0.13113 -1.122846,0.0246 -1.992468,-0.67426 -0.56805,-0.45651 -1.161413,-0.83 -1.318586,-0.83 -0.157173,0 -0.422725,-0.30059 -0.590107,-0.66797 -0.16739,-0.36737 -0.68021,-0.90024 -1.1396,-1.18417 -1.021,-0.631 -3.13094,-2.88779 -4.20521,-4.49786 -0.43692,-0.65484 -0.88525,-1.25434 -0.99628,-1.33218 -0.11103,-0.0779 -0.38685,-0.55411 -0.61295,-1.05833 -0.2261,-0.50424 -0.52166,-1.09537 -0.6568,-1.31366 -3.53763,-5.71402 -6.10741,-14.84987 -7.00091,-24.889 -0.0592,-0.66485 -0.22657,-1.67688 -0.37199,-2.24896 -0.39644,-1.55956 -0.79319,-11.81569 -0.61852,-15.98912 0.0396,-0.94588 0.0661,-4.32183 0.0589,-7.50207 -0.007,-3.18027 0.0568,-5.89542 0.14228,-6.03367 0.0855,-0.13827 0.20322,-9.83969 0.26171,-21.55875 0.0611,-12.23486 0.21811,-22.00701 0.36884,-22.95054 0.14438,-0.90376 0.2512,-3.36404 0.23738,-5.46729 -0.0138,-2.10328 -0.0648,-11.02741 -0.11324,-19.83142 -0.0485,-8.80401 -0.10813,-16.30495 -0.13257,-16.66875 -0.0245,-0.36381 -0.0391,-1.19724 -0.0325,-1.85209 0.007,-0.65484 0.007,-1.48828 0.002,-1.85208 -0.006,-0.3638 0.0686,-2.1291 0.16483,-3.92287 0.12559,-2.34103 0.0871,-3.3673 -0.13643,-3.63662 -0.17829,-0.21481 -0.23272,-0.63026 -0.12733,-0.97192 0.40761,-1.32154 0.59137,-2.59977 0.39151,-2.7233 -0.11642,-0.072 -0.15927,-1.57382 -0.0952,-3.33751 0.0777,-2.13916 0.0179,-3.32544 -0.17962,-3.56343 -0.22346,-0.26927 -0.1669,-0.60463 0.23056,-1.36716 0.4558,-0.87447 0.48005,-1.09932 0.18027,-1.67148 -0.26348,-0.50286 -0.29468,-1.29103 -0.13036,-3.29329 0.11881,-1.44772 0.17677,-3.16799 0.1288,-3.82284 -0.048,-0.65484 -0.1608,-2.19564 -0.25073,-3.42402 -0.0899,-1.22836 -0.21602,-2.31833 -0.28018,-2.42216 -0.0642,-0.10382 -0.17438,-7.6713 -0.24491,-16.81659 -0.0705,-9.14533 -0.20646,-18.71144 -0.30205,-21.25806 -0.0956,-2.54661 -0.15826,-5.7613 -0.13926,-7.14375 0.0326,-2.36868 0.0276,-15.35207 -0.008,-19.97604 -0.009,-1.16416 -0.001,-4.61698 0.0164,-7.67291 0.0179,-3.05594 -0.006,-6.62782 -0.0531,-7.9375 -0.0471,-1.30969 -0.01,-2.73844 0.0827,-3.175 0.0926,-0.43657 0.08,-1.21047 -0.028,-1.71979 -0.55668,-2.62586 -0.62944,-12.42878 -0.41733,-56.223958 0.12013,-24.805139 0.17265,-25.915918 1.50718,-31.88229 0.14647,-0.654844 0.37805,-1.726406 0.51461,-2.38125 0.23706,-1.136729 0.71439,-3.149002 1.85149,-7.805208 0.61841,-2.532306 1.13713,-4.007387 1.55679,-4.42704 0.16995,-0.169952 0.309,-0.529847 0.309,-0.799767 0,-1.088911 2.91466,-6.945883 4.5553,-9.153813 2.23589,-3.009003 2.42265,-3.283394 3.08804,-4.5370877 0.34756,-0.654843 0.95729,-1.607343 1.35495,-2.116666 0.39766,-0.509323 1.09222,-1.640417 1.543453,-2.513542 0.451236,-0.8731248 0.994614,-1.885156 1.207503,-2.2489581 0.212889,-0.3638021 0.985263,-1.98177407 1.716389,-3.59549417 2.381684,-5.25680233 3.08279,-9.04328863 2.818461,-15.22177303 -0.218313,-5.102944 -0.272415,-5.82614 -0.472657,-6.318149 -0.08884,-0.218281 -0.239565,-0.977937 -0.334949,-1.688126 -0.324991,-2.419747 -2.461279,-6.737593 -3.900972,-7.884607 -0.545703,-0.434766 -0.992188,-0.933228 -0.992188,-1.107691 0,-0.451774 -0.89524,-1.57271 -3.19671,-4.002593 -1.10335,-1.164913 -2.28744,-2.534742 -2.63131,-3.044065 -0.34388,-0.509323 -1.09046,-1.461823 -1.65909,-2.116667 -0.56862,-0.654844 -1.26256,-1.637847 -1.54208,-2.18445 -0.27953,-0.546605 -0.74356,-1.140791 -1.03119,-1.320416 -0.28762,-0.179623 -0.52295,-0.473655 -0.52295,-0.653405 0,-0.179747 -0.40681,-0.697 -0.90402,-1.14945 -0.98194,-0.893551 -3.94005,-5.068496 -4.22046,-5.956573 -0.0953,-0.30177 -0.4045,-0.796901 -0.68715,-1.100293 -0.77417,-0.830972 -2.81998,-5.050933 -3.17521,-6.549602 -0.172,-0.72567 -0.42894,-1.459417 -0.57097,-1.630553 -0.35386,-0.426378 -0.35924,-7.678702 -0.008,-10.279215 0.29478,-2.180103 1.46614,-5.348047 2.59076,-7.00673 0.34358,-0.506725 0.62468,-1.080214 0.62468,-1.274426 0,-0.19421 0.26819,-0.732118 0.59598,-1.195351 0.32778,-0.463232 0.71474,-1.040842 0.85989,-1.283573 0.14516,-0.242731 0.70633,-1.076169 1.24705,-1.852083 0.54073,-0.775915 1.34689,-1.946534 1.79148,-2.601378 0.87191,-1.28424 3.67013,-4.289838 4.79993,-5.15565 0.38245,-0.293089 1.8112,-1.436674 3.175,-2.541296 1.3638,-1.104622 3.25353,-2.467208 4.19942,-3.027968 0.945882,-0.560761 2.023959,-1.294083 2.395725,-1.629613 0.371763,-0.33553 0.788482,-0.61111 0.926042,-0.61241 0.137557,-10e-4 0.96448,-0.61453 1.837605,-1.36276 0.873125,-0.74822 2.203537,-1.8262 2.956473,-2.39552 1.578747,-1.19373 1.938319,-1.99079 1.938319,-4.29669 0,-1.22157 -0.171159,-1.97183 -0.685126,-3.00323 -0.376817,-0.75618 -0.774353,-1.37487 -0.883409,-1.37487 -0.109059,0 -0.648454,-0.38695 -1.198658,-0.85989 -0.978948,-0.84148 -3.325471,-2.29877 -4.641141,-2.88234 -0.363802,-0.16136 -1.168402,-0.53566 -1.788001,-0.83178 -0.619599,-0.29611 -1.453029,-0.56579 -1.852079,-0.59928 -0.39905,-0.0335 -2.00448,-0.37148 -3.56763,-0.75109 -1.56316,-0.37961 -3.10867,-0.6902 -3.43448,-0.6902 -0.3258,0 -1.18998,-0.2299 -1.9204,-0.51089 -0.73042,-0.281 -1.9881,-0.76111 -2.79485,-1.06693 -2.75792,-1.04546 -5.97058,-4.17024 -6.899,-6.71028 -0.8352,-2.28502 -0.75011,-2.532 1.65037,-4.7902 1.18145,-1.11142 2.66816,-2.37858 3.30378,-2.81591 1.97266,-1.35722 7.52382,-3.54168 9.62938,-3.78929 0.65484,-0.077 1.84547,-0.25948 2.64583,-0.40548 0.80036,-0.14601 1.99099,-0.32067 2.64583,-0.38813 0.654844,-0.0675 2.738438,-0.31015 4.630209,-0.53929 7.066396,-0.85592 8.383278,-0.95786 13.130546,-1.01638 9.2482975,-0.11401 13.5906875,0.0678 15.66656852,0.65602 1.04200298,0.29524 2.25173898,0.57181 2.68830098,0.61458 1.736545,0.17014 5.65008,0.94785 7.2760425,1.44591 0.945885,0.28975 1.898385,0.526 2.116667,0.525 0.451736,-0.002 3.880728,1.01108 4.529042,1.33817 0.235402,0.11876 0.934074,0.3522 1.552607,0.51875 1.086794,0.29265 3.3553,1.33855 5.824601,2.68546 4.513466,2.46191 7.966181,5.53404 10.319131,9.18166 0.783651,1.21484 1.692566,2.3106 2.019813,2.43502 0.456131,0.17342 1.09452,-0.0179 2.735389,-0.81975 1.177219,-0.57527 2.296756,-1.04595 2.487859,-1.04595 0.191103,0 0.546293,-0.21971 0.78931,-0.48825 0.409255,-0.45221 2.278891,-1.43388 7.328043,-3.84764 1.099638,-0.52568 2.0832,-0.95578 2.185697,-0.95578 0.187772,0 1.796412,-0.67643 3.752466,-1.5779 0.582083,-0.26827 1.641866,-0.62454 2.355072,-0.79172 0.713205,-0.16718 1.64734,-0.48526 2.075852,-0.70686 0.830241,-0.42933 4.953828,-1.83281 6.034315,-2.0538 0.355994,-0.0728 1.599761,-0.50525 2.763927,-0.96099 2.378409,-0.93107 3.702124,-1.34593 7.14375,-2.23889 8.574347,-2.22469 11.307462,-2.80434 13.758334,-2.91792 0.873125,-0.0405 1.766094,-0.1356 1.984375,-0.21141 0.835237,-0.29009 7.192029,-0.99446 11.244793,-1.24599 8.59024,-0.53314 16.74091,-0.90956 19.31458,-0.892 2.9497,0.0201 10.23822,0.0142 14.2875,-0.0117 1.45521,-0.009 3.83646,0.0773 5.29167,0.1925 2.76043,0.21846 4.92266,0.32491 11.77396,0.57966 8.38948,0.31194 13.78874,1.0156 19.84375,2.58614 1.38245,0.35858 3.46604,0.85838 4.63021,1.11066 1.16416,0.25229 2.89057,0.67939 3.83646,0.94911 5.46142,1.55735 7.70009,2.1793 9.0377,2.51086 3.59068,0.89005 18.00502,5.91278 22.84459,7.96028 5.42237,2.29409 8.62922,3.77035 8.86354,4.08031 0.29128,0.38532 1.33009,0.78339 2.04433,0.78339 0.45977,0 1.73712,-0.6055 3.25853,-1.54463 1.37628,-0.84955 2.88269,-1.77229 3.34753,-2.05052 0.46488,-0.27824 2.30071,-1.38762 4.07969,-2.46529 4.2208,-2.55688 10.8676,-5.73764 15.19185,-7.26989 1.89637,-0.67197 3.62979,-1.22175 3.85201,-1.22175 0.22225,0 0.63519,-0.17481 0.91769,-0.38846 0.28246,-0.21366 0.79525,-0.39225 1.13953,-0.39688 0.52946,-0.007 1.51908,-0.27656 3.73967,-1.01821 0.21828,-0.0729 0.47599,-0.11704 0.57269,-0.0981 0.0967,0.0189 0.75155,-0.1286 1.45521,-0.32789 0.70366,-0.1993 2.0533,-0.43756 2.99919,-0.52947 3.04527,-0.29591 4.0813,-0.43838 5.06156,-0.69605 1.51833,-0.39909 3.63841,-0.5054 10.01969,-0.50243 7.47146,0.003 9.58207,0.12251 11.24479,0.6342 0.7276,0.22392 1.62057,0.40991 1.98437,0.41331 0.36381,0.003 2.14974,0.35574 3.96875,0.78296 5.91659,1.38958 5.65579,1.30562 11.03562,3.55292 4.39573,1.83622 8.85848,5.49059 9.68367,7.9296 0.30474,0.90077 0.35763,1.43029 0.17661,1.76854 -0.14211,0.26555 -0.2584,0.78127 -0.2584,1.14605 0,0.36478 -0.11906,0.73682 -0.26458,0.82676 -0.14552,0.0899 -0.26458,0.3851 -0.26458,0.65591 0,0.27081 -0.64702,1.06907 -1.43783,1.77391 -1.06987,0.95356 -1.93318,1.44166 -3.37344,1.90728 -1.06457,0.34418 -2.16558,0.74403 -2.44668,0.88856 -0.90458,0.46515 -2.10222,0.77123 -3.45768,0.8837 -1.49929,0.1244 -2.79006,0.38732 -4.89479,0.99703 -0.80036,0.23185 -1.99099,0.55805 -2.64583,0.72489 -0.65485,0.16684 -1.74879,0.46735 -2.43097,0.6678 -0.68217,0.20045 -1.4365,0.36446 -1.67627,0.36446 -0.23974,0 -1.2818,0.41672 -2.31563,0.92604 -1.03386,0.50933 -2.03586,0.92604 -2.22665,0.92604 -0.19079,0 -0.81571,0.48309 -1.38872,1.07353 -1.11514,1.14908 -1.76676,2.73622 -2.00337,4.8796 -0.12592,1.14054 -0.0368,1.51077 0.64635,2.68552 0.43894,0.7548 1.76154,2.23004 2.9651,3.30729 1.19499,1.06958 3.31274,3.032159 4.70612,4.361285 1.39338,1.329127 3.12872,2.915846 3.85633,3.526044 1.68849,1.416045 8.06979,7.724716 8.06979,7.97796 0,0.105272 0.50602,0.786728 1.12448,1.51435 0.61846,0.72762 1.35948,1.779138 1.64669,2.336708 0.2872,0.557569 0.77298,1.370949 1.0795,1.807511 0.73662,1.049118 2.37106,5.349248 2.91639,7.672917 0.93525,3.984918 0.73099,12.142374 -0.42193,16.850909 -0.27395,1.118836 -0.8473,2.854828 -1.27407,3.857763 -0.4268,1.002932 -0.85858,2.199518 -0.95951,2.659075 -0.10092,0.459558 -0.29343,0.903481 -0.42773,0.986499 -0.13433,0.08302 -0.24424,0.47729 -0.24424,0.87616 0,0.39887 -0.11371,0.838946 -0.25273,0.977948 -0.13901,0.139001 -0.70456,1.10596 -1.25677,2.148802 -0.55221,1.042842 -1.33469,2.309657 -1.73881,2.815146 -1.28241,1.604073 -5.72096,6.287822 -9.07235,9.573529 -3.55391,3.484229 -5.07802,5.575255 -7.32838,10.054167 -2.49079,4.957489 -3.0017,8.328911 -2.34561,15.4781243 0.24564,2.6768635 0.4899,3.9447997 0.97475,5.0601692 0.35584,0.81856003 0.64699,1.66420273 0.64699,1.87920313 0,0.21500037 0.59523,1.65277787 1.3227,3.19506047 0.7275,1.5422822 1.85492,4.2344872 2.50539,5.9826759 0.65048,1.748189 1.28612,3.391148 1.41254,3.65102 0.12644,0.259873 0.53914,1.127339 0.91709,1.927703 0.37799,0.800365 1.46884,3.105894 2.42412,5.1234 0.9553,2.017506 1.73691,3.760737 1.73691,3.873852 0,0.113112 0.52668,1.271804 1.17038,2.574872 1.14358,2.314926 2.17604,5.087344 2.78485,7.477876 0.16676,0.654843 0.46437,1.547812 0.66135,1.984375 0.19695,0.436562 0.55248,1.627187 0.78999,2.645833 0.23752,1.018646 0.5026,2.149739 0.58907,2.513541 0.0865,0.363802 0.17878,1.018646 0.20516,1.455209 0.0265,0.436562 0.12602,0.972343 0.22145,1.190625 0.0954,0.218281 0.35711,1.408906 0.58148,2.645833 0.22439,1.236927 0.59394,3.141927 0.82127,4.233333 0.61931,2.97362 0.51662,2.184627 1.46354,11.244791 0.19677,1.882886 0.28445,7.767828 0.24836,16.66875 -0.0797,19.649744 -0.0751,24.993621 0.0285,33.205201 0.0505,4.00183 -0.0201,11.80042 -0.15711,17.33021 -0.29528,11.92252 -0.28308,9.66954 -0.11018,20.37292 0.0776,4.80218 0.0711,11.35062 -0.0146,14.55208 -0.0856,3.20146 -0.0704,6.59474 0.0336,7.54062 0.18761,1.7062 0.21574,5.57925 0.17002,23.41563 -0.013,5.09323 0,13.84432 0.0301,19.44687 0.0296,5.60255 -0.0372,12.86537 -0.14856,16.13958 -0.21315,6.26764 -0.31869,58.51216 -0.1315,65.0875 0.0601,2.11005 0.0153,12.46849 -0.0995,23.01875 -0.2956,27.16755 -0.29988,29.78444 -0.0608,37.04167 0.11748,3.56526 0.21347,6.89485 0.21328,7.3991 -1.6e-4,0.50426 0.12668,1.06981 0.28184,1.25677 0.19105,0.23021 0.19579,0.44674 0.0145,0.67069 -0.16116,0.19931 -0.24138,1.96043 -0.20188,4.43177 0.0445,2.78643 -0.0888,5.28841 -0.416,7.80521 -0.26485,2.03729 -0.54827,4.38761 -0.62982,5.22295 -0.14615,1.49693 -0.34478,2.19819 -1.06757,3.76891 -0.20187,0.43873 -0.73974,1.75022 -1.19525,2.91439 -0.45548,1.16416 -0.96721,2.29526 -1.13718,2.51354 -0.41537,0.53348 -1.10646,1.83507 -3.23107,6.08541 -1.34577,2.6923 -8.04092,10.48036 -9.38106,10.91245 -0.38307,0.12354 1.94551,1.32207 3.96875,2.0428 0.85844,0.30578 1.0709,0.26077 2.91041,-0.61667 1.09141,-0.52062 2.28521,-1.21779 2.65288,-1.54934 0.36766,-0.33153 1.26063,-1.13311 1.98437,-1.78128 1.34443,-1.20404 4.09602,-4.59643 4.77846,-5.89127 0.55874,-1.06008 1.57837,-4.5166 2.09012,-7.08544 0.24641,-1.23692 0.61447,-2.96333 0.81791,-3.83645 0.60862,-2.61213 0.99404,-7.11139 1.05394,-12.30313 0.031,-2.69213 0.14465,-5.90682 0.25247,-7.14375 0.31916,-3.66217 0.10287,-13.95089 -0.30726,-14.61447 -0.25456,-0.4119 -0.42013,-10.9887 -0.3573,-22.82407 0.0732,-13.78146 0.0745,-13.13884 -0.03,-14.68437 -0.0443,-0.65485 0.0117,-2.26219 0.12454,-3.57188 0.11279,-1.30968 0.19008,-4.22672 0.1718,-6.48229 -0.0311,-3.83458 -0.0329,-5.54014 -0.007,-7.14375 0.006,-0.3638 0.003,-1.25677 -0.008,-1.98437 -0.0329,-2.3598 0.23143,-15.1094 0.4131,-19.92106 0.23598,-6.25047 0.23431,-8.11292 -0.0206,-22.94144 -0.20495,-11.92318 -0.24014,-32.75261 -0.12782,-75.67083 0.0267,-10.22265 -0.059,-18.79664 -0.19487,-19.48426 -0.13345,-0.6754 -0.15581,-1.38978 -0.0497,-1.5875 0.10613,-0.19772 0.27451,-4.46715 0.3742,-9.48762 0.18048,-9.08822 0.26117,-11.10855 0.54417,-13.62604 0.30803,-2.73994 0.3855,-7.26974 0.53388,-31.22083 0.0838,-13.533433 0.26088,-26.570776 0.39341,-28.97187 0.56467,-10.230812 0.22852,-26.891111 -0.66429,-32.923359 -0.2168,-1.464705 -0.51647,-3.496535 -0.66591,-4.515181 -0.61986,-4.224816 -1.39099,-8.006119 -2.09671,-10.281351 -0.41262,-1.330256 -0.95287,-3.133023 -1.20055,-4.006148 -0.53642,-1.890991 -1.13318,-3.67243 -1.59541,-4.7625 -0.18513,-0.436563 -0.64609,-1.820421 -1.02436,-3.075242 -0.37828,-1.254823 -0.86643,-2.624042 -1.08477,-3.042708 -0.21836,-0.418668 -0.39774,-0.967795 -0.39862,-1.220284 0,-0.252487 -0.43077,-1.740768 -0.95522,-3.3072917 -0.52449,-1.566521 -1.00359,-3.264942 -1.06469,-3.774265 -0.0611,-0.509323 -0.40589,-1.8433364 -0.7662,-2.9644738 -0.36031,-1.1211374 -0.65511,-2.27957847 -0.65511,-2.57431367 0,-0.2947352 -0.17021,-1.4610344 -0.37822,-2.59177623 -0.61397,-3.3371153 -1.20132,-9.0872786 -1.08834,-10.6548526 0.31321,-4.347004 1.65256,-9.872527 2.99437,-12.353552 0.25111,-0.464296 0.95163,-1.847267 1.5567,-3.073267 0.60508,-1.226 1.62251,-3.108309 2.26097,-4.182906 2.49193,-4.194278 3.81249,-7.258386 3.55407,-8.246552 -0.0839,-0.320691 0.0209,-0.753787 0.24111,-0.997169 0.34293,-0.378916 0.3406,-0.687343 -0.0193,-2.584863 -0.43148,-2.274581 -0.33446,-2.805041 1.025,-5.603356 0.65407,-1.346372 3.07879,-0.863688 3.08543,0.614211 0.003,0.317027 0.30774,1.231257 0.6807,2.031622 0.37295,0.800364 1.09701,3.122083 1.60901,5.159375 0.79968,3.182064 0.93265,4.151682 0.9434,6.879166 0.008,2.129689 -0.13976,3.82832 -0.45001,5.159375 -1.29638,5.561848 -1.39538,5.920248 -2.02567,7.334123 -0.71263,1.598538 -0.63469,1.463934 -2.28066,3.939354 -0.76361,1.14839 -1.38869,2.289313 -1.38906,2.535386 0,0.246073 -0.10779,0.513577 -0.23863,0.59445 -0.26146,0.161581 -2.38509,4.49562 -2.92507,5.969603 -0.18659,0.5093229 -0.56637,1.4373331 -0.84394,2.0622445 -0.76137,1.7139681 -0.92142,6.0100049 -0.37876,10.1674238 0.24165,1.8513715 0.54192,3.69684 0.66728,4.101041 0.12536,0.404204 0.43104,1.866009 0.67932,3.2484567 0.24826,1.382447 1.16356,4.716197 2.03401,7.408333 3.08047,9.527312 3.04909,9.424915 3.52904,11.509374 0.80878,3.512479 1.70937,8.446733 1.70937,9.36558 0,0.506725 0.11927,1.583328 0.26506,2.39245 0.50006,2.7754 1.38903,14.965195 1.34218,18.404469 -0.0257,1.891771 -0.1714,7.606771 -0.32359,12.699999 -0.34023,11.384838 -0.45858,19.758906 -0.60388,42.730205 -0.0683,10.80114 -0.22924,18.78499 -0.40717,20.20146 -0.16179,1.28816 -0.29366,2.83597 -0.29303,3.43959 0,0.60362 -0.0474,19.73077 -0.10673,42.50478 -0.0593,22.77401 -0.11782,46.28885 -0.12994,52.25521 -0.0243,11.91252 0.16396,27.53315 0.43831,36.3802 0.097,3.1287 0.17963,6.04573 0.18357,6.48229 0.0132,1.4623 -0.37862,9.77845 -0.50488,10.71563 -0.44267,3.28573 -0.50003,9.96294 -0.16372,19.05 0.20042,5.41448 0.14457,23.54082 -0.11491,37.30625 -0.10755,5.70537 -0.0441,8.10421 0.294,11.1125 0.79357,7.06085 1.45288,23.29465 1.02622,25.2677 -0.20614,0.95327 -0.20006,1.66392 0.0402,4.70215 0.26117,3.3019 -0.66448,9.21234 -2.10196,13.42181 -0.22362,0.65484 -0.59965,1.83835 -0.83563,2.62999 -0.43791,1.46915 -2.12008,4.0749 -4.48643,6.94981 -1.10408,1.34135 -4.0054,3.81402 -6.44602,5.49372 -0.31099,0.21403 -0.56544,0.46297 -0.56544,0.5532 0,0.0902 0.68461,0.3085 1.52135,0.48503 6.98209,1.47294 9.35964,2.51608 10.40498,4.56512 0.75605,1.48198 0.65537,3.01892 -0.29713,4.53586 -0.43788,0.69733 -0.94162,1.31008 -1.11945,1.36162 -0.46085,0.13359 -8.19486,0.74568 -10.24517,0.81085 -0.94588,0.0301 -2.64324,-0.0509 -3.77193,-0.17997 -1.29328,-0.14785 -2.23001,-0.13941 -2.5332,0.0228 -0.88852,0.47554 -3.81314,0.47942 -5.94587,0.008 z m 10.13433,-4.18092 c 7.66445,-0.54189 10.00676,-1.34974 5.18126,-1.78699 -0.88516,-0.0802 -2.14516,-0.3066 -2.80001,-0.50308 -2.02268,-0.6069 -3.34658,-0.92123 -3.88001,-0.92123 -0.65539,0 -4.99054,1.91593 -5.88742,2.60197 l -0.68361,0.52287 0.59859,0.23058 c 0.70332,0.27091 1.93797,0.24709 7.4712,-0.14412 z m -334.452406,-2.58305 c 0.06227,-0.0578 -0.533043,-0.69011 -1.322917,-1.40522 -1.121277,-1.01513 -1.573067,-1.2676 -2.060707,-1.15163 -0.53254,0.12668 -0.59959,0.0699 -0.45501,-0.38568 0.26571,-0.8372 -1.21099,-0.99505 -3.02468,-0.32332 -0.79859,0.29575 -2.97536,0.77075 -4.83726,1.05552 -1.8619,0.2848 -3.64336,0.65593 -3.95881,0.82474 -0.53103,0.28421 -0.47623,0.33329 0.73944,0.66238 2.62489,0.71057 3.77197,0.83529 8.05171,0.87553 2.39662,0.0225 4.41685,0.10036 4.48939,0.17291 0.13756,0.13756 2.181179,-0.14184 2.378844,-0.32523 z M 305.27317,57.825478 c 0.0848,-0.220967 0.0222,-0.925465 -0.13888,-1.565556 -0.16119,-0.640087 -0.3601,-1.917813 -0.44204,-2.839389 -0.082,-0.921575 -0.21098,-1.854184 -0.28676,-2.072465 -0.15557,-0.448196 -0.81357,-4.087937 -1.17189,-6.482291 -0.25358,-1.694585 -0.9211,-4.420389 -1.29583,-5.291667 -0.12517,-0.291042 -0.42116,-1.18401 -0.65772,-1.984375 -1.45767,-4.931391 -5.5575,-13.809717 -7.28628,-15.778707 -0.41302,-0.4704 -0.829,-1.101222 -0.92441,-1.401823 -0.0954,-0.300604 -0.26871,-0.546552 -0.38507,-0.546552 -0.20045,0 -1.58641,-1.896658 -1.86941,-2.558222 -0.15973,-0.373428 -4.53758,-5.798931 -6.74688,-8.3614517 -1.44452,-1.675493 -3.26781,-4.218826 -3.74208,-5.2199091 -0.1034,-0.2182813 -0.44484,-0.8135937 -0.75872,-1.3229166 -0.69387,-1.1258629 -3.10626,-7.2976631 -3.56793,-9.1281247 -0.18349,-0.7276041 -0.53054,-2.3858325 -0.77116,-3.6849529 -0.24063,-1.299117 -0.56165,-2.403414 -0.71339,-2.453986 -0.25162,-0.08388 -2.1621,0.744249 -3.80818,1.650722 -0.3638,0.20034 -1.78437,0.898745 -3.15685,1.5520114 -3.40987,1.6230282 -5.13749,3.0784429 -5.68388,4.7882888 -0.37457,1.1721888 -0.38055,1.533935 -0.0524,3.1749999 0.67794,3.3910215 1.61308,5.2728704 4.50718,9.0702732 1.53042,2.008108 4.96628,5.0366267 8.40517,7.4087087 3.13346,2.161405 5.38597,3.828428 5.46172,4.042103 0.0485,0.136787 0.23982,0.248706 0.42513,0.248706 0.51014,0 8.68198,7.607392 11.36036,10.575675 2.45856,2.724658 7.27472,11.210682 8.34959,14.711873 0.17534,0.571172 0.41844,1.276617 0.54023,1.567659 0.12176,0.291042 0.397,1.243541 0.61166,2.116666 0.21463,0.873125 0.65479,2.420938 0.97814,3.439584 0.32332,1.018645 0.74599,2.626545 0.93927,3.57311 0.19325,0.946565 0.47567,2.047894 0.62754,2.447396 0.29948,0.787667 1.00592,0.970568 1.25381,0.324612 z m -349.2953,-4.347604 c 0.22202,-0.429337 0.40367,-1.128742 0.40367,-1.554234 0,-0.425495 0.17987,-1.283417 0.3997,-1.906495 0.21984,-0.62308 0.34362,-1.188953 0.27508,-1.257498 -0.0686,-0.06854 0.0306,-0.496454 0.22024,-0.950915 0.18967,-0.454459 0.42623,-1.260809 0.52567,-1.791891 0.0995,-0.53108 0.3554,-1.110496 0.56879,-1.287592 0.21339,-0.177094 0.51877,-0.814136 0.67862,-1.415648 0.15986,-0.601512 0.61662,-1.808033 1.01502,-2.681158 0.39841,-0.873125 1.12411,-2.480468 1.61268,-3.571874 0.48856,-1.091407 1.04469,-2.172343 1.23583,-2.402084 0.19115,-0.22974 0.34921,-0.586927 0.35126,-0.79375 0.0189,-1.905717 7.855389,-12.253382 9.534025,-12.58911 0.41575,-0.08315 0.790776,-0.363429 0.86474,-0.646273 0.07183,-0.274696 0.350272,-0.577319 0.61875,-0.6725 0.268478,-0.09518 0.726265,-0.383791 1.017307,-0.641358 0.291041,-0.257569 1.082368,-0.864907 1.758503,-1.349637 0.676137,-0.484732 1.866762,-1.360093 2.645833,-1.945248 0.779073,-0.585155 1.892747,-1.29953 2.47483,-1.5875 0.582084,-0.28797 1.448597,-0.850273 1.925585,-1.249561 0.902385,-0.755388 2.755892,-1.787562 3.209986,-1.787562 0.144023,0 0.791112,-0.357187 1.437973,-0.79375 0.646864,-0.436562 1.2811145,-0.7937497 1.4094485,-0.7937497 0.243459,0 2.553396,-1.617593 3.923257,-2.747364 0.436563,-0.360045 1.180479,-0.971137 1.653143,-1.357982 1.323594,-1.0832597 3.89822302,-4.3850558 4.87574502,-6.25282617 C 1.3728165,-2.0004148 1.5054415,-2.5412072 1.5840445,-4.5068972 c 0.104574,-2.6152316 -0.265586,-3.6259293 -2.17007798,-5.9252408 -1.55086302,-1.872374 -2.07109502,-2.2632 -5.19700702,-3.904278 -1.527969,-0.802172 -3.485496,-1.888977 -4.3500595,-2.415128 -0.864565,-0.52615 -1.771721,-0.956635 -2.015902,-0.956635 -0.463479,0 -0.769057,1.12278 -0.774875,2.847107 -0.0049,1.451155 -3.312806,10.6363211 -3.978743,11.0478937 -0.141626,0.087529 -0.257503,0.3247443 -0.257503,0.5271399 0,0.4838462 -1.519897,2.78279483 -2.224823,3.36520363 -0.304316,0.2514255 -0.458552,0.4597849 -0.342744,0.4630208 0.115805,0.00323 -0.181851,0.51712807 -0.661459,1.14198127 -0.860933,1.121656 -1.322369,1.6323283 -4.179308,4.625255 -0.800364,0.838459 -2.169583,2.465086 -3.042708,3.614724 -0.873125,1.1496387 -2.785644,3.4096247 -4.250042,5.0221907 -2.619333,2.884355 -3.947793,4.680537 -5.201643,7.032982 -0.34903,0.654844 -0.76926,1.42875 -0.93386,1.719792 -1.69654,2.999859 -4.19181,10.099283 -5.48667,15.610416 -0.34191,1.455208 -0.76302,3.122083 -0.93582,3.704166 -0.17279,0.582084 -0.30074,1.45515 -0.28432,1.940145 0.0164,0.484997 -0.14944,1.573747 -0.36858,2.419442 -0.42693,1.647555 -0.49405,3.272803 -0.22699,5.496142 0.19124,1.592223 0.65417,1.812801 1.27696,0.608452 z M 200.19508,-0.92465597 c 1.45521,-0.06273 5.26521,-0.16685693 8.46667,-0.23139403 5.5354,-0.1115854 12.96593,-0.7457466 18.81936,-1.6061425 1.47389,-0.2166488 3.42559,-0.3939037 4.33711,-0.3939037 1.66714,0 3.5144,-0.4491143 7.66749,-1.8641509 1.23693,-0.4214442 2.96333,-0.9393978 3.83646,-1.1510062 3.28118,-0.7952211 4.09167,-1.0279724 8.99583,-2.5832779 2.7649,-0.8768608 6.03912,-2.0066788 7.27604,-2.5107048 3.24316,-1.321525 13.218,-6.325833 16.00729,-8.030729 1.30969,-0.800521 2.67891,-1.608722 3.04271,-1.796005 0.67165,-0.345752 4.99269,-3.510446 6.53066,-4.782981 0.46315,-0.383222 1.35522,-1.113488 1.98239,-1.622811 0.62717,-0.509323 1.67698,-1.410975 2.33291,-2.003674 0.65593,-0.592698 1.63417,-1.34352 2.17387,-1.668491 0.88149,-0.53076 6.5413,-6.30392 9.89521,-10.093381 1.67177,-1.888855 6.7183,-9.766053 6.7183,-10.486664 0,-0.364453 1.48984,-4.96878 1.78884,-5.528395 0.15111,-0.282802 0.34034,-1.109498 0.42051,-1.837102 0.0802,-0.727604 0.2803,-1.703933 0.44471,-2.169621 0.47239,-1.33805 -0.23627,-9.463089 -1.07768,-12.355594 -0.31263,-1.074793 -2.13418,-4.833381 -2.89811,-5.979993 -0.24238,-0.363802 -0.72877,-1.092168 -1.08085,-1.618588 -1.50521,-2.250588 -3.8835,-4.622088 -10.93716,-10.906 -1.00671,-0.89684 -1.95921,-1.779982 -2.11667,-1.962539 -0.15748,-0.182555 -1.29383,-1.194586 -2.52526,-2.248959 -1.23142,-1.054369 -2.43702,-2.095632 -2.67912,-2.313913 -1.53389,-1.383034 -2.47734,-2.116664 -2.722,-2.116664 -0.27006,0 -0.73234,-0.41704 -3.64382,-3.28726 -0.72691,-0.71659 -1.60851,-1.86903 -1.95916,-2.56097 -0.35062,-0.69194 -0.75882,-1.33306 -0.90712,-1.42471 -0.14828,-0.0916 -0.26961,-0.33949 -0.26961,-0.55077 0,-0.21128 -0.2235,-0.88886 -0.49665,-1.50574 -1.22809,-2.77346 -1.43029,-3.65774 -1.27096,-5.55838 0.16696,-1.9913 1.42082,-4.99908 2.61747,-6.27884 0.84196,-0.90044 3.62916,-3.23957 4.4418,-3.72774 1.08363,-0.65096 4.16685,-1.75115 7.39037,-2.63713 1.6636,-0.45724 3.64464,-1.12487 4.40232,-1.48361 1.16944,-0.5537 1.44582,-0.83085 1.82896,-1.83417 0.44929,-1.17638 0.44826,-1.18602 -0.22018,-2.06239 -0.76444,-1.0022 -2.14707,-1.74677 -3.25499,-1.75284 -0.41457,-0.002 -1.46814,-0.17549 -2.34127,-0.38492 -0.91556,-0.21962 -4.59777,-0.51824 -8.69955,-0.70553 -6.92044,-0.316 -7.12227,-0.31097 -7.49123,0.18648 -0.20854,0.28117 -0.31932,0.80888 -0.24617,1.17268 0.36547,1.81748 0.49115,2.29372 0.74261,2.81388 0.18965,0.39229 0.18357,0.98244 -0.0198,1.93125 -0.16116,0.75149 -0.29303,1.78093 -0.29303,2.28766 0,0.57487 -0.14923,0.97859 -0.39688,1.07361 -0.21828,0.0838 -0.39687,0.44836 -0.39687,0.81022 0,0.40297 -0.17941,0.70597 -0.46302,0.78191 -0.25466,0.0682 -1.17531,0.94719 -2.04587,1.95334 -1.23705,1.42973 -1.98842,2.02597 -3.43958,2.7294 -1.02121,0.49502 -2.14537,1.21221 -2.49817,1.59376 -0.35279,0.38155 -0.78557,0.69372 -0.96176,0.69372 -0.17618,0 -0.51535,0.29766 -0.75372,0.66146 -0.23839,0.3638 -0.5978,0.66146 -0.79869,0.66146 -0.39638,0 -1.84256,1.17399 -3.2593,2.64583 -1.30834,1.35925 -2.55857,3.35643 -3.22974,5.15938 -0.32504,0.87312 -0.8408,2.06375 -1.14613,2.64583 -0.78824,1.50264 -0.72569,3.7815 0.22024,8.02428 0.0755,0.338773 0.38222,0.874554 0.68154,1.190625 0.29933,0.316074 0.79172,1.09568 1.09421,1.732455 1.08972,2.293969 3.09126,4.054043 7.84236,6.896237 2.44033,1.459852 4.91715,2.823689 5.50402,3.030752 0.58687,0.207063 1.29114,0.500081 1.56501,0.65115 0.2739,0.151072 1.19923,0.523639 2.05629,0.827931 0.85707,0.304292 2.54662,1.024957 3.75454,1.601478 1.20793,0.576519 2.31535,1.048219 2.46095,1.048219 0.26921,0 2.80797,1.154776 7.57203,3.444229 1.45521,0.699325 3.36021,1.83052 4.23333,2.513769 0.87313,0.683247 2.71859,2.000266 4.10104,2.926712 4.0426,2.70913 5.04174,3.564284 7.09581,6.073111 3.64048,4.446468 4.72324,7.845036 3.49541,10.971344 -0.56467,1.437817 -1.25934,2.305767 -2.28454,2.854439 -0.79082,0.423233 -3.62384,-0.430014 -5.52855,-1.665089 -2.22131,-1.440318 -5.74636,-3.5706 -5.90847,-3.5706 -0.0744,0 -0.32334,-0.167679 -0.55308,-0.37262 -0.22974,-0.204941 -2.67989,-1.530189 -5.44478,-2.944993 -2.7649,-1.414806 -5.92005,-3.178137 -7.01146,-3.918513 -1.09141,-0.740378 -2.66928,-1.806419 -3.50634,-2.368981 -0.83709,-0.56256 -1.67052,-1.221161 -1.85208,-1.463553 -0.18158,-0.242393 -0.66675,-0.614596 -1.0782,-0.827117 -0.41146,-0.212521 -0.8631,-0.601289 -1.00368,-0.863931 -0.14054,-0.262641 -0.76409,-0.716563 -1.38559,-1.008716 -1.2083,-0.56796 -3.02564,-2.102572 -7.78772,-6.576081 -2.56045,-2.405324 -3.84027,-3.766957 -7.73589,-8.230494 -2.83123,-3.24396 -5.28841,-8.828417 -6.15619,-13.991103 -0.44447,-2.64446 0.51422,-7.55178 2.05113,-10.49905 0.22302,-0.42766 0.40621,-0.94142 0.40709,-1.1417 0,-0.20028 0.37523,-1.09325 0.83182,-1.98438 0.45662,-0.89112 1.289,-2.52128 1.84975,-3.62256 2.13133,-4.18572 2.62454,-6.8882 1.61452,-8.84643 -0.73867,-1.43212 -2.35122,-2.90864 -3.6181,-3.31292 -1.56649,-0.49989 -4.68598,-0.3767 -6.5183,0.25741 -0.86267,0.29855 -1.78792,0.54282 -2.05613,0.54282 -0.26818,0 -0.75642,0.23312 -1.08495,0.51805 -0.32853,0.28493 -2.41231,1.42016 -4.63066,2.52272 -2.21832,1.10257 -4.28448,2.23866 -4.59147,2.52465 -0.30697,0.286 -0.66366,0.51999 -0.79261,0.51999 -0.12899,0 -0.58045,0.30397 -1.00328,0.67548 -0.4228,0.37151 -1.12593,0.84987 -1.56249,1.06302 -0.43657,0.21315 -1.09141,0.55508 -1.45521,0.75985 -0.36381,0.20476 -1.43537,0.68499 -2.38125,1.06717 -0.94589,0.38218 -1.92654,0.80784 -2.17922,0.94592 -0.59759,0.32655 -2.58328,0.32567 -2.58328,-0.001 0,-0.13871 -0.50602,-0.48847 -1.12448,-0.77724 -0.61847,-0.28877 -1.5412,-0.76068 -2.05052,-1.04868 -0.7651,-0.43263 -4.61958,-2.2758 -6.74688,-3.22628 -0.29104,-0.13003 -1.30307,-0.49377 -2.24896,-0.8083 -0.94588,-0.31453 -2.43416,-0.8962 -3.30729,-1.2926 -2.19689,-0.99738 -6.09161,-2.14569 -11.24479,-3.31538 -2.40109,-0.54501 -4.90141,-1.16261 -5.55625,-1.37245 -1.26966,-0.40685 -5.42859,-1.33991 -6.74687,-1.51367 -0.43657,-0.0575 -1.86532,-0.28586 -3.175,-0.50737 -1.30969,-0.22151 -3.27422,-0.47677 -4.36563,-0.56724 -1.09141,-0.0905 -2.49903,-0.27942 -3.12804,-0.41988 -0.62965,-0.1406 -2.05665,-0.17193 -3.175,-0.0697 -1.11724,0.10213 -2.26946,0.16119 -2.5605,0.13123 -1.35374,-0.13931 -12.12448,-0.0773 -12.72437,0.0733 -1.07334,0.2694 -8.78062,0.93699 -10.85724,0.94044 -1.03718,0.002 -2.70405,0.17364 -3.70416,0.38205 -5.67159,1.18183 -8.72058,1.59945 -8.95135,1.22606 -0.10209,-0.16519 -0.39593,-0.17283 -0.79604,-0.0207 -0.40162,0.15269 -0.95615,0.13699 -1.51199,-0.0428 -0.48277,-0.15616 -1.53261,-0.37883 -2.33298,-0.49482 -0.80036,-0.11599 -2.04124,-0.33963 -2.7575,-0.49698 -1.60981,-0.35373 -6.16942,-0.78098 -10.20708,-0.95652 -1.67349,-0.0727 -3.3999,-0.18794 -3.83646,-0.25597 -0.43656,-0.068 -1.32953,-0.14616 -1.98437,-0.17364 -0.65485,-0.0275 -1.33026,-0.15513 -1.50092,-0.28367 -0.17066,-0.12855 -1.65894,-0.28133 -3.30729,-0.33952 -1.64835,-0.0582 -4.723408,-0.18726 -6.83346,-0.28682 -2.110052,-0.0996 -4.37224,-0.2027 -5.027083,-0.22919 -0.654844,-0.0265 -2.202657,0.0451 -3.439584,0.15907 -1.236927,0.11398 -3.380052,0.27817 -4.7625,0.36486 -1.382448,0.0867 -2.93026,0.26424 -3.439583,0.39454 -0.509323,0.1303 -1.699948,0.29813 -2.645834,0.37296 -3.022491,0.23912 -15.631033,3.69055 -16.142234,4.41874 -0.07422,0.10572 -0.461449,0.27417 -0.860518,0.37433 -0.399066,0.10016 -1.167188,0.40726 -1.706938,0.68244 -0.53975,0.27517 -1.253845,0.50032 -1.586878,0.50032 -0.333034,0 -0.605515,0.1168 -0.605515,0.25955 0,0.14274 -0.327422,0.33566 -0.727604,0.4287 -0.400182,0.093 -2.45401,0.99118 -4.564062,1.99588 -3.590081,1.70941 -4.601591,2.21162 -7.276042,3.61252 -1.292897,0.67724 -2.917013,1.37627 -3.197595,1.37627 -0.113967,0 -0.691285,0.23398 -1.282933,0.51996 -0.891117,0.43073 -1.404911,0.49225 -2.993951,0.3585 -1.055026,-0.0888 -1.918229,-0.26326 -1.918229,-0.38767 0,-0.12442 -0.16859,-0.22621 -0.374642,-0.22621 -0.618514,0 -2.08492,-2.05321 -1.919148,-2.68713 0.289312,-1.10632 -3.19397,-5.05111 -6.388343,-7.23474 -5.462458,-3.73406 -7.936894,-4.65391 -12.582009,-4.67724 -2.6813625,-0.0135 -3.1255635,0.0542 -4.4423045,0.67717 -2.098363,0.99269 -2.466734,1.48938 -2.443988,3.29537 0.0231,1.83381 1.042546,3.98056 3.298513,6.94599 1.7084355,2.2457 3.8507835,6.53075 5.0732245,10.14728 0.687985,2.03538 0.813998,2.81581 0.835578,5.17497 0.02477,2.70687 -0.05264,3.48193 -0.620943,6.21771 -0.547129,2.633876 -3.747124,9.494175 -5.5059665,11.803947 -1.227214,1.611622 -3.74396,4.694558 -4.440907,5.439971 -0.285602,0.305464 -0.99542,1.134449 -1.577379,1.842193 -1.284727,1.562407 -4.386943,4.9179 -4.788911,5.179894 -0.159922,0.104235 -0.874297,0.678172 -1.5875,1.275418 -0.713203,0.597244 -1.843749,1.367914 -2.512322,1.712598 -0.668573,0.34468 -1.40207,0.911301 -1.629992,1.259154 -0.22792,0.347856 -0.990595,0.923521 -1.694828,1.279258 -0.7042335,0.355738 -2.4710495,1.258792 -3.9262575,2.006788 -1.455209,0.747995 -3.776927,1.859796 -5.159375,2.470668 -1.382448,0.610873 -2.692136,1.215017 -2.910417,1.342546 -1.431282,0.836219 -1.987444,1.074336 -3.319931,1.421406 -0.822026,0.214108 -2.039083,0.749945 -2.704568,1.190744 -0.665485,0.440801 -1.397921,0.801899 -1.627632,0.802444 -0.229714,5.29e-4 -0.783037,0.223798 -1.229609,0.496117 -0.446571,0.272323 -1.094888,0.584933 -1.440701,0.69469 -0.345813,0.109757 -1.18423,0.541346 -1.863149,0.959088 -0.67891,0.417743 -1.43576,0.759532 -1.68188,0.759532 -0.24612,0 -0.94732,0.258516 -1.55824,0.574479 -1.80866,0.93544 -2.00473,1.013021 -2.56013,1.013021 -0.29178,0 -0.67922,0.238125 -0.86098,0.529166 -0.54206,0.867979 -1.86014,0.703236 -2.6461,-0.330729 -1.09055,-1.434647 -1.57884,-2.596165 -1.91312,-4.550793 -0.38439,-2.24763 0.0242,-4.514422 1.05816,-5.869961 0.35863,-0.470181 0.65205,-0.96107 0.65205,-1.090867 0,-0.244485 1.47315,-2.197145 3.30136,-4.375954 2.60135,-3.100197 9.400753,-7.554462 15.069795,-9.872162 2.531483,-1.03496 2.56798,-1.050745 4.443587,-1.922052 0.979205,-0.454885 1.866109,-0.827064 1.970897,-0.827064 0.414563,0 14.6117385,-5.275691 15.6769165,-5.825564 0.228561,-0.117991 1.070409,-0.519239 1.870774,-0.891664 3.632417,-1.69024 5.468559,-2.876595 7.108563,-4.592934 2.209363,-2.312207 2.789772,-3.285948 3.192367,-5.355818 0.8947055,-4.59992 0.462653,-7.87332 -1.411954,-10.69753 -1.059611,-1.59637 -3.858683,-4.64974 -4.265816,-4.65337 -0.141645,-10e-4 -0.674254,-0.39085 -1.183577,-0.86574 -1.303462,-1.21536 -4.106434,-2.90823 -6.615946,-3.99574 -3.781496,-1.63873 -8.2457285,-5.299 -9.1849305,-7.53082 -0.514112,-1.22168 -0.468513,-3.97418 0.09426,-5.68982 0.629785,-1.91992 0.496908,-1.98136 -4.401717,-2.03545 -8.10618,-0.0895 -14.378517,0.86935 -14.920172,2.28088 -0.468177,1.22005 -0.18049,1.87632 1.227984,2.80127 0.763985,0.50171 1.767462,1.06525 2.229946,1.25231 0.462486,0.18706 0.898832,0.49111 0.969655,0.67567 0.07082,0.18456 0.674691,0.47303 1.341927,0.64104 0.667237,0.16802 1.21316,0.39472 1.21316,0.50379 0,0.10907 0.595312,0.48095 1.322917,0.82639 0.727604,0.34545 1.322916,0.79027 1.322916,0.98851 0,0.44984 0.315712,0.46195 0.773907,0.0297 0.273272,-0.2578 0.376682,-0.25969 0.468981,-0.009 0.06512,0.17718 1.032505,0.96381 2.14974,1.74806 1.921171,1.34859 6.445419,5.9072 7.092913,7.1468 0.164497,0.31491 0.428641,1.18605 0.586989,1.93584 0.372843,1.76546 -0.156157,4.73037 -1.092232,6.12165 -0.363291,0.53996 -0.822714,1.2977 -1.020935,1.68385 -0.307914,0.59985 -1.377423,1.9015 -4.314536,5.25103 -0.319011,0.3638 -0.929053,0.9227 -1.355651,1.24201 -3.699372,2.76895 -4.797279,3.520481 -5.143029,3.520481 -0.22011,0 -1.040977,0.595312 -1.824151,1.322916 -0.783178,0.727604 -1.538751,1.322917 -1.679054,1.322917 -0.140301,0 -0.608838,0.297656 -1.041194,0.661458 -0.432353,0.363802 -0.939186,0.661459 -1.126291,0.661459 -0.187106,0 -0.796473,0.362606 -1.354148,0.805788 -0.557676,0.443185 -1.392338,0.985345 -1.854801,1.204801 -1.88054,0.892374 -7.45891,6.895166 -10.54832,11.350868 -1.21631,1.754217 -3.24356,5.818918 -3.56292,7.14375 -0.14031,0.582083 -0.45432,1.772708 -0.69779,2.645833 -0.35714,1.280737 -0.40985,2.221685 -0.2728,4.869402 0.0934,1.805043 0.22645,3.373414 0.29557,3.485264 0.0691,0.111852 0.24061,0.809321 0.38106,1.549929 0.22401,1.1812 1.16785,3.61053 1.85703,4.77978 0.12866,0.218281 0.72755,1.349375 1.33087,2.513541 0.60332,1.164167 1.31853,2.356416 1.58936,2.649445 0.27084,0.293026 0.69005,1.007401 0.9316,1.5875 0.24154,0.580096 0.90863,1.590503 1.48242,2.245347 0.57379,0.654843 1.19777,1.369218 1.38663,1.5875 0.18885,0.218281 0.56638,0.754062 0.83896,1.190625 0.27257,0.436562 0.64726,0.888962 0.83266,1.005334 0.18539,0.116372 0.33708,0.332417 0.33708,0.480102 0,0.147686 0.35719,0.569072 0.79375,0.936414 0.43656,0.367345 0.79381,0.865674 0.79388,1.107397 7e-5,0.241726 0.59538,0.952125 1.32292,1.578661 0.72753,0.626538 1.322782,1.2573 1.322782,1.401696 0,0.225383 0.390769,0.630084 1.719792,1.781119 0.145521,0.126032 0.621104,0.66366 1.056852,1.194732 0.435747,0.531074 0.901231,0.965586 1.034409,0.965586 0.133181,0 0.922647,0.625078 1.754373,1.389062 3.184792,2.9254 8.291687,6.843308 11.103324,8.51825 0.945886,0.56348 1.898386,1.166897 2.116667,1.340924 0.218281,0.174027 1.051719,0.659524 1.852083,1.078883 0.800365,0.419357 2.050521,1.133713 2.7781245,1.587455 1.199222,0.747845 7.906832,4.087749 14.022917,6.982392 1.309687,0.619852 3.631406,1.456385 5.159375,1.858962 1.5279695,0.402574 4.6831255,1.387658 7.0114585,2.189078 2.328334,0.8014173 5.48349,1.7730228 7.011459,2.1591266 1.527968,0.3861038 3.373437,0.8699738 4.101041,1.0752719 0.727605,0.2052955 1.977761,0.5144744 2.778125,0.6870594 0.800365,0.1725877 2.229115,0.5258409 3.175,0.7850082 0.945886,0.2591673 2.574698,0.5990272 3.619582,0.7552425 1.044888,0.1562153 2.235513,0.4153244 2.645834,0.5757968 0.410323,0.1604698 1.400886,0.3343963 2.201251,0.386498 0.800365,0.052104 2.705365,0.2164477 4.233333,0.3652097 5.856531,0.5701876 8.999173,0.8021796 12.832292,0.9472903 5.973881,0.2261499 8.638238,0.360291 12.567708,0.6327325 1.964531,0.1362075 5.655469,0.2562013 8.202084,0.2666523 8.29746,0.034057 15.610083,0.3414237 15.614467,0.6563175 0.0024,0.1711431 0.09348,0.1499394 0.221274,-0.051501 0.159454,-0.2513516 1.44255,-0.3719486 4.824593,-0.4534615 4.39566,-0.1056345 9.80756,-0.2920229 15.85213,-0.5456445 12.03733,-0.5050684 15.90018,-0.6742536 16.93333,-0.7416509 0.65484,-0.042717 2.32172,0.068165 3.70417,0.2464038 1.38244,0.1782392 3.40651,0.4037092 4.49791,0.5010414 1.09141,0.097335 3.23453,0.2949231 4.7625,0.4390893 1.52797,0.1441635 6.05235,0.3108801 10.05417,0.3704802 17.06003,0.2540767 24.1196,0.4329297 25.44457,0.6446334 0.77585,0.12396793 4.44198,0.24255943 8.14695,0.26353563 3.70497,0.020981 6.79437,0.096205 6.86534,0.1671743 0.071,0.070969 0.31385,0.057758 0.53974,-0.029361 0.22588,-0.087122 1.60132,-0.2097246 3.05652,-0.2724518 z M 304.37393,-71.29153 c -0.76058,-0.512199 -1.57621,-1.226355 -1.81253,-1.587011 -1.3221,-2.017768 -7.84114,-5.803569 -12.93715,-7.512965 -1.45521,-0.488135 -3.47927,-1.276689 -4.49792,-1.752341 -1.01864,-0.475654 -2.56645,-1.175996 -3.43958,-1.556313 -0.87312,-0.380317 -1.88515,-0.873805 -2.24896,-1.096634 -0.3638,-0.222833 -1.16652,-0.633011 -1.78384,-0.911511 -0.61733,-0.278498 -2.34374,-1.264428 -3.83646,-2.190959 -1.49273,-0.926529 -3.30938,-2.022184 -4.03699,-2.434788 -0.7276,-0.412605 -1.38245,-0.826315 -1.45521,-0.919353 -0.0728,-0.09304 -0.57885,-0.440534 -1.12466,-0.772211 -0.54584,-0.331673 -1.14115,-0.801639 -1.32292,-1.044366 -0.18179,-0.242726 -1.01938,-1.01969 -1.86132,-1.726591 -1.81072,-1.520343 -3.62468,-4.19749 -4.28804,-6.328587 -0.37375,-1.20068 -0.44448,-2.05178 -0.32981,-3.96875 0.16053,-2.68364 0.66186,-4.26211 1.86754,-5.87989 0.92697,-1.24386 4.6696,-4.8948 5.01769,-4.8948 0.13203,0 0.55607,-0.22001 0.94234,-0.48892 1.28664,-0.89571 3.63667,-1.42634 4.73924,-1.0701 1.20999,0.39095 1.74654,1.39561 1.35139,2.53044 -0.32732,0.94004 -0.26914,4.36296 0.0959,5.64317 0.45207,1.58534 2.66401,5.25996 4.30535,7.15234 0.72761,0.83889 1.89897,2.195636 2.60303,3.014998 1.36969,1.593984 3.35044,3.328169 7.42576,6.501412 3.65742,2.847817 6.20247,4.934895 7.02752,5.762874 0.39426,0.395679 1.51017,1.477642 2.47976,2.404358 0.96959,0.926719 1.76289,1.785284 1.76289,1.907924 0,0.12264 0.21931,0.435978 0.48736,0.696307 0.26805,0.260331 1.11332,1.28883 1.87836,2.285555 0.76507,0.996725 1.60157,2.022779 1.85891,2.280118 2.48878,2.488764 4.31392,6.887863 2.85774,6.887863 -0.18841,0 -0.96483,-0.41907 -1.7254,-0.931269 z m -347.80607,-5.160288 c -0.0894,-0.342043 0.0603,-0.985078 0.35933,-1.543 0.28198,-0.52611 0.51269,-1.100973 0.51269,-1.277474 0,-0.793493 3.8677,-4.872818 6.48229,-6.836971 0.7276,-0.546597 1.51923,-1.185508 1.75916,-1.419801 0.23993,-0.234292 0.94991,-0.842706 1.577718,-1.352029 0.627809,-0.509323 1.383999,-1.178608 1.680419,-1.487297 0.757365,-0.78871 2.431013,-2.041207 6.100059,-4.565065 10.633464,-7.314525 13.586169,-9.632125 15.7729315,-12.380265 1.480439,-1.8605 1.770949,-2.78274 1.80123,-5.71815 0.01238,-1.20093 -0.1583,-1.87373 -0.795705,-3.13643 -0.446312,-0.88414 -0.754171,-1.75686 -0.684131,-1.93938 0.289486,-0.75439 4.042971,-0.93234 5.646733,-0.26771 2.31928202,0.96116 6.096243,4.57261 6.910662,6.60784 0.597543,1.49325 0.887984,2.25919 1.0033,2.64583 0.0434,0.14552 0.275424,0.80036 0.515607,1.45521 0.309949,0.84506 0.400582,1.71324 0.312272,2.9913 -0.103838,1.50279 -0.270132,2.00612 -1.005284,3.0427 -1.009677,1.42367 -1.693495,2.087984 -2.37044,2.302839 -0.260739,0.08275 -0.663866,0.440126 -0.895836,0.79416 -0.57466698,0.877054 -3.103021,2.711966 -4.029898,2.924638 -1.626508,0.373203 -3.054014,0.934334 -4.129104,1.623092 -1.090647,0.698727 -4.8794925,2.460855 -5.2912165,2.460855 -0.11222,0 -0.708755,0.223041 -1.325633,0.495644 -0.616876,0.272605 -1.657377,0.635301 -2.312221,0.805994 -1.619871,0.422241 -5.332613,1.867059 -5.820833,2.265188 -0.461836,0.376613 -4.319614,1.989423 -4.758624,1.989423 -0.522557,0 -4.954987,2.044272 -5.163322,2.381364 -0.07441,0.120404 -0.940621,0.534871 -1.924904,0.921044 -1.1983,0.470135 -2.51773,1.308169 -3.99328,2.536319 -1.21202,1.008804 -2.311,1.83419 -2.44219,1.83419 -0.13118,0 -0.23851,0.109902 -0.23851,0.244231 0,0.471533 -1.66255,1.900674 -2.37742,2.043647 -0.58666,0.117332 -0.75133,0.03424 -0.87585,-0.441936 z M 156.72523,420.99547 c -0.62508,-0.10756 -1.3569,-0.42498 -1.62626,-0.70536 -0.62613,-0.65174 -1.00296,-2.94044 -1.03298,-6.27398 -0.013,-1.4459 -0.0803,-2.82403 -0.14943,-3.06255 -0.0692,-0.2385 0.0758,-0.84347 0.32222,-1.34435 0.36852,-0.74919 0.68261,-0.97301 1.77089,-1.26188 0.75705,-0.20097 1.83219,-0.28355 2.51354,-0.19306 1.37448,0.18253 3.29991,1.2134 3.71497,1.98895 0.15682,0.29302 0.36737,2.34312 0.46789,4.55578 0.25332,5.57615 -0.0179,6.08579 -3.38911,6.36955 -0.80037,0.0674 -1.96664,0.0345 -2.59173,-0.0731 z m 3.25182,-2.04497 c 0.76837,-0.29485 0.95109,-1.30238 0.52963,-2.92047 -0.52747,-2.02509 -0.97762,-2.4674 -2.51117,-2.4674 -1.07142,0 -1.28107,0.0914 -1.5465,0.67392 -0.63629,1.3965 -0.0391,3.97643 1.0527,4.54772 0.68213,0.35689 1.78537,0.431 2.47534,0.16623 z m 0.13897,-7.90781 c 0.18407,-0.2218 0.28398,-0.45395 0.22202,-0.51591 -0.26854,-0.26855 -3.56619,-0.4086 -3.92383,-0.16664 -0.54896,0.37137 -0.30817,0.51332 1.33243,0.78545 2.04373,0.33898 2.00112,0.34083 2.36938,-0.1029 z m -56.69211,8.95218 c -0.58567,-0.15307 -0.65531,-0.51893 -0.89704,-4.71244 -0.25592,-4.43995 -0.22232,-5.61833 0.18173,-6.37331 0.29506,-0.55132 0.54536,-0.62548 2.34176,-0.69387 4.37167,-0.16643 6.45042,0.9662 6.01201,3.27575 -0.25698,1.35379 -1.43073,1.98922 -4.00062,2.16583 -1.16417,0.08 -2.15946,0.15107 -2.21176,0.15793 -0.0523,0.007 -0.0166,0.45894 0.0794,1.00464 0.38767,2.20388 0.29059,4.23249 -0.23009,4.80783 -0.27375,0.3025 -0.56857,0.53618 -0.65516,0.5193 -0.0866,-0.0169 -0.36571,-0.0851 -0.62027,-0.15166 z m 4.69898,-8.65053 c 0.2612,-0.191 0.40008,-0.46834 0.30862,-0.61632 -0.43922,-0.7107 -4.28018,-0.54128 -4.28018,0.18878 0,0.23188 0.1933,0.36436 0.46499,0.31869 0.25574,-0.043 0.65369,0.0274 0.88433,0.15648 0.6498,0.36364 2.09571,0.33739 2.62224,-0.0476 z m 174.22532,3.02689 c -2.03943,-0.13343 -2.25647,-0.19974 -2.32947,-0.71165 -0.0646,-0.45286 0.26628,-0.75843 1.67307,-1.54517 1.90084,-1.06302 2.50727,-1.08215 3.85611,-0.12168 0.39513,0.28136 0.84085,0.51157 0.9905,0.51157 0.14962,0 0.35419,0.25882 0.4546,0.57515 0.20064,0.63222 -0.42246,1.27693 -1.23415,1.27693 -0.25132,0 -0.61552,0.0364 -0.80933,0.081 -0.19381,0.0445 -1.3644,0.0148 -2.60133,-0.0661 z m -298.979167,-1.1964 c -0.509323,-0.1983 -1.253463,-0.43256 -1.653646,-0.52056 -0.866161,-0.19053 -0.966403,-0.91017 -0.220773,-1.58496 0.278754,-0.25228 1.228907,-0.68342 2.111446,-0.95809 l 1.604619,-0.49942 1.59272,1.05791 c 1.987706,1.32029 2.143707,2.06295 0.538552,2.56391 -1.346584,0.42027 -2.797591,0.39881 -3.972918,-0.0588 z M 315.44417,-76.285617 c -0.16848,-0.20301 -0.4123,-1.006682 -0.54181,-1.785938 -0.22246,-1.338424 -0.55729,-2.306111 -1.54305,-4.459538 -0.70755,-1.545643 -2.2315,-3.451257 -5.58596,-6.984984 -3.40842,-3.590533 -4.02403,-4.463362 -5.3425,-7.574888 -0.7221,-1.704081 -0.8419,-2.312072 -0.86897,-4.410005 -0.0212,-1.63116 0.0777,-2.54271 0.29935,-2.7649 0.1819,-0.18231 0.3315,-0.51602 0.33245,-0.74158 0.003,-0.68107 2.07312,-2.87833 3.79934,-4.03237 0.8926,-0.59673 2.87475,-1.71907 4.40481,-2.49408 2.0633,-1.04512 3.0372,-1.71454 3.77031,-2.59156 1.01788,-1.21771 1.28447,-2.39956 0.67807,-3.00596 -0.46376,-0.46377 0.14785,-1.64759 0.85122,-1.64759 0.88464,0 1.49672,0.45189 2.42451,1.7899 0.87212,1.25776 1.38705,2.39517 1.77953,3.93072 0.25572,1.00054 -0.0997,7.38988 -0.46212,8.30785 -0.14242,0.36075 -0.41415,1.17611 -0.60385,1.81192 -0.40783,1.36699 -2.94167,4.309357 -4.63894,5.386904 -2.59202,1.645589 -2.60036,3.680124 -0.0361,8.817895 1.72595,3.458094 3.09422,6.887763 3.65461,9.160571 0.392,1.589847 -0.0274,3.04565 -0.9819,3.408566 -0.8655,0.329062 -1.02724,0.314981 -1.38901,-0.120933 z m -370.96884,-3.731842 c -1.25464,-3.299952 -0.8299,-7.055972 1.35073,-11.944622 0.45432,-1.01853 1.18682,-2.157987 3.54405,-5.513075 1.20039,-1.708542 1.28725,-3.371454 0.24104,-4.614804 -0.37674,-0.44773 -0.80937,-0.81405 -0.9614,-0.81405 -0.15204,0 -0.56777,-0.32742 -0.92384,-0.7276 -2.75976,-3.10159 -4.3187,-6.29621 -4.81228,-9.86143 -0.39067,-2.82187 0.0906,-6.60898 1.00254,-7.88974 1.22165,-1.71564 2.55216,-2.29753 3.56311,-1.55831 0.49914,0.36499 0.52807,0.64827 0.28987,2.83916 -0.14268,1.31236 -0.0789,1.57858 0.64939,2.71198 0.44418,0.69122 0.98882,1.25677 1.2103,1.25677 0.22149,0 0.4027,0.15959 0.4027,0.35465 0,0.19955 1.18609,0.85136 2.71198,1.49037 1.49159,0.62464 3.30729,1.40333 4.0349,1.73042 0.7276,0.3271 1.62057,0.6842 1.98437,0.79355 0.8474,0.25473 3.96849,2.27484 4.53153,2.933 0.95049,1.11109 1.10814,2.20975 0.64167,4.47197 -0.52579,2.54993 -1.10161,3.47873 -3.44471,5.556252 -0.98474,0.873125 -3.17548,2.972258 -4.86831,4.664737 -1.69284,1.692481 -3.33493,3.155579 -3.64909,3.251326 -0.59525,0.181415 -2.07176,1.988532 -3.99541,4.890029 -1.13941,1.718596 -1.91568,3.769133 -1.91568,5.060297 0,0.636672 -0.68785,1.580486 -1.15186,1.580486 -0.10128,0 -0.2973,-0.297614 -0.4356,-0.661366 z"
       id="path847" />
  </g>
</svg>
